<?xml version="1.0" encoding="utf-8" standalone="no"?>
<!DOCTYPE svg PUBLIC "-//W3C//DTD SVG 1.1//EN"
  "http://www.w3.org/Graphics/SVG/1.1/DTD/svg11.dtd">
<!-- Created with matplotlib (http://matplotlib.org/) -->
<svg height="345pt" version="1.1" viewBox="0 0 460 345" width="460pt" xmlns="http://www.w3.org/2000/svg" xmlns:xlink="http://www.w3.org/1999/xlink">
 <defs>
  <style type="text/css">
*{stroke-linecap:butt;stroke-linejoin:round;}
  </style>
 </defs>
 <g id="figure_1">
  <g id="patch_1">
   <path d="M 0 345.6 
L 460.8 345.6 
L 460.8 0 
L 0 0 
z
" style="fill:#ffffff;"/>
  </g>
  <g id="axes_1">
   <g id="patch_2">
    <path d="M 57.6 307.584 
L 414.72 307.584 
L 414.72 41.472 
L 57.6 41.472 
z
" style="fill:#ffffff;"/>
   </g>
   <g id="PolyCollection_1">
    <defs>
     <path d="M 57.6 -68.172652 
L 57.6 -51.344339 
L 63.18 -51.344339 
L 68.76 -51.344339 
L 74.34 -51.344339 
L 79.92 -51.344339 
L 85.5 -51.344339 
L 91.08 -51.344339 
L 96.66 -51.344339 
L 102.24 -51.344339 
L 107.82 -51.344339 
L 113.4 -51.344339 
L 118.98 -51.344339 
L 124.56 -51.344339 
L 130.14 -51.344339 
L 135.72 -51.344339 
L 141.3 -51.344339 
L 146.88 -51.344339 
L 152.46 -51.344339 
L 158.04 -51.344339 
L 163.62 -51.344339 
L 169.2 -51.344339 
L 174.78 -51.344339 
L 180.36 -51.344339 
L 185.94 -51.344339 
L 191.52 -51.344339 
L 197.1 -51.344339 
L 202.68 -51.344339 
L 208.26 -51.344339 
L 213.84 -51.344339 
L 219.42 -51.344339 
L 225 -51.344339 
L 230.58 -51.344339 
L 236.16 -51.344339 
L 241.74 -51.344339 
L 247.32 -51.344339 
L 252.9 -51.344339 
L 258.48 -51.344339 
L 264.06 -51.344339 
L 269.64 -51.344339 
L 275.22 -51.344339 
L 280.8 -51.344339 
L 286.38 -51.344339 
L 291.96 -51.344339 
L 297.54 -51.344339 
L 303.12 -51.344339 
L 308.7 -51.344339 
L 314.28 -51.344339 
L 319.86 -51.344339 
L 325.44 -51.344339 
L 331.02 -51.344339 
L 336.6 -51.344339 
L 342.18 -51.344339 
L 347.76 -51.344339 
L 353.34 -51.344339 
L 358.92 -51.344339 
L 364.5 -51.344339 
L 370.08 -51.344339 
L 375.66 -51.344339 
L 381.24 -51.344339 
L 386.82 -51.344339 
L 392.4 -51.344339 
L 397.98 -51.344339 
L 403.56 -51.344339 
L 409.14 -51.344339 
L 414.72 -51.344339 
L 414.72 -155.585581 
L 414.72 -155.585581 
L 409.14 -154.165663 
L 403.56 -152.36598 
L 397.98 -150.074155 
L 392.4 -147.419885 
L 386.82 -144.640932 
L 381.24 -141.923151 
L 375.66 -139.268504 
L 370.08 -136.754089 
L 364.5 -134.369923 
L 358.92 -132.008962 
L 353.34 -129.686083 
L 347.76 -127.542738 
L 342.18 -125.624189 
L 336.6 -123.899794 
L 331.02 -122.29284 
L 325.44 -120.764382 
L 319.86 -119.345888 
L 314.28 -118.03075 
L 308.7 -116.817517 
L 303.12 -115.639487 
L 297.54 -114.548787 
L 291.96 -113.663532 
L 286.38 -113.023643 
L 280.8 -112.542286 
L 275.22 -112.144222 
L 269.64 -111.660508 
L 264.06 -110.94767 
L 258.48 -109.903708 
L 252.9 -108.598016 
L 247.32 -107.217594 
L 241.74 -105.83955 
L 236.16 -104.36843 
L 230.58 -102.810548 
L 225 -101.186436 
L 219.42 -99.53211 
L 213.84 -97.864356 
L 208.26 -96.179812 
L 202.68 -94.490265 
L 197.1 -92.819034 
L 191.52 -91.138432 
L 185.94 -89.518256 
L 180.36 -88.077956 
L 174.78 -86.873651 
L 169.2 -85.853439 
L 163.62 -84.912992 
L 158.04 -83.978061 
L 152.46 -83.060579 
L 146.88 -82.134295 
L 141.3 -81.205151 
L 135.72 -80.308002 
L 130.14 -79.444763 
L 124.56 -78.577749 
L 118.98 -77.696732 
L 113.4 -76.806958 
L 107.82 -75.919091 
L 102.24 -75.041807 
L 96.66 -74.179585 
L 91.08 -73.331596 
L 85.5 -72.492722 
L 79.92 -71.656035 
L 74.34 -70.813603 
L 68.76 -69.957551 
L 63.18 -69.079793 
L 57.6 -68.172652 
z
" id="m4df7468e70" style="stroke:#1f77b4;stroke-opacity:0.5;"/>
    </defs>
    <g clip-path="url(#p1d7c9c97bc)">
     <use style="fill:#1f77b4;fill-opacity:0.5;stroke:#1f77b4;stroke-opacity:0.5;" x="0" xlink:href="#m4df7468e70" y="345.6"/>
    </g>
   </g>
   <g id="PolyCollection_2">
    <defs>
     <path d="M 57.6 -70.713833 
L 57.6 -51.344339 
L 63.18 -51.344339 
L 68.76 -51.344339 
L 74.34 -51.344339 
L 79.92 -51.344339 
L 85.5 -51.344339 
L 91.08 -51.344339 
L 96.66 -51.344339 
L 102.24 -51.344339 
L 107.82 -51.344339 
L 113.4 -51.344339 
L 118.98 -51.344339 
L 124.56 -51.344339 
L 130.14 -51.344339 
L 135.72 -51.344339 
L 141.3 -51.344339 
L 146.88 -51.344339 
L 152.46 -51.344339 
L 158.04 -51.344339 
L 163.62 -51.344339 
L 169.2 -51.344339 
L 174.78 -51.344339 
L 180.36 -51.344339 
L 185.94 -51.344339 
L 191.52 -51.344339 
L 197.1 -51.344339 
L 202.68 -51.344339 
L 208.26 -51.344339 
L 213.84 -51.344339 
L 219.42 -51.344339 
L 225 -51.344339 
L 230.58 -51.344339 
L 236.16 -51.344339 
L 241.74 -51.344339 
L 247.32 -51.344339 
L 252.9 -51.344339 
L 258.48 -51.344339 
L 264.06 -51.344339 
L 269.64 -51.344339 
L 275.22 -51.344339 
L 280.8 -51.344339 
L 286.38 -51.344339 
L 291.96 -51.344339 
L 297.54 -51.344339 
L 303.12 -51.344339 
L 308.7 -51.344339 
L 314.28 -51.344339 
L 319.86 -51.344339 
L 325.44 -51.344339 
L 331.02 -51.344339 
L 336.6 -51.344339 
L 342.18 -51.344339 
L 347.76 -51.344339 
L 353.34 -51.344339 
L 358.92 -51.344339 
L 364.5 -51.344339 
L 370.08 -51.344339 
L 375.66 -51.344339 
L 381.24 -51.344339 
L 386.82 -51.344339 
L 392.4 -51.344339 
L 397.98 -51.344339 
L 403.56 -51.344339 
L 409.14 -51.344339 
L 414.72 -51.344339 
L 414.72 -78.716322 
L 414.72 -78.716322 
L 409.14 -79.127935 
L 403.56 -79.489161 
L 397.98 -79.789769 
L 392.4 -80.038381 
L 386.82 -80.28263 
L 381.24 -80.511696 
L 375.66 -80.669047 
L 370.08 -80.739972 
L 364.5 -80.759405 
L 358.92 -80.726851 
L 353.34 -80.733756 
L 347.76 -80.893862 
L 342.18 -81.267865 
L 336.6 -81.791318 
L 331.02 -82.367977 
L 325.44 -82.886126 
L 319.86 -83.304379 
L 314.28 -83.570635 
L 308.7 -83.721754 
L 303.12 -83.83152 
L 297.54 -83.959169 
L 291.96 -84.099238 
L 286.38 -84.270667 
L 280.8 -84.455915 
L 275.22 -84.624153 
L 269.64 -84.746892 
L 264.06 -84.820295 
L 258.48 -84.832929 
L 252.9 -84.791975 
L 247.32 -84.727812 
L 241.74 -84.640659 
L 236.16 -84.501195 
L 230.58 -84.303377 
L 225 -84.06148 
L 219.42 -83.774879 
L 213.84 -83.481457 
L 208.26 -83.228868 
L 202.68 -83.042251 
L 197.1 -82.894605 
L 191.52 -82.764877 
L 185.94 -82.591158 
L 180.36 -82.320614 
L 174.78 -81.919144 
L 169.2 -81.425653 
L 163.62 -80.867798 
L 158.04 -80.335721 
L 152.46 -79.909669 
L 146.88 -79.640456 
L 141.3 -79.471088 
L 135.72 -79.338765 
L 130.14 -79.128397 
L 124.56 -78.763118 
L 118.98 -78.18244 
L 113.4 -77.443499 
L 107.82 -76.643155 
L 102.24 -75.864231 
L 96.66 -75.156764 
L 91.08 -74.53315 
L 85.5 -73.970671 
L 79.92 -73.43484 
L 74.34 -72.884204 
L 68.76 -72.274765 
L 63.18 -71.565194 
L 57.6 -70.713833 
z
" id="m337fa74bf5" style="stroke:#ff7f0e;stroke-opacity:0.5;"/>
    </defs>
    <g clip-path="url(#p1d7c9c97bc)">
     <use style="fill:#ff7f0e;fill-opacity:0.5;stroke:#ff7f0e;stroke-opacity:0.5;" x="0" xlink:href="#m337fa74bf5" y="345.6"/>
    </g>
   </g>
   <g id="PolyCollection_3">
    <defs>
     <path d="M 57.6 -171.640332 
L 57.6 -51.344339 
L 63.18 -51.344339 
L 68.76 -51.344339 
L 74.34 -51.344339 
L 79.92 -51.344339 
L 85.5 -51.344339 
L 91.08 -51.344339 
L 96.66 -51.344339 
L 102.24 -51.344339 
L 107.82 -51.344339 
L 113.4 -51.344339 
L 118.98 -51.344339 
L 124.56 -51.344339 
L 130.14 -51.344339 
L 135.72 -51.344339 
L 141.3 -51.344339 
L 146.88 -51.344339 
L 152.46 -51.344339 
L 158.04 -51.344339 
L 163.62 -51.344339 
L 169.2 -51.344339 
L 174.78 -51.344339 
L 180.36 -51.344339 
L 185.94 -51.344339 
L 191.52 -51.344339 
L 197.1 -51.344339 
L 202.68 -51.344339 
L 208.26 -51.344339 
L 213.84 -51.344339 
L 219.42 -51.344339 
L 225 -51.344339 
L 230.58 -51.344339 
L 236.16 -51.344339 
L 241.74 -51.344339 
L 247.32 -51.344339 
L 252.9 -51.344339 
L 258.48 -51.344339 
L 264.06 -51.344339 
L 269.64 -51.344339 
L 275.22 -51.344339 
L 280.8 -51.344339 
L 286.38 -51.344339 
L 291.96 -51.344339 
L 297.54 -51.344339 
L 303.12 -51.344339 
L 308.7 -51.344339 
L 314.28 -51.344339 
L 319.86 -51.344339 
L 325.44 -51.344339 
L 331.02 -51.344339 
L 336.6 -51.344339 
L 342.18 -51.344339 
L 347.76 -51.344339 
L 353.34 -51.344339 
L 358.92 -51.344339 
L 364.5 -51.344339 
L 370.08 -51.344339 
L 375.66 -51.344339 
L 381.24 -51.344339 
L 386.82 -51.344339 
L 392.4 -51.344339 
L 397.98 -51.344339 
L 403.56 -51.344339 
L 409.14 -51.344339 
L 414.72 -51.344339 
L 414.72 -224.536912 
L 414.72 -224.536912 
L 409.14 -228.498003 
L 403.56 -230.929947 
L 397.98 -231.38248 
L 392.4 -230.402449 
L 386.82 -228.73045 
L 381.24 -227.338638 
L 375.66 -226.70297 
L 370.08 -227.310989 
L 364.5 -228.827401 
L 358.92 -230.793407 
L 353.34 -232.494352 
L 347.76 -233.587652 
L 342.18 -233.764038 
L 336.6 -233.46062 
L 331.02 -232.92804 
L 325.44 -233.179765 
L 319.86 -235.201478 
L 314.28 -239.594828 
L 308.7 -245.731301 
L 303.12 -251.910915 
L 297.54 -257.627941 
L 291.96 -263.852218 
L 286.38 -270.552543 
L 280.8 -277.171183 
L 275.22 -284.302198 
L 269.64 -290.187844 
L 264.06 -292.032 
L 258.48 -288.518524 
L 252.9 -281.088317 
L 247.32 -272.291373 
L 241.74 -264.298661 
L 236.16 -257.314066 
L 230.58 -252.253535 
L 225 -248.819871 
L 219.42 -245.13515 
L 213.84 -241.430395 
L 208.26 -239.934882 
L 202.68 -241.270201 
L 197.1 -244.56876 
L 191.52 -248.363566 
L 185.94 -251.393467 
L 180.36 -253.460616 
L 174.78 -253.981562 
L 169.2 -253.026517 
L 163.62 -252.110392 
L 158.04 -250.557533 
L 152.46 -246.000678 
L 146.88 -237.64165 
L 141.3 -226.582771 
L 135.72 -214.420411 
L 130.14 -202.970348 
L 124.56 -192.972828 
L 118.98 -185.338516 
L 113.4 -179.641108 
L 107.82 -174.999707 
L 102.24 -170.693867 
L 96.66 -166.377439 
L 91.08 -162.132259 
L 85.5 -158.441141 
L 79.92 -155.920595 
L 74.34 -155.267413 
L 68.76 -157.205152 
L 63.18 -162.43051 
L 57.6 -171.640332 
z
" id="m27c7b67652" style="stroke:#2ca02c;stroke-opacity:0.5;"/>
    </defs>
    <g clip-path="url(#p1d7c9c97bc)">
     <use style="fill:#2ca02c;fill-opacity:0.5;stroke:#2ca02c;stroke-opacity:0.5;" x="0" xlink:href="#m27c7b67652" y="345.6"/>
    </g>
   </g>
   <g id="PolyCollection_4">
    <defs>
     <path d="M 57.6 -65.469046 
L 57.6 -51.344339 
L 63.18 -51.344339 
L 68.76 -51.344339 
L 74.34 -51.344339 
L 79.92 -51.344339 
L 85.5 -51.344339 
L 91.08 -51.344339 
L 96.66 -51.344339 
L 102.24 -51.344339 
L 107.82 -51.344339 
L 113.4 -51.344339 
L 118.98 -51.344339 
L 124.56 -51.344339 
L 130.14 -51.344339 
L 135.72 -51.344339 
L 141.3 -51.344339 
L 146.88 -51.344339 
L 152.46 -51.344339 
L 158.04 -51.344339 
L 163.62 -51.344339 
L 169.2 -51.344339 
L 174.78 -51.344339 
L 180.36 -51.344339 
L 185.94 -51.344339 
L 191.52 -51.344339 
L 197.1 -51.344339 
L 202.68 -51.344339 
L 208.26 -51.344339 
L 213.84 -51.344339 
L 219.42 -51.344339 
L 225 -51.344339 
L 230.58 -51.344339 
L 236.16 -51.344339 
L 241.74 -51.344339 
L 247.32 -51.344339 
L 252.9 -51.344339 
L 258.48 -51.344339 
L 264.06 -51.344339 
L 269.64 -51.344339 
L 275.22 -51.344339 
L 280.8 -51.344339 
L 286.38 -51.344339 
L 291.96 -51.344339 
L 297.54 -51.344339 
L 303.12 -51.344339 
L 308.7 -51.344339 
L 314.28 -51.344339 
L 319.86 -51.344339 
L 325.44 -51.344339 
L 331.02 -51.344339 
L 336.6 -51.344339 
L 342.18 -51.344339 
L 347.76 -51.344339 
L 353.34 -51.344339 
L 358.92 -51.344339 
L 364.5 -51.344339 
L 370.08 -51.344339 
L 375.66 -51.344339 
L 381.24 -51.344339 
L 386.82 -51.344339 
L 392.4 -51.344339 
L 397.98 -51.344339 
L 403.56 -51.344339 
L 409.14 -51.344339 
L 414.72 -51.344339 
L 414.72 -51.389896 
L 414.72 -51.389896 
L 409.14 -51.388452 
L 403.56 -51.643511 
L 397.98 -52.252236 
L 392.4 -53.095496 
L 386.82 -53.991339 
L 381.24 -54.084162 
L 375.66 -55.291344 
L 370.08 -55.535395 
L 364.5 -55.524987 
L 358.92 -55.557201 
L 353.34 -55.564551 
L 347.76 -55.178008 
L 342.18 -54.2955 
L 336.6 -53.112963 
L 331.02 -51.709614 
L 325.44 -50.545096 
L 319.86 -50.112 
L 314.28 -50.698953 
L 308.7 -52.024099 
L 303.12 -53.606005 
L 297.54 -54.988442 
L 291.96 -56.090667 
L 286.38 -56.718259 
L 280.8 -56.991525 
L 275.22 -57.24453 
L 269.64 -57.598226 
L 264.06 -57.843394 
L 258.48 -57.98043 
L 252.9 -58.044614 
L 247.32 -58.049243 
L 241.74 -58.08813 
L 236.16 -58.285889 
L 230.58 -58.704915 
L 225 -59.292187 
L 219.42 -59.906616 
L 213.84 -60.494194 
L 208.26 -61.12667 
L 202.68 -61.798189 
L 197.1 -62.483005 
L 191.52 -63.22967 
L 185.94 -63.943096 
L 180.36 -64.457011 
L 174.78 -64.697555 
L 169.2 -64.752239 
L 163.62 -64.66349 
L 158.04 -64.647059 
L 152.46 -64.91747 
L 146.88 -65.600618 
L 141.3 -66.548192 
L 135.72 -67.608988 
L 130.14 -68.478002 
L 124.56 -68.934054 
L 118.98 -68.812923 
L 113.4 -68.271528 
L 107.82 -67.575242 
L 102.24 -66.951266 
L 96.66 -66.536352 
L 91.08 -66.365384 
L 85.5 -66.376695 
L 79.92 -66.476818 
L 74.34 -66.552887 
L 68.76 -66.485596 
L 63.18 -66.162018 
L 57.6 -65.469046 
z
" id="m9c3810ba88" style="stroke:#d62728;stroke-opacity:0.5;"/>
    </defs>
    <g clip-path="url(#p1d7c9c97bc)">
     <use style="fill:#d62728;fill-opacity:0.5;stroke:#d62728;stroke-opacity:0.5;" x="0" xlink:href="#m9c3810ba88" y="345.6"/>
    </g>
   </g>
   <g id="PolyCollection_5">
    <defs>
     <path d="M 57.6 -52.685613 
L 57.6 -51.344339 
L 63.18 -51.344339 
L 68.76 -51.344339 
L 74.34 -51.344339 
L 79.92 -51.344339 
L 85.5 -51.344339 
L 91.08 -51.344339 
L 96.66 -51.344339 
L 102.24 -51.344339 
L 107.82 -51.344339 
L 113.4 -51.344339 
L 118.98 -51.344339 
L 124.56 -51.344339 
L 130.14 -51.344339 
L 135.72 -51.344339 
L 141.3 -51.344339 
L 146.88 -51.344339 
L 152.46 -51.344339 
L 158.04 -51.344339 
L 163.62 -51.344339 
L 169.2 -51.344339 
L 174.78 -51.344339 
L 180.36 -51.344339 
L 185.94 -51.344339 
L 191.52 -51.344339 
L 197.1 -51.344339 
L 202.68 -51.344339 
L 208.26 -51.344339 
L 213.84 -51.344339 
L 219.42 -51.344339 
L 225 -51.344339 
L 230.58 -51.344339 
L 236.16 -51.344339 
L 241.74 -51.344339 
L 247.32 -51.344339 
L 252.9 -51.344339 
L 258.48 -51.344339 
L 264.06 -51.344339 
L 269.64 -51.344339 
L 275.22 -51.344339 
L 280.8 -51.344339 
L 286.38 -51.344339 
L 291.96 -51.344339 
L 297.54 -51.344339 
L 303.12 -51.344339 
L 308.7 -51.344339 
L 314.28 -51.344339 
L 319.86 -51.344339 
L 325.44 -51.344339 
L 331.02 -51.344339 
L 336.6 -51.344339 
L 342.18 -51.344339 
L 347.76 -51.344339 
L 353.34 -51.344339 
L 358.92 -51.344339 
L 364.5 -51.344339 
L 370.08 -51.344339 
L 375.66 -51.344339 
L 381.24 -51.344339 
L 386.82 -51.344339 
L 392.4 -51.344339 
L 397.98 -51.344339 
L 403.56 -51.344339 
L 409.14 -51.344339 
L 414.72 -51.344339 
L 414.72 -53.746183 
L 414.72 -53.746183 
L 409.14 -53.754091 
L 403.56 -53.777918 
L 397.98 -53.824163 
L 392.4 -53.880388 
L 386.82 -53.94802 
L 381.24 -53.984493 
L 375.66 -53.976114 
L 370.08 -53.875617 
L 364.5 -53.713108 
L 358.92 -53.529629 
L 353.34 -53.36494 
L 347.76 -53.232234 
L 342.18 -53.151149 
L 336.6 -53.11038 
L 331.02 -53.076919 
L 325.44 -53.039254 
L 319.86 -53.018905 
L 314.28 -53.017049 
L 308.7 -53.029157 
L 303.12 -53.049376 
L 297.54 -53.070871 
L 291.96 -53.089775 
L 286.38 -53.101947 
L 280.8 -53.107726 
L 275.22 -53.112249 
L 269.64 -53.114635 
L 264.06 -53.107865 
L 258.48 -53.089549 
L 252.9 -53.060842 
L 247.32 -53.036482 
L 241.74 -53.009136 
L 236.16 -52.956561 
L 230.58 -52.871684 
L 225 -52.768159 
L 219.42 -52.653362 
L 213.84 -52.557926 
L 208.26 -52.512819 
L 202.68 -52.536985 
L 197.1 -52.613114 
L 191.52 -52.699376 
L 185.94 -52.776463 
L 180.36 -52.861176 
L 174.78 -52.94927 
L 169.2 -53.034306 
L 163.62 -53.131397 
L 158.04 -53.215938 
L 152.46 -53.241562 
L 146.88 -53.187979 
L 141.3 -53.077709 
L 135.72 -52.943096 
L 130.14 -52.823645 
L 124.56 -52.73603 
L 118.98 -52.69925 
L 113.4 -52.699792 
L 107.82 -52.713308 
L 102.24 -52.719213 
L 96.66 -52.70597 
L 91.08 -52.672535 
L 85.5 -52.627465 
L 79.92 -52.582664 
L 74.34 -52.55187 
L 68.76 -52.549614 
L 63.18 -52.589577 
L 57.6 -52.685613 
z
" id="m5c9879a4b4" style="stroke:#9467bd;stroke-opacity:0.5;"/>
    </defs>
    <g clip-path="url(#p1d7c9c97bc)">
     <use style="fill:#9467bd;fill-opacity:0.5;stroke:#9467bd;stroke-opacity:0.5;" x="0" xlink:href="#m5c9879a4b4" y="345.6"/>
    </g>
   </g>
   <g id="matplotlib.axis_1">
    <g id="xtick_1">
     <g id="line2d_1">
      <defs>
       <path d="M 0 0 
L 0 3.5 
" id="m2be4058a9a" style="stroke:#000000;stroke-width:0.8;"/>
      </defs>
      <g>
       <use style="stroke:#000000;stroke-width:0.8;" x="107.82" xlink:href="#m2be4058a9a" y="307.584"/>
      </g>
     </g>
     <g id="text_1">
      <!-- 1960 -->
      <defs>
       <path d="M 12.40625 8.296875 
L 28.515625 8.296875 
L 28.515625 63.921875 
L 10.984375 60.40625 
L 10.984375 69.390625 
L 28.421875 72.90625 
L 38.28125 72.90625 
L 38.28125 8.296875 
L 54.390625 8.296875 
L 54.390625 0 
L 12.40625 0 
z
" id="DejaVuSans-31"/>
       <path d="M 10.984375 1.515625 
L 10.984375 10.5 
Q 14.703125 8.734375 18.5 7.8125 
Q 22.3125 6.890625 25.984375 6.890625 
Q 35.75 6.890625 40.890625 13.453125 
Q 46.046875 20.015625 46.78125 33.40625 
Q 43.953125 29.203125 39.59375 26.953125 
Q 35.25 24.703125 29.984375 24.703125 
Q 19.046875 24.703125 12.671875 31.3125 
Q 6.296875 37.9375 6.296875 49.421875 
Q 6.296875 60.640625 12.9375 67.421875 
Q 19.578125 74.21875 30.609375 74.21875 
Q 43.265625 74.21875 49.921875 64.515625 
Q 56.59375 54.828125 56.59375 36.375 
Q 56.59375 19.140625 48.40625 8.859375 
Q 40.234375 -1.421875 26.421875 -1.421875 
Q 22.703125 -1.421875 18.890625 -0.6875 
Q 15.09375 0.046875 10.984375 1.515625 
M 30.609375 32.421875 
Q 37.25 32.421875 41.125 36.953125 
Q 45.015625 41.5 45.015625 49.421875 
Q 45.015625 57.28125 41.125 61.84375 
Q 37.25 66.40625 30.609375 66.40625 
Q 23.96875 66.40625 20.09375 61.84375 
Q 16.21875 57.28125 16.21875 49.421875 
Q 16.21875 41.5 20.09375 36.953125 
Q 23.96875 32.421875 30.609375 32.421875 
" id="DejaVuSans-39"/>
       <path d="M 33.015625 40.375 
Q 26.375 40.375 22.484375 35.828125 
Q 18.609375 31.296875 18.609375 23.390625 
Q 18.609375 15.53125 22.484375 10.953125 
Q 26.375 6.390625 33.015625 6.390625 
Q 39.65625 6.390625 43.53125 10.953125 
Q 47.40625 15.53125 47.40625 23.390625 
Q 47.40625 31.296875 43.53125 35.828125 
Q 39.65625 40.375 33.015625 40.375 
M 52.59375 71.296875 
L 52.59375 62.3125 
Q 48.875 64.0625 45.09375 64.984375 
Q 41.3125 65.921875 37.59375 65.921875 
Q 27.828125 65.921875 22.671875 59.328125 
Q 17.53125 52.734375 16.796875 39.40625 
Q 19.671875 43.65625 24.015625 45.921875 
Q 28.375 48.1875 33.59375 48.1875 
Q 44.578125 48.1875 50.953125 41.515625 
Q 57.328125 34.859375 57.328125 23.390625 
Q 57.328125 12.15625 50.6875 5.359375 
Q 44.046875 -1.421875 33.015625 -1.421875 
Q 20.359375 -1.421875 13.671875 8.265625 
Q 6.984375 17.96875 6.984375 36.375 
Q 6.984375 53.65625 15.1875 63.9375 
Q 23.390625 74.21875 37.203125 74.21875 
Q 40.921875 74.21875 44.703125 73.484375 
Q 48.484375 72.75 52.59375 71.296875 
" id="DejaVuSans-36"/>
       <path d="M 31.78125 66.40625 
Q 24.171875 66.40625 20.328125 58.90625 
Q 16.5 51.421875 16.5 36.375 
Q 16.5 21.390625 20.328125 13.890625 
Q 24.171875 6.390625 31.78125 6.390625 
Q 39.453125 6.390625 43.28125 13.890625 
Q 47.125 21.390625 47.125 36.375 
Q 47.125 51.421875 43.28125 58.90625 
Q 39.453125 66.40625 31.78125 66.40625 
M 31.78125 74.21875 
Q 44.046875 74.21875 50.515625 64.515625 
Q 56.984375 54.828125 56.984375 36.375 
Q 56.984375 17.96875 50.515625 8.265625 
Q 44.046875 -1.421875 31.78125 -1.421875 
Q 19.53125 -1.421875 13.0625 8.265625 
Q 6.59375 17.96875 6.59375 36.375 
Q 6.59375 54.828125 13.0625 64.515625 
Q 19.53125 74.21875 31.78125 74.21875 
" id="DejaVuSans-30"/>
      </defs>
      <g transform="translate(95.095 322.182437)scale(0.1 -0.1)">
       <use xlink:href="#DejaVuSans-31"/>
       <use x="63.623047" xlink:href="#DejaVuSans-39"/>
       <use x="127.246094" xlink:href="#DejaVuSans-36"/>
       <use x="190.869141" xlink:href="#DejaVuSans-30"/>
      </g>
     </g>
    </g>
    <g id="xtick_2">
     <g id="line2d_2">
      <g>
       <use style="stroke:#000000;stroke-width:0.8;" x="163.62" xlink:href="#m2be4058a9a" y="307.584"/>
      </g>
     </g>
     <g id="text_2">
      <!-- 1970 -->
      <defs>
       <path d="M 8.203125 72.90625 
L 55.078125 72.90625 
L 55.078125 68.703125 
L 28.609375 0 
L 18.3125 0 
L 43.21875 64.59375 
L 8.203125 64.59375 
z
" id="DejaVuSans-37"/>
      </defs>
      <g transform="translate(150.895 322.182437)scale(0.1 -0.1)">
       <use xlink:href="#DejaVuSans-31"/>
       <use x="63.623047" xlink:href="#DejaVuSans-39"/>
       <use x="127.246094" xlink:href="#DejaVuSans-37"/>
       <use x="190.869141" xlink:href="#DejaVuSans-30"/>
      </g>
     </g>
    </g>
    <g id="xtick_3">
     <g id="line2d_3">
      <g>
       <use style="stroke:#000000;stroke-width:0.8;" x="219.42" xlink:href="#m2be4058a9a" y="307.584"/>
      </g>
     </g>
     <g id="text_3">
      <!-- 1980 -->
      <defs>
       <path d="M 31.78125 34.625 
Q 24.75 34.625 20.71875 30.859375 
Q 16.703125 27.09375 16.703125 20.515625 
Q 16.703125 13.921875 20.71875 10.15625 
Q 24.75 6.390625 31.78125 6.390625 
Q 38.8125 6.390625 42.859375 10.171875 
Q 46.921875 13.96875 46.921875 20.515625 
Q 46.921875 27.09375 42.890625 30.859375 
Q 38.875 34.625 31.78125 34.625 
M 21.921875 38.8125 
Q 15.578125 40.375 12.03125 44.71875 
Q 8.5 49.078125 8.5 55.328125 
Q 8.5 64.0625 14.71875 69.140625 
Q 20.953125 74.21875 31.78125 74.21875 
Q 42.671875 74.21875 48.875 69.140625 
Q 55.078125 64.0625 55.078125 55.328125 
Q 55.078125 49.078125 51.53125 44.71875 
Q 48 40.375 41.703125 38.8125 
Q 48.828125 37.15625 52.796875 32.3125 
Q 56.78125 27.484375 56.78125 20.515625 
Q 56.78125 9.90625 50.3125 4.234375 
Q 43.84375 -1.421875 31.78125 -1.421875 
Q 19.734375 -1.421875 13.25 4.234375 
Q 6.78125 9.90625 6.78125 20.515625 
Q 6.78125 27.484375 10.78125 32.3125 
Q 14.796875 37.15625 21.921875 38.8125 
M 18.3125 54.390625 
Q 18.3125 48.734375 21.84375 45.5625 
Q 25.390625 42.390625 31.78125 42.390625 
Q 38.140625 42.390625 41.71875 45.5625 
Q 45.3125 48.734375 45.3125 54.390625 
Q 45.3125 60.0625 41.71875 63.234375 
Q 38.140625 66.40625 31.78125 66.40625 
Q 25.390625 66.40625 21.84375 63.234375 
Q 18.3125 60.0625 18.3125 54.390625 
" id="DejaVuSans-38"/>
      </defs>
      <g transform="translate(206.695 322.182437)scale(0.1 -0.1)">
       <use xlink:href="#DejaVuSans-31"/>
       <use x="63.623047" xlink:href="#DejaVuSans-39"/>
       <use x="127.246094" xlink:href="#DejaVuSans-38"/>
       <use x="190.869141" xlink:href="#DejaVuSans-30"/>
      </g>
     </g>
    </g>
    <g id="xtick_4">
     <g id="line2d_4">
      <g>
       <use style="stroke:#000000;stroke-width:0.8;" x="275.22" xlink:href="#m2be4058a9a" y="307.584"/>
      </g>
     </g>
     <g id="text_4">
      <!-- 1990 -->
      <g transform="translate(262.495 322.182437)scale(0.1 -0.1)">
       <use xlink:href="#DejaVuSans-31"/>
       <use x="63.623047" xlink:href="#DejaVuSans-39"/>
       <use x="127.246094" xlink:href="#DejaVuSans-39"/>
       <use x="190.869141" xlink:href="#DejaVuSans-30"/>
      </g>
     </g>
    </g>
    <g id="xtick_5">
     <g id="line2d_5">
      <g>
       <use style="stroke:#000000;stroke-width:0.8;" x="331.02" xlink:href="#m2be4058a9a" y="307.584"/>
      </g>
     </g>
     <g id="text_5">
      <!-- 2000 -->
      <defs>
       <path d="M 19.1875 8.296875 
L 53.609375 8.296875 
L 53.609375 0 
L 7.328125 0 
L 7.328125 8.296875 
Q 12.9375 14.109375 22.625 23.890625 
Q 32.328125 33.6875 34.8125 36.53125 
Q 39.546875 41.84375 41.421875 45.53125 
Q 43.3125 49.21875 43.3125 52.78125 
Q 43.3125 58.59375 39.234375 62.25 
Q 35.15625 65.921875 28.609375 65.921875 
Q 23.96875 65.921875 18.8125 64.3125 
Q 13.671875 62.703125 7.8125 59.421875 
L 7.8125 69.390625 
Q 13.765625 71.78125 18.9375 73 
Q 24.125 74.21875 28.421875 74.21875 
Q 39.75 74.21875 46.484375 68.546875 
Q 53.21875 62.890625 53.21875 53.421875 
Q 53.21875 48.921875 51.53125 44.890625 
Q 49.859375 40.875 45.40625 35.40625 
Q 44.1875 33.984375 37.640625 27.21875 
Q 31.109375 20.453125 19.1875 8.296875 
" id="DejaVuSans-32"/>
      </defs>
      <g transform="translate(318.295 322.182437)scale(0.1 -0.1)">
       <use xlink:href="#DejaVuSans-32"/>
       <use x="63.623047" xlink:href="#DejaVuSans-30"/>
       <use x="127.246094" xlink:href="#DejaVuSans-30"/>
       <use x="190.869141" xlink:href="#DejaVuSans-30"/>
      </g>
     </g>
    </g>
    <g id="xtick_6">
     <g id="line2d_6">
      <g>
       <use style="stroke:#000000;stroke-width:0.8;" x="386.82" xlink:href="#m2be4058a9a" y="307.584"/>
      </g>
     </g>
     <g id="text_6">
      <!-- 2010 -->
      <g transform="translate(374.095 322.182437)scale(0.1 -0.1)">
       <use xlink:href="#DejaVuSans-32"/>
       <use x="63.623047" xlink:href="#DejaVuSans-30"/>
       <use x="127.246094" xlink:href="#DejaVuSans-31"/>
       <use x="190.869141" xlink:href="#DejaVuSans-30"/>
      </g>
     </g>
    </g>
    <g id="text_7">
     <!-- Jahr -->
     <defs>
      <path d="M 9.8125 72.90625 
L 19.671875 72.90625 
L 19.671875 5.078125 
Q 19.671875 -8.109375 14.671875 -14.0625 
Q 9.671875 -20.015625 -1.421875 -20.015625 
L -5.171875 -20.015625 
L -5.171875 -11.71875 
L -2.09375 -11.71875 
Q 4.4375 -11.71875 7.125 -8.046875 
Q 9.8125 -4.390625 9.8125 5.078125 
z
" id="DejaVuSans-4a"/>
      <path d="M 34.28125 27.484375 
Q 23.390625 27.484375 19.1875 25 
Q 14.984375 22.515625 14.984375 16.5 
Q 14.984375 11.71875 18.140625 8.90625 
Q 21.296875 6.109375 26.703125 6.109375 
Q 34.1875 6.109375 38.703125 11.40625 
Q 43.21875 16.703125 43.21875 25.484375 
L 43.21875 27.484375 
z
M 52.203125 31.203125 
L 52.203125 0 
L 43.21875 0 
L 43.21875 8.296875 
Q 40.140625 3.328125 35.546875 0.953125 
Q 30.953125 -1.421875 24.3125 -1.421875 
Q 15.921875 -1.421875 10.953125 3.296875 
Q 6 8.015625 6 15.921875 
Q 6 25.140625 12.171875 29.828125 
Q 18.359375 34.515625 30.609375 34.515625 
L 43.21875 34.515625 
L 43.21875 35.40625 
Q 43.21875 41.609375 39.140625 45 
Q 35.0625 48.390625 27.6875 48.390625 
Q 23 48.390625 18.546875 47.265625 
Q 14.109375 46.140625 10.015625 43.890625 
L 10.015625 52.203125 
Q 14.9375 54.109375 19.578125 55.046875 
Q 24.21875 56 28.609375 56 
Q 40.484375 56 46.34375 49.84375 
Q 52.203125 43.703125 52.203125 31.203125 
" id="DejaVuSans-61"/>
      <path d="M 54.890625 33.015625 
L 54.890625 0 
L 45.90625 0 
L 45.90625 32.71875 
Q 45.90625 40.484375 42.875 44.328125 
Q 39.84375 48.1875 33.796875 48.1875 
Q 26.515625 48.1875 22.3125 43.546875 
Q 18.109375 38.921875 18.109375 30.90625 
L 18.109375 0 
L 9.078125 0 
L 9.078125 75.984375 
L 18.109375 75.984375 
L 18.109375 46.1875 
Q 21.34375 51.125 25.703125 53.5625 
Q 30.078125 56 35.796875 56 
Q 45.21875 56 50.046875 50.171875 
Q 54.890625 44.34375 54.890625 33.015625 
" id="DejaVuSans-68"/>
      <path d="M 41.109375 46.296875 
Q 39.59375 47.171875 37.8125 47.578125 
Q 36.03125 48 33.890625 48 
Q 26.265625 48 22.1875 43.046875 
Q 18.109375 38.09375 18.109375 28.8125 
L 18.109375 0 
L 9.078125 0 
L 9.078125 54.6875 
L 18.109375 54.6875 
L 18.109375 46.1875 
Q 20.953125 51.171875 25.484375 53.578125 
Q 30.03125 56 36.53125 56 
Q 37.453125 56 38.578125 55.875 
Q 39.703125 55.765625 41.0625 55.515625 
z
" id="DejaVuSans-72"/>
     </defs>
     <g transform="translate(226.396719 335.860562)scale(0.1 -0.1)">
      <use xlink:href="#DejaVuSans-4a"/>
      <use x="29.492188" xlink:href="#DejaVuSans-61"/>
      <use x="90.771484" xlink:href="#DejaVuSans-68"/>
      <use x="154.150391" xlink:href="#DejaVuSans-72"/>
     </g>
    </g>
   </g>
   <g id="matplotlib.axis_2">
    <g id="ytick_1">
     <g id="line2d_7">
      <defs>
       <path d="M 0 0 
L -3.5 0 
" id="me5f55c5952" style="stroke:#000000;stroke-width:0.8;"/>
      </defs>
      <g>
       <use style="stroke:#000000;stroke-width:0.8;" x="57.6" xlink:href="#me5f55c5952" y="294.255661"/>
      </g>
     </g>
     <g id="text_8">
      <!-- 0 -->
      <g transform="translate(44.2375 298.054879)scale(0.1 -0.1)">
       <use xlink:href="#DejaVuSans-30"/>
      </g>
     </g>
    </g>
    <g id="ytick_2">
     <g id="line2d_8">
      <g>
       <use style="stroke:#000000;stroke-width:0.8;" x="57.6" xlink:href="#me5f55c5952" y="252.256068"/>
      </g>
     </g>
     <g id="text_9">
      <!-- 10 -->
      <g transform="translate(37.875 256.055287)scale(0.1 -0.1)">
       <use xlink:href="#DejaVuSans-31"/>
       <use x="63.623047" xlink:href="#DejaVuSans-30"/>
      </g>
     </g>
    </g>
    <g id="ytick_3">
     <g id="line2d_9">
      <g>
       <use style="stroke:#000000;stroke-width:0.8;" x="57.6" xlink:href="#me5f55c5952" y="210.256476"/>
      </g>
     </g>
     <g id="text_10">
      <!-- 20 -->
      <g transform="translate(37.875 214.055695)scale(0.1 -0.1)">
       <use xlink:href="#DejaVuSans-32"/>
       <use x="63.623047" xlink:href="#DejaVuSans-30"/>
      </g>
     </g>
    </g>
    <g id="ytick_4">
     <g id="line2d_10">
      <g>
       <use style="stroke:#000000;stroke-width:0.8;" x="57.6" xlink:href="#me5f55c5952" y="168.256883"/>
      </g>
     </g>
     <g id="text_11">
      <!-- 30 -->
      <defs>
       <path d="M 40.578125 39.3125 
Q 47.65625 37.796875 51.625 33 
Q 55.609375 28.21875 55.609375 21.1875 
Q 55.609375 10.40625 48.1875 4.484375 
Q 40.765625 -1.421875 27.09375 -1.421875 
Q 22.515625 -1.421875 17.65625 -0.515625 
Q 12.796875 0.390625 7.625 2.203125 
L 7.625 11.71875 
Q 11.71875 9.328125 16.59375 8.109375 
Q 21.484375 6.890625 26.8125 6.890625 
Q 36.078125 6.890625 40.9375 10.546875 
Q 45.796875 14.203125 45.796875 21.1875 
Q 45.796875 27.640625 41.28125 31.265625 
Q 36.765625 34.90625 28.71875 34.90625 
L 20.21875 34.90625 
L 20.21875 43.015625 
L 29.109375 43.015625 
Q 36.375 43.015625 40.234375 45.921875 
Q 44.09375 48.828125 44.09375 54.296875 
Q 44.09375 59.90625 40.109375 62.90625 
Q 36.140625 65.921875 28.71875 65.921875 
Q 24.65625 65.921875 20.015625 65.03125 
Q 15.375 64.15625 9.8125 62.3125 
L 9.8125 71.09375 
Q 15.4375 72.65625 20.34375 73.4375 
Q 25.25 74.21875 29.59375 74.21875 
Q 40.828125 74.21875 47.359375 69.109375 
Q 53.90625 64.015625 53.90625 55.328125 
Q 53.90625 49.265625 50.4375 45.09375 
Q 46.96875 40.921875 40.578125 39.3125 
" id="DejaVuSans-33"/>
      </defs>
      <g transform="translate(37.875 172.056102)scale(0.1 -0.1)">
       <use xlink:href="#DejaVuSans-33"/>
       <use x="63.623047" xlink:href="#DejaVuSans-30"/>
      </g>
     </g>
    </g>
    <g id="ytick_5">
     <g id="line2d_11">
      <g>
       <use style="stroke:#000000;stroke-width:0.8;" x="57.6" xlink:href="#me5f55c5952" y="126.257291"/>
      </g>
     </g>
     <g id="text_12">
      <!-- 40 -->
      <defs>
       <path d="M 37.796875 64.3125 
L 12.890625 25.390625 
L 37.796875 25.390625 
z
M 35.203125 72.90625 
L 47.609375 72.90625 
L 47.609375 25.390625 
L 58.015625 25.390625 
L 58.015625 17.1875 
L 47.609375 17.1875 
L 47.609375 0 
L 37.796875 0 
L 37.796875 17.1875 
L 4.890625 17.1875 
L 4.890625 26.703125 
z
" id="DejaVuSans-34"/>
      </defs>
      <g transform="translate(37.875 130.05651)scale(0.1 -0.1)">
       <use xlink:href="#DejaVuSans-34"/>
       <use x="63.623047" xlink:href="#DejaVuSans-30"/>
      </g>
     </g>
    </g>
    <g id="ytick_6">
     <g id="line2d_12">
      <g>
       <use style="stroke:#000000;stroke-width:0.8;" x="57.6" xlink:href="#me5f55c5952" y="84.257699"/>
      </g>
     </g>
     <g id="text_13">
      <!-- 50 -->
      <defs>
       <path d="M 10.796875 72.90625 
L 49.515625 72.90625 
L 49.515625 64.59375 
L 19.828125 64.59375 
L 19.828125 46.734375 
Q 21.96875 47.46875 24.109375 47.828125 
Q 26.265625 48.1875 28.421875 48.1875 
Q 40.625 48.1875 47.75 41.5 
Q 54.890625 34.8125 54.890625 23.390625 
Q 54.890625 11.625 47.5625 5.09375 
Q 40.234375 -1.421875 26.90625 -1.421875 
Q 22.3125 -1.421875 17.546875 -0.640625 
Q 12.796875 0.140625 7.71875 1.703125 
L 7.71875 11.625 
Q 12.109375 9.234375 16.796875 8.0625 
Q 21.484375 6.890625 26.703125 6.890625 
Q 35.15625 6.890625 40.078125 11.328125 
Q 45.015625 15.765625 45.015625 23.390625 
Q 45.015625 31 40.078125 35.4375 
Q 35.15625 39.890625 26.703125 39.890625 
Q 22.75 39.890625 18.8125 39.015625 
Q 14.890625 38.140625 10.796875 36.28125 
z
" id="DejaVuSans-35"/>
      </defs>
      <g transform="translate(37.875 88.056917)scale(0.1 -0.1)">
       <use xlink:href="#DejaVuSans-35"/>
       <use x="63.623047" xlink:href="#DejaVuSans-30"/>
      </g>
     </g>
    </g>
    <g id="ytick_7">
     <g id="line2d_13">
      <g>
       <use style="stroke:#000000;stroke-width:0.8;" x="57.6" xlink:href="#me5f55c5952" y="42.258106"/>
      </g>
     </g>
     <g id="text_14">
      <!-- 60 -->
      <g transform="translate(37.875 46.057325)scale(0.1 -0.1)">
       <use xlink:href="#DejaVuSans-36"/>
       <use x="63.623047" xlink:href="#DejaVuSans-30"/>
      </g>
     </g>
    </g>
    <g id="text_15">
     <!-- Bevölkerungswachstum [Mio/Jahr] -->
     <defs>
      <path d="M 19.671875 34.8125 
L 19.671875 8.109375 
L 35.5 8.109375 
Q 43.453125 8.109375 47.28125 11.40625 
Q 51.125 14.703125 51.125 21.484375 
Q 51.125 28.328125 47.28125 31.5625 
Q 43.453125 34.8125 35.5 34.8125 
z
M 19.671875 64.796875 
L 19.671875 42.828125 
L 34.28125 42.828125 
Q 41.5 42.828125 45.03125 45.53125 
Q 48.578125 48.25 48.578125 53.8125 
Q 48.578125 59.328125 45.03125 62.0625 
Q 41.5 64.796875 34.28125 64.796875 
z
M 9.8125 72.90625 
L 35.015625 72.90625 
Q 46.296875 72.90625 52.390625 68.21875 
Q 58.5 63.53125 58.5 54.890625 
Q 58.5 48.1875 55.375 44.234375 
Q 52.25 40.28125 46.1875 39.3125 
Q 53.46875 37.75 57.5 32.78125 
Q 61.53125 27.828125 61.53125 20.40625 
Q 61.53125 10.640625 54.890625 5.3125 
Q 48.25 0 35.984375 0 
L 9.8125 0 
z
" id="DejaVuSans-42"/>
      <path d="M 56.203125 29.59375 
L 56.203125 25.203125 
L 14.890625 25.203125 
Q 15.484375 15.921875 20.484375 11.0625 
Q 25.484375 6.203125 34.421875 6.203125 
Q 39.59375 6.203125 44.453125 7.46875 
Q 49.3125 8.734375 54.109375 11.28125 
L 54.109375 2.78125 
Q 49.265625 0.734375 44.1875 -0.34375 
Q 39.109375 -1.421875 33.890625 -1.421875 
Q 20.796875 -1.421875 13.15625 6.1875 
Q 5.515625 13.8125 5.515625 26.8125 
Q 5.515625 40.234375 12.765625 48.109375 
Q 20.015625 56 32.328125 56 
Q 43.359375 56 49.78125 48.890625 
Q 56.203125 41.796875 56.203125 29.59375 
M 47.21875 32.234375 
Q 47.125 39.59375 43.09375 43.984375 
Q 39.0625 48.390625 32.421875 48.390625 
Q 24.90625 48.390625 20.390625 44.140625 
Q 15.875 39.890625 15.1875 32.171875 
z
" id="DejaVuSans-65"/>
      <path d="M 2.984375 54.6875 
L 12.5 54.6875 
L 29.59375 8.796875 
L 46.6875 54.6875 
L 56.203125 54.6875 
L 35.6875 0 
L 23.484375 0 
z
" id="DejaVuSans-76"/>
      <path d="M 30.609375 48.390625 
Q 23.390625 48.390625 19.1875 42.75 
Q 14.984375 37.109375 14.984375 27.296875 
Q 14.984375 17.484375 19.15625 11.84375 
Q 23.34375 6.203125 30.609375 6.203125 
Q 37.796875 6.203125 41.984375 11.859375 
Q 46.1875 17.53125 46.1875 27.296875 
Q 46.1875 37.015625 41.984375 42.703125 
Q 37.796875 48.390625 30.609375 48.390625 
M 30.609375 56 
Q 42.328125 56 49.015625 48.375 
Q 55.71875 40.765625 55.71875 27.296875 
Q 55.71875 13.875 49.015625 6.21875 
Q 42.328125 -1.421875 30.609375 -1.421875 
Q 18.84375 -1.421875 12.171875 6.21875 
Q 5.515625 13.875 5.515625 27.296875 
Q 5.515625 40.765625 12.171875 48.375 
Q 18.84375 56 30.609375 56 
M 35.21875 75.78125 
L 45.125 75.78125 
L 45.125 65.921875 
L 35.21875 65.921875 
z
M 16.125 75.78125 
L 26.03125 75.78125 
L 26.03125 65.921875 
L 16.125 65.921875 
z
" id="DejaVuSans-f6"/>
      <path d="M 9.421875 75.984375 
L 18.40625 75.984375 
L 18.40625 0 
L 9.421875 0 
z
" id="DejaVuSans-6c"/>
      <path d="M 9.078125 75.984375 
L 18.109375 75.984375 
L 18.109375 31.109375 
L 44.921875 54.6875 
L 56.390625 54.6875 
L 27.390625 29.109375 
L 57.625 0 
L 45.90625 0 
L 18.109375 26.703125 
L 18.109375 0 
L 9.078125 0 
z
" id="DejaVuSans-6b"/>
      <path d="M 8.5 21.578125 
L 8.5 54.6875 
L 17.484375 54.6875 
L 17.484375 21.921875 
Q 17.484375 14.15625 20.5 10.265625 
Q 23.53125 6.390625 29.59375 6.390625 
Q 36.859375 6.390625 41.078125 11.03125 
Q 45.3125 15.671875 45.3125 23.6875 
L 45.3125 54.6875 
L 54.296875 54.6875 
L 54.296875 0 
L 45.3125 0 
L 45.3125 8.40625 
Q 42.046875 3.421875 37.71875 1 
Q 33.40625 -1.421875 27.6875 -1.421875 
Q 18.265625 -1.421875 13.375 4.4375 
Q 8.5 10.296875 8.5 21.578125 
M 31.109375 56 
z
" id="DejaVuSans-75"/>
      <path d="M 54.890625 33.015625 
L 54.890625 0 
L 45.90625 0 
L 45.90625 32.71875 
Q 45.90625 40.484375 42.875 44.328125 
Q 39.84375 48.1875 33.796875 48.1875 
Q 26.515625 48.1875 22.3125 43.546875 
Q 18.109375 38.921875 18.109375 30.90625 
L 18.109375 0 
L 9.078125 0 
L 9.078125 54.6875 
L 18.109375 54.6875 
L 18.109375 46.1875 
Q 21.34375 51.125 25.703125 53.5625 
Q 30.078125 56 35.796875 56 
Q 45.21875 56 50.046875 50.171875 
Q 54.890625 44.34375 54.890625 33.015625 
" id="DejaVuSans-6e"/>
      <path d="M 45.40625 27.984375 
Q 45.40625 37.75 41.375 43.109375 
Q 37.359375 48.484375 30.078125 48.484375 
Q 22.859375 48.484375 18.828125 43.109375 
Q 14.796875 37.75 14.796875 27.984375 
Q 14.796875 18.265625 18.828125 12.890625 
Q 22.859375 7.515625 30.078125 7.515625 
Q 37.359375 7.515625 41.375 12.890625 
Q 45.40625 18.265625 45.40625 27.984375 
M 54.390625 6.78125 
Q 54.390625 -7.171875 48.1875 -13.984375 
Q 42 -20.796875 29.203125 -20.796875 
Q 24.46875 -20.796875 20.265625 -20.09375 
Q 16.0625 -19.390625 12.109375 -17.921875 
L 12.109375 -9.1875 
Q 16.0625 -11.328125 19.921875 -12.34375 
Q 23.78125 -13.375 27.78125 -13.375 
Q 36.625 -13.375 41.015625 -8.765625 
Q 45.40625 -4.15625 45.40625 5.171875 
L 45.40625 9.625 
Q 42.625 4.78125 38.28125 2.390625 
Q 33.9375 0 27.875 0 
Q 17.828125 0 11.671875 7.65625 
Q 5.515625 15.328125 5.515625 27.984375 
Q 5.515625 40.671875 11.671875 48.328125 
Q 17.828125 56 27.875 56 
Q 33.9375 56 38.28125 53.609375 
Q 42.625 51.21875 45.40625 46.390625 
L 45.40625 54.6875 
L 54.390625 54.6875 
z
" id="DejaVuSans-67"/>
      <path d="M 44.28125 53.078125 
L 44.28125 44.578125 
Q 40.484375 46.53125 36.375 47.5 
Q 32.28125 48.484375 27.875 48.484375 
Q 21.1875 48.484375 17.84375 46.4375 
Q 14.5 44.390625 14.5 40.28125 
Q 14.5 37.15625 16.890625 35.375 
Q 19.28125 33.59375 26.515625 31.984375 
L 29.59375 31.296875 
Q 39.15625 29.25 43.1875 25.515625 
Q 47.21875 21.78125 47.21875 15.09375 
Q 47.21875 7.46875 41.1875 3.015625 
Q 35.15625 -1.421875 24.609375 -1.421875 
Q 20.21875 -1.421875 15.453125 -0.5625 
Q 10.6875 0.296875 5.421875 2 
L 5.421875 11.28125 
Q 10.40625 8.6875 15.234375 7.390625 
Q 20.0625 6.109375 24.8125 6.109375 
Q 31.15625 6.109375 34.5625 8.28125 
Q 37.984375 10.453125 37.984375 14.40625 
Q 37.984375 18.0625 35.515625 20.015625 
Q 33.0625 21.96875 24.703125 23.78125 
L 21.578125 24.515625 
Q 13.234375 26.265625 9.515625 29.90625 
Q 5.8125 33.546875 5.8125 39.890625 
Q 5.8125 47.609375 11.28125 51.796875 
Q 16.75 56 26.8125 56 
Q 31.78125 56 36.171875 55.265625 
Q 40.578125 54.546875 44.28125 53.078125 
" id="DejaVuSans-73"/>
      <path d="M 4.203125 54.6875 
L 13.1875 54.6875 
L 24.421875 12.015625 
L 35.59375 54.6875 
L 46.1875 54.6875 
L 57.421875 12.015625 
L 68.609375 54.6875 
L 77.59375 54.6875 
L 63.28125 0 
L 52.6875 0 
L 40.921875 44.828125 
L 29.109375 0 
L 18.5 0 
z
" id="DejaVuSans-77"/>
      <path d="M 48.78125 52.59375 
L 48.78125 44.1875 
Q 44.96875 46.296875 41.140625 47.34375 
Q 37.3125 48.390625 33.40625 48.390625 
Q 24.65625 48.390625 19.8125 42.84375 
Q 14.984375 37.3125 14.984375 27.296875 
Q 14.984375 17.28125 19.8125 11.734375 
Q 24.65625 6.203125 33.40625 6.203125 
Q 37.3125 6.203125 41.140625 7.25 
Q 44.96875 8.296875 48.78125 10.40625 
L 48.78125 2.09375 
Q 45.015625 0.34375 40.984375 -0.53125 
Q 36.96875 -1.421875 32.421875 -1.421875 
Q 20.0625 -1.421875 12.78125 6.34375 
Q 5.515625 14.109375 5.515625 27.296875 
Q 5.515625 40.671875 12.859375 48.328125 
Q 20.21875 56 33.015625 56 
Q 37.15625 56 41.109375 55.140625 
Q 45.0625 54.296875 48.78125 52.59375 
" id="DejaVuSans-63"/>
      <path d="M 18.3125 70.21875 
L 18.3125 54.6875 
L 36.8125 54.6875 
L 36.8125 47.703125 
L 18.3125 47.703125 
L 18.3125 18.015625 
Q 18.3125 11.328125 20.140625 9.421875 
Q 21.96875 7.515625 27.59375 7.515625 
L 36.8125 7.515625 
L 36.8125 0 
L 27.59375 0 
Q 17.1875 0 13.234375 3.875 
Q 9.28125 7.765625 9.28125 18.015625 
L 9.28125 47.703125 
L 2.6875 47.703125 
L 2.6875 54.6875 
L 9.28125 54.6875 
L 9.28125 70.21875 
z
" id="DejaVuSans-74"/>
      <path d="M 52 44.1875 
Q 55.375 50.25 60.0625 53.125 
Q 64.75 56 71.09375 56 
Q 79.640625 56 84.28125 50.015625 
Q 88.921875 44.046875 88.921875 33.015625 
L 88.921875 0 
L 79.890625 0 
L 79.890625 32.71875 
Q 79.890625 40.578125 77.09375 44.375 
Q 74.3125 48.1875 68.609375 48.1875 
Q 61.625 48.1875 57.5625 43.546875 
Q 53.515625 38.921875 53.515625 30.90625 
L 53.515625 0 
L 44.484375 0 
L 44.484375 32.71875 
Q 44.484375 40.625 41.703125 44.40625 
Q 38.921875 48.1875 33.109375 48.1875 
Q 26.21875 48.1875 22.15625 43.53125 
Q 18.109375 38.875 18.109375 30.90625 
L 18.109375 0 
L 9.078125 0 
L 9.078125 54.6875 
L 18.109375 54.6875 
L 18.109375 46.1875 
Q 21.1875 51.21875 25.484375 53.609375 
Q 29.78125 56 35.6875 56 
Q 41.65625 56 45.828125 52.96875 
Q 50 49.953125 52 44.1875 
" id="DejaVuSans-6d"/>
      <path id="DejaVuSans-20"/>
      <path d="M 8.59375 75.984375 
L 29.296875 75.984375 
L 29.296875 69 
L 17.578125 69 
L 17.578125 -6.203125 
L 29.296875 -6.203125 
L 29.296875 -13.1875 
L 8.59375 -13.1875 
z
" id="DejaVuSans-5b"/>
      <path d="M 9.8125 72.90625 
L 24.515625 72.90625 
L 43.109375 23.296875 
L 61.8125 72.90625 
L 76.515625 72.90625 
L 76.515625 0 
L 66.890625 0 
L 66.890625 64.015625 
L 48.09375 14.015625 
L 38.1875 14.015625 
L 19.390625 64.015625 
L 19.390625 0 
L 9.8125 0 
z
" id="DejaVuSans-4d"/>
      <path d="M 9.421875 54.6875 
L 18.40625 54.6875 
L 18.40625 0 
L 9.421875 0 
z
M 9.421875 75.984375 
L 18.40625 75.984375 
L 18.40625 64.59375 
L 9.421875 64.59375 
z
" id="DejaVuSans-69"/>
      <path d="M 30.609375 48.390625 
Q 23.390625 48.390625 19.1875 42.75 
Q 14.984375 37.109375 14.984375 27.296875 
Q 14.984375 17.484375 19.15625 11.84375 
Q 23.34375 6.203125 30.609375 6.203125 
Q 37.796875 6.203125 41.984375 11.859375 
Q 46.1875 17.53125 46.1875 27.296875 
Q 46.1875 37.015625 41.984375 42.703125 
Q 37.796875 48.390625 30.609375 48.390625 
M 30.609375 56 
Q 42.328125 56 49.015625 48.375 
Q 55.71875 40.765625 55.71875 27.296875 
Q 55.71875 13.875 49.015625 6.21875 
Q 42.328125 -1.421875 30.609375 -1.421875 
Q 18.84375 -1.421875 12.171875 6.21875 
Q 5.515625 13.875 5.515625 27.296875 
Q 5.515625 40.765625 12.171875 48.375 
Q 18.84375 56 30.609375 56 
" id="DejaVuSans-6f"/>
      <path d="M 25.390625 72.90625 
L 33.6875 72.90625 
L 8.296875 -9.28125 
L 0 -9.28125 
z
" id="DejaVuSans-2f"/>
      <path d="M 30.421875 75.984375 
L 30.421875 -13.1875 
L 9.71875 -13.1875 
L 9.71875 -6.203125 
L 21.390625 -6.203125 
L 21.390625 69 
L 9.71875 69 
L 9.71875 75.984375 
z
" id="DejaVuSans-5d"/>
     </defs>
     <g transform="translate(31.795312 259.960031)rotate(-90)scale(0.1 -0.1)">
      <use xlink:href="#DejaVuSans-42"/>
      <use x="68.603516" xlink:href="#DejaVuSans-65"/>
      <use x="130.126953" xlink:href="#DejaVuSans-76"/>
      <use x="189.306641" xlink:href="#DejaVuSans-f6"/>
      <use x="250.488281" xlink:href="#DejaVuSans-6c"/>
      <use x="278.271484" xlink:href="#DejaVuSans-6b"/>
      <use x="336.134766" xlink:href="#DejaVuSans-65"/>
      <use x="397.658203" xlink:href="#DejaVuSans-72"/>
      <use x="438.771484" xlink:href="#DejaVuSans-75"/>
      <use x="502.150391" xlink:href="#DejaVuSans-6e"/>
      <use x="565.529297" xlink:href="#DejaVuSans-67"/>
      <use x="629.005859" xlink:href="#DejaVuSans-73"/>
      <use x="681.105469" xlink:href="#DejaVuSans-77"/>
      <use x="762.892578" xlink:href="#DejaVuSans-61"/>
      <use x="824.171875" xlink:href="#DejaVuSans-63"/>
      <use x="879.152344" xlink:href="#DejaVuSans-68"/>
      <use x="942.53125" xlink:href="#DejaVuSans-73"/>
      <use x="994.630859" xlink:href="#DejaVuSans-74"/>
      <use x="1033.839844" xlink:href="#DejaVuSans-75"/>
      <use x="1097.21875" xlink:href="#DejaVuSans-6d"/>
      <use x="1194.630859" xlink:href="#DejaVuSans-20"/>
      <use x="1226.417969" xlink:href="#DejaVuSans-5b"/>
      <use x="1265.431641" xlink:href="#DejaVuSans-4d"/>
      <use x="1351.710938" xlink:href="#DejaVuSans-69"/>
      <use x="1379.494141" xlink:href="#DejaVuSans-6f"/>
      <use x="1440.675781" xlink:href="#DejaVuSans-2f"/>
      <use x="1474.367188" xlink:href="#DejaVuSans-4a"/>
      <use x="1503.859375" xlink:href="#DejaVuSans-61"/>
      <use x="1565.138672" xlink:href="#DejaVuSans-68"/>
      <use x="1628.517578" xlink:href="#DejaVuSans-72"/>
      <use x="1669.630859" xlink:href="#DejaVuSans-5d"/>
     </g>
    </g>
   </g>
   <g id="line2d_14">
    <path clip-path="url(#p1d7c9c97bc)" d="M 57.6 277.427348 
L 63.18 276.520207 
L 68.76 275.642449 
L 74.34 274.786397 
L 79.92 273.943965 
L 85.5 273.107278 
L 91.08 272.268404 
L 96.66 271.420415 
L 102.24 270.558193 
L 107.82 269.680909 
L 113.4 268.793042 
L 118.98 267.903268 
L 124.56 267.022251 
L 130.14 266.155237 
L 135.72 265.291998 
L 141.3 264.394849 
L 146.88 263.465705 
L 152.46 262.539421 
L 158.04 261.621939 
L 163.62 260.687008 
L 169.2 259.746561 
L 174.78 258.726349 
L 180.36 257.522044 
L 185.94 256.081744 
L 191.52 254.461568 
L 197.1 252.780966 
L 202.68 251.109735 
L 208.26 249.420188 
L 213.84 247.735644 
L 219.42 246.06789 
L 225 244.413564 
L 230.58 242.789452 
L 236.16 241.23157 
L 241.74 239.76045 
L 247.32 238.382406 
L 252.9 237.001984 
L 258.48 235.696292 
L 264.06 234.65233 
L 269.64 233.939492 
L 275.22 233.455778 
L 280.8 233.057714 
L 286.38 232.576357 
L 291.96 231.936468 
L 297.54 231.051213 
L 303.12 229.960513 
L 308.7 228.782483 
L 314.28 227.56925 
L 319.86 226.254112 
L 325.44 224.835618 
L 331.02 223.30716 
L 336.6 221.700206 
L 342.18 219.975811 
L 347.76 218.057262 
L 353.34 215.913917 
L 358.92 213.591038 
L 364.5 211.230077 
L 370.08 208.845911 
L 375.66 206.331496 
L 381.24 203.676849 
L 386.82 200.959068 
L 392.4 198.180115 
L 397.98 195.525845 
L 403.56 193.23402 
L 409.14 191.434337 
L 414.72 190.014419 
" style="fill:none;opacity:0.5;stroke:#1f77b4;stroke-linecap:square;stroke-width:1.5;"/>
   </g>
   <g id="line2d_15">
    <path clip-path="url(#p1d7c9c97bc)" d="M 57.6 274.886167 
L 63.18 274.034806 
L 68.76 273.325235 
L 74.34 272.715796 
L 79.92 272.16516 
L 85.5 271.629329 
L 91.08 271.06685 
L 96.66 270.443236 
L 102.24 269.735769 
L 107.82 268.956845 
L 113.4 268.156501 
L 118.98 267.41756 
L 124.56 266.836882 
L 130.14 266.471603 
L 135.72 266.261235 
L 141.3 266.128912 
L 146.88 265.959544 
L 152.46 265.690331 
L 158.04 265.264279 
L 163.62 264.732202 
L 169.2 264.174347 
L 174.78 263.680856 
L 180.36 263.279386 
L 185.94 263.008842 
L 191.52 262.835123 
L 197.1 262.705395 
L 202.68 262.557749 
L 208.26 262.371132 
L 213.84 262.118543 
L 219.42 261.825121 
L 225 261.53852 
L 230.58 261.296623 
L 236.16 261.098805 
L 241.74 260.959341 
L 247.32 260.872188 
L 252.9 260.808025 
L 258.48 260.767071 
L 264.06 260.779705 
L 269.64 260.853108 
L 275.22 260.975847 
L 280.8 261.144085 
L 286.38 261.329333 
L 291.96 261.500762 
L 297.54 261.640831 
L 303.12 261.76848 
L 308.7 261.878246 
L 314.28 262.029365 
L 319.86 262.295621 
L 325.44 262.713874 
L 331.02 263.232023 
L 336.6 263.808682 
L 342.18 264.332135 
L 347.76 264.706138 
L 353.34 264.866244 
L 358.92 264.873149 
L 364.5 264.840595 
L 370.08 264.860028 
L 375.66 264.930953 
L 381.24 265.088304 
L 386.82 265.31737 
L 392.4 265.561619 
L 397.98 265.810231 
L 403.56 266.110839 
L 409.14 266.472065 
L 414.72 266.883678 
" style="fill:none;opacity:0.5;stroke:#ff7f0e;stroke-linecap:square;stroke-width:1.5;"/>
   </g>
   <g id="line2d_16">
    <path clip-path="url(#p1d7c9c97bc)" d="M 57.6 173.959668 
L 63.18 183.16949 
L 68.76 188.394848 
L 74.34 190.332587 
L 79.92 189.679405 
L 85.5 187.158859 
L 91.08 183.467741 
L 96.66 179.222561 
L 102.24 174.906133 
L 107.82 170.600293 
L 113.4 165.958892 
L 118.98 160.261484 
L 124.56 152.627172 
L 130.14 142.629652 
L 135.72 131.179589 
L 141.3 119.017229 
L 146.88 107.95835 
L 152.46 99.599322 
L 158.04 95.042467 
L 163.62 93.489608 
L 169.2 92.573483 
L 174.78 91.618438 
L 180.36 92.139384 
L 185.94 94.206533 
L 191.52 97.236434 
L 197.1 101.03124 
L 202.68 104.329799 
L 208.26 105.665118 
L 213.84 104.169605 
L 219.42 100.46485 
L 225 96.780129 
L 230.58 93.346465 
L 236.16 88.285934 
L 241.74 81.301339 
L 247.32 73.308627 
L 252.9 64.511683 
L 258.48 57.081476 
L 264.06 53.568 
L 269.64 55.412156 
L 275.22 61.297802 
L 280.8 68.428817 
L 286.38 75.047457 
L 291.96 81.747782 
L 297.54 87.972059 
L 303.12 93.689085 
L 308.7 99.868699 
L 314.28 106.005172 
L 319.86 110.398522 
L 325.44 112.420235 
L 331.02 112.67196 
L 336.6 112.13938 
L 342.18 111.835962 
L 347.76 112.012348 
L 353.34 113.105648 
L 358.92 114.806593 
L 364.5 116.772599 
L 370.08 118.289011 
L 375.66 118.89703 
L 381.24 118.261362 
L 386.82 116.86955 
L 392.4 115.197551 
L 397.98 114.21752 
L 403.56 114.670053 
L 409.14 117.101997 
L 414.72 121.063088 
" style="fill:none;opacity:0.5;stroke:#2ca02c;stroke-linecap:square;stroke-width:1.5;"/>
   </g>
   <g id="line2d_17">
    <path clip-path="url(#p1d7c9c97bc)" d="M 57.6 280.130954 
L 63.18 279.437982 
L 68.76 279.114404 
L 74.34 279.047113 
L 79.92 279.123182 
L 85.5 279.223305 
L 91.08 279.234616 
L 96.66 279.063648 
L 102.24 278.648734 
L 107.82 278.024758 
L 113.4 277.328472 
L 118.98 276.787077 
L 124.56 276.665946 
L 130.14 277.121998 
L 135.72 277.991012 
L 141.3 279.051808 
L 146.88 279.999382 
L 152.46 280.68253 
L 158.04 280.952941 
L 163.62 280.93651 
L 169.2 280.847761 
L 174.78 280.902445 
L 180.36 281.142989 
L 185.94 281.656904 
L 191.52 282.37033 
L 197.1 283.116995 
L 202.68 283.801811 
L 208.26 284.47333 
L 213.84 285.105806 
L 219.42 285.693384 
L 225 286.307813 
L 230.58 286.895085 
L 236.16 287.314111 
L 241.74 287.51187 
L 247.32 287.550757 
L 252.9 287.555386 
L 258.48 287.61957 
L 264.06 287.756606 
L 269.64 288.001774 
L 275.22 288.35547 
L 280.8 288.608475 
L 286.38 288.881741 
L 291.96 289.509333 
L 297.54 290.611558 
L 303.12 291.993995 
L 308.7 293.575901 
L 314.28 294.901047 
L 319.86 295.488 
L 325.44 295.054904 
L 331.02 293.890386 
L 336.6 292.487037 
L 342.18 291.3045 
L 347.76 290.421992 
L 353.34 290.035449 
L 358.92 290.042799 
L 364.5 290.075013 
L 370.08 290.064605 
L 375.66 290.308656 
L 381.24 291.515838 
L 386.82 291.608661 
L 392.4 292.504504 
L 397.98 293.347764 
L 403.56 293.956489 
L 409.14 294.211548 
L 414.72 294.210104 
" style="fill:none;opacity:0.5;stroke:#d62728;stroke-linecap:square;stroke-width:1.5;"/>
   </g>
   <g id="line2d_18">
    <path clip-path="url(#p1d7c9c97bc)" d="M 57.6 292.914387 
L 63.18 293.010423 
L 68.76 293.050386 
L 74.34 293.04813 
L 79.92 293.017336 
L 85.5 292.972535 
L 91.08 292.927465 
L 96.66 292.89403 
L 102.24 292.880787 
L 107.82 292.886692 
L 113.4 292.900208 
L 118.98 292.90075 
L 124.56 292.86397 
L 130.14 292.776355 
L 135.72 292.656904 
L 141.3 292.522291 
L 146.88 292.412021 
L 152.46 292.358438 
L 158.04 292.384062 
L 163.62 292.468603 
L 169.2 292.565694 
L 174.78 292.65073 
L 180.36 292.738824 
L 185.94 292.823537 
L 191.52 292.900624 
L 197.1 292.986886 
L 202.68 293.063015 
L 208.26 293.087181 
L 213.84 293.042074 
L 219.42 292.946638 
L 225 292.831841 
L 230.58 292.728316 
L 236.16 292.643439 
L 241.74 292.590864 
L 247.32 292.563518 
L 252.9 292.539158 
L 258.48 292.510451 
L 264.06 292.492135 
L 269.64 292.485365 
L 275.22 292.487751 
L 280.8 292.492274 
L 286.38 292.498053 
L 291.96 292.510225 
L 297.54 292.529129 
L 303.12 292.550624 
L 308.7 292.570843 
L 314.28 292.582951 
L 319.86 292.581095 
L 325.44 292.560746 
L 331.02 292.523081 
L 336.6 292.48962 
L 342.18 292.448851 
L 347.76 292.367766 
L 353.34 292.23506 
L 358.92 292.070371 
L 364.5 291.886892 
L 370.08 291.724383 
L 375.66 291.623886 
L 381.24 291.615507 
L 386.82 291.65198 
L 392.4 291.719612 
L 397.98 291.775837 
L 403.56 291.822082 
L 409.14 291.845909 
L 414.72 291.853817 
" style="fill:none;opacity:0.5;stroke:#9467bd;stroke-linecap:square;stroke-width:1.5;"/>
   </g>
   <g id="patch_3">
    <path d="M 57.6 307.584 
L 57.6 41.472 
" style="fill:none;stroke:#000000;stroke-linecap:square;stroke-linejoin:miter;stroke-width:0.8;"/>
   </g>
   <g id="patch_4">
    <path d="M 414.72 307.584 
L 414.72 41.472 
" style="fill:none;stroke:#000000;stroke-linecap:square;stroke-linejoin:miter;stroke-width:0.8;"/>
   </g>
   <g id="patch_5">
    <path d="M 57.6 307.584 
L 414.72 307.584 
" style="fill:none;stroke:#000000;stroke-linecap:square;stroke-linejoin:miter;stroke-width:0.8;"/>
   </g>
   <g id="patch_6">
    <path d="M 57.6 41.472 
L 414.72 41.472 
" style="fill:none;stroke:#000000;stroke-linecap:square;stroke-linejoin:miter;stroke-width:0.8;"/>
   </g>
   <g id="legend_1">
    <g id="patch_7">
     <path d="M 196.930312 220.062375 
L 275.389687 220.062375 
Q 277.389687 220.062375 277.389687 218.062375 
L 277.389687 130.993625 
Q 277.389687 128.993625 275.389687 128.993625 
L 196.930312 128.993625 
Q 194.930312 128.993625 194.930312 130.993625 
L 194.930312 218.062375 
Q 194.930312 220.062375 196.930312 220.062375 
z
" style="fill:#ffffff;opacity:0.8;stroke:#cccccc;stroke-linejoin:miter;"/>
    </g>
    <g id="text_16">
     <!-- region -->
     <g transform="translate(220.238125 140.592062)scale(0.1 -0.1)">
      <use xlink:href="#DejaVuSans-72"/>
      <use x="41.082031" xlink:href="#DejaVuSans-65"/>
      <use x="102.605469" xlink:href="#DejaVuSans-67"/>
      <use x="166.082031" xlink:href="#DejaVuSans-69"/>
      <use x="193.865234" xlink:href="#DejaVuSans-6f"/>
      <use x="255.046875" xlink:href="#DejaVuSans-6e"/>
     </g>
    </g>
    <g id="patch_8">
     <path d="M 198.930312 155.270187 
L 218.930312 155.270187 
L 218.930312 148.270187 
L 198.930312 148.270187 
z
" style="fill:#1f77b4;opacity:0.5;stroke:#1f77b4;stroke-linejoin:miter;"/>
    </g>
    <g id="text_17">
     <!-- Africa -->
     <defs>
      <path d="M 34.1875 63.1875 
L 20.796875 26.90625 
L 47.609375 26.90625 
z
M 28.609375 72.90625 
L 39.796875 72.90625 
L 67.578125 0 
L 57.328125 0 
L 50.6875 18.703125 
L 17.828125 18.703125 
L 11.1875 0 
L 0.78125 0 
z
" id="DejaVuSans-41"/>
      <path d="M 37.109375 75.984375 
L 37.109375 68.5 
L 28.515625 68.5 
Q 23.6875 68.5 21.796875 66.546875 
Q 19.921875 64.59375 19.921875 59.515625 
L 19.921875 54.6875 
L 34.71875 54.6875 
L 34.71875 47.703125 
L 19.921875 47.703125 
L 19.921875 0 
L 10.890625 0 
L 10.890625 47.703125 
L 2.296875 47.703125 
L 2.296875 54.6875 
L 10.890625 54.6875 
L 10.890625 58.5 
Q 10.890625 67.625 15.140625 71.796875 
Q 19.390625 75.984375 28.609375 75.984375 
z
" id="DejaVuSans-66"/>
     </defs>
     <g transform="translate(226.930312 155.270187)scale(0.1 -0.1)">
      <use xlink:href="#DejaVuSans-41"/>
      <use x="68.361328" xlink:href="#DejaVuSans-66"/>
      <use x="103.566406" xlink:href="#DejaVuSans-72"/>
      <use x="144.679688" xlink:href="#DejaVuSans-69"/>
      <use x="172.462891" xlink:href="#DejaVuSans-63"/>
      <use x="227.443359" xlink:href="#DejaVuSans-61"/>
     </g>
    </g>
    <g id="patch_9">
     <path d="M 198.930312 169.948312 
L 218.930312 169.948312 
L 218.930312 162.948312 
L 198.930312 162.948312 
z
" style="fill:#ff7f0e;opacity:0.5;stroke:#ff7f0e;stroke-linejoin:miter;"/>
    </g>
    <g id="text_18">
     <!-- Americas -->
     <g transform="translate(226.930312 169.948312)scale(0.1 -0.1)">
      <use xlink:href="#DejaVuSans-41"/>
      <use x="68.408203" xlink:href="#DejaVuSans-6d"/>
      <use x="165.820312" xlink:href="#DejaVuSans-65"/>
      <use x="227.34375" xlink:href="#DejaVuSans-72"/>
      <use x="268.457031" xlink:href="#DejaVuSans-69"/>
      <use x="296.240234" xlink:href="#DejaVuSans-63"/>
      <use x="351.220703" xlink:href="#DejaVuSans-61"/>
      <use x="412.5" xlink:href="#DejaVuSans-73"/>
     </g>
    </g>
    <g id="patch_10">
     <path d="M 198.930312 184.626438 
L 218.930312 184.626438 
L 218.930312 177.626438 
L 198.930312 177.626438 
z
" style="fill:#2ca02c;opacity:0.5;stroke:#2ca02c;stroke-linejoin:miter;"/>
    </g>
    <g id="text_19">
     <!-- Asia -->
     <g transform="translate(226.930312 184.626438)scale(0.1 -0.1)">
      <use xlink:href="#DejaVuSans-41"/>
      <use x="68.408203" xlink:href="#DejaVuSans-73"/>
      <use x="120.507812" xlink:href="#DejaVuSans-69"/>
      <use x="148.291016" xlink:href="#DejaVuSans-61"/>
     </g>
    </g>
    <g id="patch_11">
     <path d="M 198.930312 199.304563 
L 218.930312 199.304563 
L 218.930312 192.304563 
L 198.930312 192.304563 
z
" style="fill:#d62728;opacity:0.5;stroke:#d62728;stroke-linejoin:miter;"/>
    </g>
    <g id="text_20">
     <!-- Europe -->
     <defs>
      <path d="M 9.8125 72.90625 
L 55.90625 72.90625 
L 55.90625 64.59375 
L 19.671875 64.59375 
L 19.671875 43.015625 
L 54.390625 43.015625 
L 54.390625 34.71875 
L 19.671875 34.71875 
L 19.671875 8.296875 
L 56.78125 8.296875 
L 56.78125 0 
L 9.8125 0 
z
" id="DejaVuSans-45"/>
      <path d="M 18.109375 8.203125 
L 18.109375 -20.796875 
L 9.078125 -20.796875 
L 9.078125 54.6875 
L 18.109375 54.6875 
L 18.109375 46.390625 
Q 20.953125 51.265625 25.265625 53.625 
Q 29.59375 56 35.59375 56 
Q 45.5625 56 51.78125 48.09375 
Q 58.015625 40.1875 58.015625 27.296875 
Q 58.015625 14.40625 51.78125 6.484375 
Q 45.5625 -1.421875 35.59375 -1.421875 
Q 29.59375 -1.421875 25.265625 0.953125 
Q 20.953125 3.328125 18.109375 8.203125 
M 48.6875 27.296875 
Q 48.6875 37.203125 44.609375 42.84375 
Q 40.53125 48.484375 33.40625 48.484375 
Q 26.265625 48.484375 22.1875 42.84375 
Q 18.109375 37.203125 18.109375 27.296875 
Q 18.109375 17.390625 22.1875 11.75 
Q 26.265625 6.109375 33.40625 6.109375 
Q 40.53125 6.109375 44.609375 11.75 
Q 48.6875 17.390625 48.6875 27.296875 
" id="DejaVuSans-70"/>
     </defs>
     <g transform="translate(226.930312 199.304563)scale(0.1 -0.1)">
      <use xlink:href="#DejaVuSans-45"/>
      <use x="63.183594" xlink:href="#DejaVuSans-75"/>
      <use x="126.5625" xlink:href="#DejaVuSans-72"/>
      <use x="167.644531" xlink:href="#DejaVuSans-6f"/>
      <use x="228.826172" xlink:href="#DejaVuSans-70"/>
      <use x="292.302734" xlink:href="#DejaVuSans-65"/>
     </g>
    </g>
    <g id="patch_12">
     <path d="M 198.930312 213.982687 
L 218.930312 213.982687 
L 218.930312 206.982687 
L 198.930312 206.982687 
z
" style="fill:#9467bd;opacity:0.5;stroke:#9467bd;stroke-linejoin:miter;"/>
    </g>
    <g id="text_21">
     <!-- Oceania -->
     <defs>
      <path d="M 39.40625 66.21875 
Q 28.65625 66.21875 22.328125 58.203125 
Q 16.015625 50.203125 16.015625 36.375 
Q 16.015625 22.609375 22.328125 14.59375 
Q 28.65625 6.59375 39.40625 6.59375 
Q 50.140625 6.59375 56.421875 14.59375 
Q 62.703125 22.609375 62.703125 36.375 
Q 62.703125 50.203125 56.421875 58.203125 
Q 50.140625 66.21875 39.40625 66.21875 
M 39.40625 74.21875 
Q 54.734375 74.21875 63.90625 63.9375 
Q 73.09375 53.65625 73.09375 36.375 
Q 73.09375 19.140625 63.90625 8.859375 
Q 54.734375 -1.421875 39.40625 -1.421875 
Q 24.03125 -1.421875 14.8125 8.828125 
Q 5.609375 19.09375 5.609375 36.375 
Q 5.609375 53.65625 14.8125 63.9375 
Q 24.03125 74.21875 39.40625 74.21875 
" id="DejaVuSans-4f"/>
     </defs>
     <g transform="translate(226.930312 213.982687)scale(0.1 -0.1)">
      <use xlink:href="#DejaVuSans-4f"/>
      <use x="78.710938" xlink:href="#DejaVuSans-63"/>
      <use x="133.691406" xlink:href="#DejaVuSans-65"/>
      <use x="195.214844" xlink:href="#DejaVuSans-61"/>
      <use x="256.494141" xlink:href="#DejaVuSans-6e"/>
      <use x="319.873047" xlink:href="#DejaVuSans-69"/>
      <use x="347.65625" xlink:href="#DejaVuSans-61"/>
     </g>
    </g>
   </g>
  </g>
 </g>
 <defs>
  <clipPath id="p1d7c9c97bc">
   <rect height="266.112" width="357.12" x="57.6" y="41.472"/>
  </clipPath>
 </defs>
</svg>
