<?xml version="1.0" encoding="utf-8" standalone="no"?>
<!DOCTYPE svg PUBLIC "-//W3C//DTD SVG 1.1//EN"
  "http://www.w3.org/Graphics/SVG/1.1/DTD/svg11.dtd">
<!-- Created with matplotlib (http://matplotlib.org/) -->
<svg height="345pt" version="1.1" viewBox="0 0 460 345" width="460pt" xmlns="http://www.w3.org/2000/svg" xmlns:xlink="http://www.w3.org/1999/xlink">
 <defs>
  <style type="text/css">
*{stroke-linecap:butt;stroke-linejoin:round;}
  </style>
 </defs>
 <g id="figure_1">
  <g id="patch_1">
   <path d="M 0 345.6 
L 460.8 345.6 
L 460.8 0 
L 0 0 
z
" style="fill:#ffffff;"/>
  </g>
  <g id="axes_1">
   <g id="patch_2">
    <path d="M 57.6 307.584 
L 414.72 307.584 
L 414.72 41.472 
L 57.6 41.472 
z
" style="fill:#ffffff;"/>
   </g>
   <g id="PolyCollection_1">
    <defs>
     <path d="M 57.6 -40.580337 
L 57.6 -38.016 
L 74.210233 -38.016 
L 90.820465 -38.016 
L 107.430698 -38.016 
L 124.04093 -38.016 
L 140.651163 -38.016 
L 157.261395 -38.016 
L 173.871628 -38.016 
L 190.48186 -38.016 
L 207.092093 -38.016 
L 223.702326 -38.016 
L 240.312558 -38.016 
L 256.922791 -38.016 
L 273.533023 -38.016 
L 290.143256 -38.016 
L 306.753488 -38.016 
L 308.414512 -38.016 
L 310.075535 -38.016 
L 311.736558 -38.016 
L 313.397581 -38.016 
L 315.058605 -38.016 
L 316.719628 -38.016 
L 318.380651 -38.016 
L 320.041674 -38.016 
L 321.702698 -38.016 
L 323.363721 -38.016 
L 325.024744 -38.016 
L 326.685767 -38.016 
L 328.346791 -38.016 
L 330.007814 -38.016 
L 331.668837 -38.016 
L 333.32986 -38.016 
L 334.990884 -38.016 
L 336.651907 -38.016 
L 338.31293 -38.016 
L 339.973953 -38.016 
L 341.634977 -38.016 
L 343.296 -38.016 
L 344.957023 -38.016 
L 346.618047 -38.016 
L 348.27907 -38.016 
L 349.940093 -38.016 
L 351.601116 -38.016 
L 353.26214 -38.016 
L 354.923163 -38.016 
L 356.584186 -38.016 
L 358.245209 -38.016 
L 359.906233 -38.016 
L 361.567256 -38.016 
L 363.228279 -38.016 
L 364.889302 -38.016 
L 366.550326 -38.016 
L 368.211349 -38.016 
L 369.872372 -38.016 
L 371.533395 -38.016 
L 373.194419 -38.016 
L 374.855442 -38.016 
L 376.516465 -38.016 
L 378.177488 -38.016 
L 379.838512 -38.016 
L 381.499535 -38.016 
L 383.160558 -38.016 
L 384.821581 -38.016 
L 386.482605 -38.016 
L 388.143628 -38.016 
L 389.804651 -38.016 
L 391.465674 -38.016 
L 393.126698 -38.016 
L 394.787721 -38.016 
L 396.448744 -38.016 
L 398.109767 -38.016 
L 399.770791 -38.016 
L 401.431814 -38.016 
L 403.092837 -38.016 
L 404.75386 -38.016 
L 406.414884 -38.016 
L 408.075907 -38.016 
L 409.73693 -38.016 
L 411.397953 -38.016 
L 413.058977 -38.016 
L 414.72 -38.016 
L 414.72 -79.38364 
L 414.72 -79.38364 
L 413.058977 -78.383645 
L 411.397953 -77.397273 
L 409.73693 -76.428164 
L 408.075907 -75.481041 
L 406.414884 -74.559381 
L 404.75386 -73.66438 
L 403.092837 -72.795451 
L 401.431814 -71.951987 
L 399.770791 -71.132645 
L 398.109767 -70.336174 
L 396.448744 -69.562352 
L 394.787721 -68.810814 
L 393.126698 -68.079837 
L 391.465674 -67.367265 
L 389.804651 -66.671235 
L 388.143628 -65.99062 
L 386.482605 -65.324668 
L 384.821581 -64.672324 
L 383.160558 -64.032596 
L 381.499535 -63.404507 
L 379.838512 -62.787719 
L 378.177488 -62.181394 
L 376.516465 -61.583561 
L 374.855442 -60.991867 
L 373.194419 -60.40479 
L 371.533395 -59.821532 
L 369.872372 -59.242915 
L 368.211349 -58.671135 
L 366.550326 -58.109371 
L 364.889302 -57.560132 
L 363.228279 -57.024136 
L 361.567256 -56.501359 
L 359.906233 -55.992695 
L 358.245209 -55.498975 
L 356.584186 -55.020836 
L 354.923163 -54.558567 
L 353.26214 -54.112297 
L 351.601116 -53.682187 
L 349.940093 -53.268285 
L 348.27907 -52.870415 
L 346.618047 -52.488667 
L 344.957023 -52.122462 
L 343.296 -51.770074 
L 341.634977 -51.429238 
L 339.973953 -51.09819 
L 338.31293 -50.776163 
L 336.651907 -50.463105 
L 334.990884 -50.158849 
L 333.32986 -49.863479 
L 331.668837 -49.577021 
L 330.007814 -49.299171 
L 328.346791 -49.029601 
L 326.685767 -48.768349 
L 325.024744 -48.515549 
L 323.363721 -48.271284 
L 321.702698 -48.035536 
L 320.041674 -47.808205 
L 318.380651 -47.589144 
L 316.719628 -47.378219 
L 315.058605 -47.175341 
L 313.397581 -46.980489 
L 311.736558 -46.793719 
L 310.075535 -46.615161 
L 308.414512 -46.445024 
L 306.753488 -46.283588 
L 290.143256 -44.876396 
L 273.533023 -43.85775 
L 256.922791 -43.250135 
L 240.312558 -42.787624 
L 223.702326 -42.420426 
L 207.092093 -42.096967 
L 190.48186 -41.806775 
L 173.871628 -41.550406 
L 157.261395 -41.326956 
L 140.651163 -41.127818 
L 124.04093 -40.943011 
L 107.430698 -40.773782 
L 90.820465 -40.651259 
L 74.210233 -40.597843 
L 57.6 -40.580337 
z
" id="mf871c2d64b" style="stroke:#1f77b4;"/>
    </defs>
    <g clip-path="url(#pbd77028db8)">
     <use style="fill:#1f77b4;stroke:#1f77b4;" x="0" xlink:href="#mf871c2d64b" y="345.6"/>
    </g>
   </g>
   <g id="PolyCollection_2">
    <defs>
     <path d="M 57.6 -41.332994 
L 57.6 -40.580337 
L 74.210233 -40.597843 
L 90.820465 -40.651259 
L 107.430698 -40.773782 
L 124.04093 -40.943011 
L 140.651163 -41.127818 
L 157.261395 -41.326956 
L 173.871628 -41.550406 
L 190.48186 -41.806775 
L 207.092093 -42.096967 
L 223.702326 -42.420426 
L 240.312558 -42.787624 
L 256.922791 -43.250135 
L 273.533023 -43.85775 
L 290.143256 -44.876396 
L 306.753488 -46.283588 
L 308.414512 -46.445024 
L 310.075535 -46.615161 
L 311.736558 -46.793719 
L 313.397581 -46.980489 
L 315.058605 -47.175341 
L 316.719628 -47.378219 
L 318.380651 -47.589144 
L 320.041674 -47.808205 
L 321.702698 -48.035536 
L 323.363721 -48.271284 
L 325.024744 -48.515549 
L 326.685767 -48.768349 
L 328.346791 -49.029601 
L 330.007814 -49.299171 
L 331.668837 -49.577021 
L 333.32986 -49.863479 
L 334.990884 -50.158849 
L 336.651907 -50.463105 
L 338.31293 -50.776163 
L 339.973953 -51.09819 
L 341.634977 -51.429238 
L 343.296 -51.770074 
L 344.957023 -52.122462 
L 346.618047 -52.488667 
L 348.27907 -52.870415 
L 349.940093 -53.268285 
L 351.601116 -53.682187 
L 353.26214 -54.112297 
L 354.923163 -54.558567 
L 356.584186 -55.020836 
L 358.245209 -55.498975 
L 359.906233 -55.992695 
L 361.567256 -56.501359 
L 363.228279 -57.024136 
L 364.889302 -57.560132 
L 366.550326 -58.109371 
L 368.211349 -58.671135 
L 369.872372 -59.242915 
L 371.533395 -59.821532 
L 373.194419 -60.40479 
L 374.855442 -60.991867 
L 376.516465 -61.583561 
L 378.177488 -62.181394 
L 379.838512 -62.787719 
L 381.499535 -63.404507 
L 383.160558 -64.032596 
L 384.821581 -64.672324 
L 386.482605 -65.324668 
L 388.143628 -65.99062 
L 389.804651 -66.671235 
L 391.465674 -67.367265 
L 393.126698 -68.079837 
L 394.787721 -68.810814 
L 396.448744 -69.562352 
L 398.109767 -70.336174 
L 399.770791 -71.132645 
L 401.431814 -71.951987 
L 403.092837 -72.795451 
L 404.75386 -73.66438 
L 406.414884 -74.559381 
L 408.075907 -75.481041 
L 409.73693 -76.428164 
L 411.397953 -77.397273 
L 413.058977 -78.383645 
L 414.72 -79.38364 
L 414.72 -104.694311 
L 414.72 -104.694311 
L 413.058977 -103.431736 
L 411.397953 -102.178833 
L 409.73693 -100.939729 
L 408.075907 -99.719727 
L 406.414884 -98.522803 
L 404.75386 -97.350194 
L 403.092837 -96.20146 
L 401.431814 -95.076683 
L 399.770791 -93.975346 
L 398.109767 -92.896694 
L 396.448744 -91.841004 
L 394.787721 -90.80753 
L 393.126698 -89.793082 
L 391.465674 -88.793451 
L 389.804651 -87.805341 
L 388.143628 -86.827115 
L 386.482605 -85.85858 
L 384.821581 -84.899641 
L 383.160558 -83.950764 
L 381.499535 -83.012075 
L 379.838512 -82.083635 
L 378.177488 -81.164434 
L 376.516465 -80.25238 
L 374.855442 -79.344821 
L 373.194419 -78.440103 
L 371.533395 -77.537589 
L 369.872372 -76.638538 
L 368.211349 -75.745622 
L 366.550326 -74.862598 
L 364.889302 -73.992494 
L 363.228279 -73.136247 
L 361.567256 -72.294056 
L 359.906233 -71.467316 
L 358.245209 -70.657418 
L 356.584186 -69.865421 
L 354.923163 -69.092043 
L 353.26214 -68.337479 
L 351.601116 -67.601499 
L 349.940093 -66.883516 
L 348.27907 -66.182982 
L 346.618047 -65.499814 
L 344.957023 -64.833856 
L 343.296 -64.18431 
L 341.634977 -63.550168 
L 339.973953 -62.930547 
L 338.31293 -62.3253 
L 336.651907 -61.734125 
L 334.990884 -61.15584 
L 333.32986 -60.589023 
L 331.668837 -60.032743 
L 330.007814 -59.48634 
L 328.346791 -58.950236 
L 326.685767 -58.425953 
L 325.024744 -57.915693 
L 323.363721 -57.421057 
L 321.702698 -56.942616 
L 320.041674 -56.480063 
L 318.380651 -56.032568 
L 316.719628 -55.599191 
L 315.058605 -55.179257 
L 313.397581 -54.772489 
L 311.736558 -54.379085 
L 310.075535 -53.99974 
L 308.414512 -53.635623 
L 306.753488 -53.288374 
L 290.143256 -50.39358 
L 273.533023 -48.474615 
L 256.922791 -47.060787 
L 240.312558 -46.02355 
L 223.702326 -45.102827 
L 207.092093 -44.358111 
L 190.48186 -43.746379 
L 173.871628 -43.227902 
L 157.261395 -42.790307 
L 140.651163 -42.401772 
L 124.04093 -42.045285 
L 107.430698 -41.72985 
L 90.820465 -41.502242 
L 74.210233 -41.388718 
L 57.6 -41.332994 
z
" id="m91b2b546b7" style="stroke:#ff7f0e;"/>
    </defs>
    <g clip-path="url(#pbd77028db8)">
     <use style="fill:#ff7f0e;stroke:#ff7f0e;" x="0" xlink:href="#m91b2b546b7" y="345.6"/>
    </g>
   </g>
   <g id="PolyCollection_3">
    <defs>
     <path d="M 57.6 -66.107412 
L 57.6 -41.332994 
L 74.210233 -41.388718 
L 90.820465 -41.502242 
L 107.430698 -41.72985 
L 124.04093 -42.045285 
L 140.651163 -42.401772 
L 157.261395 -42.790307 
L 173.871628 -43.227902 
L 190.48186 -43.746379 
L 207.092093 -44.358111 
L 223.702326 -45.102827 
L 240.312558 -46.02355 
L 256.922791 -47.060787 
L 273.533023 -48.474615 
L 290.143256 -50.39358 
L 306.753488 -53.288374 
L 308.414512 -53.635623 
L 310.075535 -53.99974 
L 311.736558 -54.379085 
L 313.397581 -54.772489 
L 315.058605 -55.179257 
L 316.719628 -55.599191 
L 318.380651 -56.032568 
L 320.041674 -56.480063 
L 321.702698 -56.942616 
L 323.363721 -57.421057 
L 325.024744 -57.915693 
L 326.685767 -58.425953 
L 328.346791 -58.950236 
L 330.007814 -59.48634 
L 331.668837 -60.032743 
L 333.32986 -60.589023 
L 334.990884 -61.15584 
L 336.651907 -61.734125 
L 338.31293 -62.3253 
L 339.973953 -62.930547 
L 341.634977 -63.550168 
L 343.296 -64.18431 
L 344.957023 -64.833856 
L 346.618047 -65.499814 
L 348.27907 -66.182982 
L 349.940093 -66.883516 
L 351.601116 -67.601499 
L 353.26214 -68.337479 
L 354.923163 -69.092043 
L 356.584186 -69.865421 
L 358.245209 -70.657418 
L 359.906233 -71.467316 
L 361.567256 -72.294056 
L 363.228279 -73.136247 
L 364.889302 -73.992494 
L 366.550326 -74.862598 
L 368.211349 -75.745622 
L 369.872372 -76.638538 
L 371.533395 -77.537589 
L 373.194419 -78.440103 
L 374.855442 -79.344821 
L 376.516465 -80.25238 
L 378.177488 -81.164434 
L 379.838512 -82.083635 
L 381.499535 -83.012075 
L 383.160558 -83.950764 
L 384.821581 -84.899641 
L 386.482605 -85.85858 
L 388.143628 -86.827115 
L 389.804651 -87.805341 
L 391.465674 -88.793451 
L 393.126698 -89.793082 
L 394.787721 -90.80753 
L 396.448744 -91.841004 
L 398.109767 -92.896694 
L 399.770791 -93.975346 
L 401.431814 -95.076683 
L 403.092837 -96.20146 
L 404.75386 -97.350194 
L 406.414884 -98.522803 
L 408.075907 -99.719727 
L 409.73693 -100.939729 
L 411.397953 -102.178833 
L 413.058977 -103.431736 
L 414.72 -104.694311 
L 414.72 -268.986917 
L 414.72 -268.986917 
L 413.058977 -266.062891 
L 411.397953 -263.11054 
L 409.73693 -260.148657 
L 408.075907 -257.201536 
L 406.414884 -254.286893 
L 404.75386 -251.412606 
L 403.092837 -248.575545 
L 401.431814 -245.768539 
L 399.770791 -242.979141 
L 398.109767 -240.19788 
L 396.448744 -237.420721 
L 394.787721 -234.649462 
L 393.126698 -231.88674 
L 391.465674 -229.137143 
L 389.804651 -226.401977 
L 388.143628 -223.681804 
L 386.482605 -220.968909 
L 384.821581 -218.246214 
L 383.160558 -215.491435 
L 381.499535 -212.687978 
L 379.838512 -209.835487 
L 378.177488 -206.937391 
L 376.516465 -203.986734 
L 374.855442 -200.976293 
L 373.194419 -197.905201 
L 371.533395 -194.767904 
L 369.872372 -191.57761 
L 368.211349 -188.375758 
L 366.550326 -185.217504 
L 364.889302 -182.143448 
L 363.228279 -179.16764 
L 361.567256 -176.282562 
L 359.906233 -173.479938 
L 358.245209 -170.742703 
L 356.584186 -168.056308 
L 354.923163 -165.42388 
L 353.26214 -162.845806 
L 351.601116 -160.300662 
L 349.940093 -157.760706 
L 348.27907 -155.206555 
L 346.618047 -152.633367 
L 344.957023 -150.048322 
L 343.296 -147.459859 
L 341.634977 -144.881803 
L 339.973953 -142.327429 
L 338.31293 -139.796218 
L 336.651907 -137.293976 
L 334.990884 -134.848337 
L 333.32986 -132.494355 
L 331.668837 -130.257001 
L 330.007814 -128.146196 
L 328.346791 -126.155532 
L 326.685767 -124.272596 
L 325.024744 -122.47692 
L 323.363721 -120.751523 
L 321.702698 -119.086846 
L 320.041674 -117.479364 
L 318.380651 -115.928348 
L 316.719628 -114.432174 
L 315.058605 -112.984852 
L 313.397581 -111.574876 
L 311.736558 -110.184531 
L 310.075535 -108.789655 
L 308.414512 -107.359879 
L 306.753488 -105.858622 
L 290.143256 -97.48335 
L 273.533023 -91.102555 
L 256.922791 -86.955578 
L 240.312558 -82.615164 
L 223.702326 -79.461792 
L 207.092093 -76.774855 
L 190.48186 -74.651178 
L 173.871628 -73.154104 
L 157.261395 -72.608995 
L 140.651163 -72.471358 
L 124.04093 -71.875638 
L 107.430698 -70.668689 
L 90.820465 -69.108531 
L 74.210233 -67.525675 
L 57.6 -66.107412 
z
" id="mae2438ced0" style="stroke:#2ca02c;"/>
    </defs>
    <g clip-path="url(#pbd77028db8)">
     <use style="fill:#2ca02c;stroke:#2ca02c;" x="0" xlink:href="#mae2438ced0" y="345.6"/>
    </g>
   </g>
   <g id="PolyCollection_4">
    <defs>
     <path d="M 57.6 -72.328976 
L 57.6 -66.107412 
L 74.210233 -67.525675 
L 90.820465 -69.108531 
L 107.430698 -70.668689 
L 124.04093 -71.875638 
L 140.651163 -72.471358 
L 157.261395 -72.608995 
L 173.871628 -73.154104 
L 190.48186 -74.651178 
L 207.092093 -76.774855 
L 223.702326 -79.461792 
L 240.312558 -82.615164 
L 256.922791 -86.955578 
L 273.533023 -91.102555 
L 290.143256 -97.48335 
L 306.753488 -105.858622 
L 308.414512 -107.359879 
L 310.075535 -108.789655 
L 311.736558 -110.184531 
L 313.397581 -111.574876 
L 315.058605 -112.984852 
L 316.719628 -114.432174 
L 318.380651 -115.928348 
L 320.041674 -117.479364 
L 321.702698 -119.086846 
L 323.363721 -120.751523 
L 325.024744 -122.47692 
L 326.685767 -124.272596 
L 328.346791 -126.155532 
L 330.007814 -128.146196 
L 331.668837 -130.257001 
L 333.32986 -132.494355 
L 334.990884 -134.848337 
L 336.651907 -137.293976 
L 338.31293 -139.796218 
L 339.973953 -142.327429 
L 341.634977 -144.881803 
L 343.296 -147.459859 
L 344.957023 -150.048322 
L 346.618047 -152.633367 
L 348.27907 -155.206555 
L 349.940093 -157.760706 
L 351.601116 -160.300662 
L 353.26214 -162.845806 
L 354.923163 -165.42388 
L 356.584186 -168.056308 
L 358.245209 -170.742703 
L 359.906233 -173.479938 
L 361.567256 -176.282562 
L 363.228279 -179.16764 
L 364.889302 -182.143448 
L 366.550326 -185.217504 
L 368.211349 -188.375758 
L 369.872372 -191.57761 
L 371.533395 -194.767904 
L 373.194419 -197.905201 
L 374.855442 -200.976293 
L 376.516465 -203.986734 
L 378.177488 -206.937391 
L 379.838512 -209.835487 
L 381.499535 -212.687978 
L 383.160558 -215.491435 
L 384.821581 -218.246214 
L 386.482605 -220.968909 
L 388.143628 -223.681804 
L 389.804651 -226.401977 
L 391.465674 -229.137143 
L 393.126698 -231.88674 
L 394.787721 -234.649462 
L 396.448744 -237.420721 
L 398.109767 -240.19788 
L 399.770791 -242.979141 
L 401.431814 -245.768539 
L 403.092837 -248.575545 
L 404.75386 -251.412606 
L 406.414884 -254.286893 
L 408.075907 -257.201536 
L 409.73693 -260.148657 
L 411.397953 -263.11054 
L 413.058977 -266.062891 
L 414.72 -268.986917 
L 414.72 -289.876906 
L 414.72 -289.876906 
L 413.058977 -286.952443 
L 411.397953 -283.999669 
L 409.73693 -281.034916 
L 408.075907 -278.079085 
L 406.414884 -275.147644 
L 404.75386 -272.247964 
L 403.092837 -269.38462 
L 401.431814 -266.53975 
L 399.770791 -263.710146 
L 398.109767 -260.88878 
L 396.448744 -258.071207 
L 394.787721 -255.259463 
L 393.126698 -252.459964 
L 391.465674 -249.682056 
L 389.804651 -246.929924 
L 388.143628 -244.206247 
L 386.482605 -241.501019 
L 384.821581 -238.790146 
L 383.160558 -236.041558 
L 381.499535 -233.23158 
L 379.838512 -230.357393 
L 378.177488 -227.424339 
L 376.516465 -224.42815 
L 374.855442 -221.366157 
L 373.194419 -218.24089 
L 371.533395 -215.046993 
L 369.872372 -211.796704 
L 368.211349 -208.532506 
L 366.550326 -205.310593 
L 364.889302 -202.17226 
L 363.228279 -199.132131 
L 361.567256 -196.182359 
L 359.906233 -193.313145 
L 358.245209 -190.505299 
L 356.584186 -187.74266 
L 354.923163 -185.028093 
L 353.26214 -182.362244 
L 351.601116 -179.723257 
L 349.940093 -177.083017 
L 348.27907 -174.422012 
L 346.618047 -171.734807 
L 344.957023 -169.028901 
L 343.296 -166.314647 
L 341.634977 -163.608492 
L 339.973953 -160.925496 
L 338.31293 -158.266513 
L 336.651907 -155.636657 
L 334.990884 -153.06081 
L 333.32986 -150.570067 
L 331.668837 -148.18686 
L 330.007814 -145.920028 
L 328.346791 -143.764999 
L 326.685767 -141.713324 
L 325.024744 -139.75007 
L 323.363721 -137.862289 
L 321.702698 -136.041909 
L 320.041674 -134.284708 
L 318.380651 -132.587954 
L 316.719628 -130.947681 
L 315.058605 -129.356153 
L 313.397581 -127.80101 
L 311.736558 -126.264768 
L 310.075535 -124.724641 
L 308.414512 -123.152718 
L 306.753488 -121.515961 
L 290.143256 -112.682332 
L 273.533023 -105.312211 
L 256.922791 -99.994782 
L 240.312558 -95.46351 
L 223.702326 -91.25933 
L 207.092093 -87.674362 
L 190.48186 -84.757643 
L 173.871628 -82.56854 
L 157.261395 -81.420372 
L 140.651163 -80.75078 
L 124.04093 -79.645362 
L 107.430698 -77.897809 
L 90.820465 -75.872491 
L 74.210233 -73.970739 
L 57.6 -72.328976 
z
" id="mfcd6b88ecf" style="stroke:#d62728;"/>
    </defs>
    <g clip-path="url(#pbd77028db8)">
     <use style="fill:#d62728;stroke:#d62728;" x="0" xlink:href="#mfcd6b88ecf" y="345.6"/>
    </g>
   </g>
   <g id="PolyCollection_5">
    <defs>
     <path d="M 57.6 -72.394819 
L 57.6 -72.328976 
L 74.210233 -73.970739 
L 90.820465 -75.872491 
L 107.430698 -77.897809 
L 124.04093 -79.645362 
L 140.651163 -80.75078 
L 157.261395 -81.420372 
L 173.871628 -82.56854 
L 190.48186 -84.757643 
L 207.092093 -87.674362 
L 223.702326 -91.25933 
L 240.312558 -95.46351 
L 256.922791 -99.994782 
L 273.533023 -105.312211 
L 290.143256 -112.682332 
L 306.753488 -121.515961 
L 308.414512 -123.152718 
L 310.075535 -124.724641 
L 311.736558 -126.264768 
L 313.397581 -127.80101 
L 315.058605 -129.356153 
L 316.719628 -130.947681 
L 318.380651 -132.587954 
L 320.041674 -134.284708 
L 321.702698 -136.041909 
L 323.363721 -137.862289 
L 325.024744 -139.75007 
L 326.685767 -141.713324 
L 328.346791 -143.764999 
L 330.007814 -145.920028 
L 331.668837 -148.18686 
L 333.32986 -150.570067 
L 334.990884 -153.06081 
L 336.651907 -155.636657 
L 338.31293 -158.266513 
L 339.973953 -160.925496 
L 341.634977 -163.608492 
L 343.296 -166.314647 
L 344.957023 -169.028901 
L 346.618047 -171.734807 
L 348.27907 -174.422012 
L 349.940093 -177.083017 
L 351.601116 -179.723257 
L 353.26214 -182.362244 
L 354.923163 -185.028093 
L 356.584186 -187.74266 
L 358.245209 -190.505299 
L 359.906233 -193.313145 
L 361.567256 -196.182359 
L 363.228279 -199.132131 
L 364.889302 -202.17226 
L 366.550326 -205.310593 
L 368.211349 -208.532506 
L 369.872372 -211.796704 
L 371.533395 -215.046993 
L 373.194419 -218.24089 
L 374.855442 -221.366157 
L 376.516465 -224.42815 
L 378.177488 -227.424339 
L 379.838512 -230.357393 
L 381.499535 -233.23158 
L 383.160558 -236.041558 
L 384.821581 -238.790146 
L 386.482605 -241.501019 
L 388.143628 -244.206247 
L 389.804651 -246.929924 
L 391.465674 -249.682056 
L 393.126698 -252.459964 
L 394.787721 -255.259463 
L 396.448744 -258.071207 
L 398.109767 -260.88878 
L 399.770791 -263.710146 
L 401.431814 -266.53975 
L 403.092837 -269.38462 
L 404.75386 -272.247964 
L 406.414884 -275.147644 
L 408.075907 -278.079085 
L 409.73693 -281.034916 
L 411.397953 -283.999669 
L 413.058977 -286.952443 
L 414.72 -289.876906 
L 414.72 -291.456 
L 414.72 -291.456 
L 413.058977 -288.508497 
L 411.397953 -285.532605 
L 409.73693 -282.544507 
L 408.075907 -279.564887 
L 406.414884 -276.609117 
L 404.75386 -273.68446 
L 403.092837 -270.795788 
L 401.431814 -267.925671 
L 399.770791 -265.071785 
L 398.109767 -262.227696 
L 396.448744 -259.389158 
L 394.787721 -256.558031 
L 393.126698 -253.740421 
L 391.465674 -250.945181 
L 389.804651 -248.176107 
L 388.143628 -245.435809 
L 386.482605 -242.714321 
L 384.821581 -239.987384 
L 383.160558 -237.22275 
L 381.499535 -234.396609 
L 379.838512 -231.506065 
L 378.177488 -228.556449 
L 376.516465 -225.543515 
L 374.855442 -222.464662 
L 373.194419 -219.322479 
L 371.533395 -216.111622 
L 369.872372 -212.84435 
L 368.211349 -209.563235 
L 366.550326 -206.324579 
L 364.889302 -203.16978 
L 363.228279 -200.113418 
L 361.567256 -197.147676 
L 359.906233 -194.262995 
L 358.245209 -191.440498 
L 356.584186 -188.664199 
L 354.923163 -185.937076 
L 353.26214 -183.259584 
L 351.601116 -180.609388 
L 349.940093 -177.957706 
L 348.27907 -175.28453 
L 346.618047 -172.584326 
L 344.957023 -169.864682 
L 343.296 -167.135877 
L 341.634977 -164.414326 
L 339.973953 -161.715117 
L 338.31293 -159.038991 
L 336.651907 -156.391181 
L 334.990884 -153.797134 
L 333.32986 -151.288704 
L 331.668837 -148.888869 
L 330.007814 -146.6067 
L 328.346791 -144.43748 
L 326.685767 -142.372454 
L 325.024744 -140.396202 
L 323.363721 -138.495419 
L 321.702698 -136.661905 
L 320.041674 -134.891516 
L 318.380651 -133.181699 
L 316.719628 -131.528685 
L 315.058605 -129.924848 
L 313.397581 -128.357826 
L 311.736558 -126.809999 
L 310.075535 -125.25831 
L 308.414512 -123.674441 
L 306.753488 -122.024818 
L 290.143256 -113.12335 
L 273.533023 -105.716754 
L 256.922791 -100.337396 
L 240.312558 -95.755818 
L 223.702326 -91.511011 
L 207.092093 -87.890666 
L 190.48186 -84.93112 
L 173.871628 -82.710207 
L 157.261395 -81.535338 
L 140.651163 -80.840515 
L 124.04093 -79.719674 
L 107.430698 -77.96629 
L 90.820465 -75.938715 
L 74.210233 -74.036457 
L 57.6 -72.394819 
z
" id="m56d3e3f09e" style="stroke:#9467bd;"/>
    </defs>
    <g clip-path="url(#pbd77028db8)">
     <use style="fill:#9467bd;stroke:#9467bd;" x="0" xlink:href="#m56d3e3f09e" y="345.6"/>
    </g>
   </g>
   <g id="matplotlib.axis_1">
    <g id="xtick_1">
     <g id="line2d_1">
      <defs>
       <path d="M 0 0 
L 0 3.5 
" id="m6d5de4a3ad" style="stroke:#000000;stroke-width:0.8;"/>
      </defs>
      <g>
       <use style="stroke:#000000;stroke-width:0.8;" x="57.6" xlink:href="#m6d5de4a3ad" y="307.584"/>
      </g>
     </g>
     <g id="text_1">
      <!-- 1800 -->
      <defs>
       <path d="M 12.40625 8.296875 
L 28.515625 8.296875 
L 28.515625 63.921875 
L 10.984375 60.40625 
L 10.984375 69.390625 
L 28.421875 72.90625 
L 38.28125 72.90625 
L 38.28125 8.296875 
L 54.390625 8.296875 
L 54.390625 0 
L 12.40625 0 
z
" id="DejaVuSans-31"/>
       <path d="M 31.78125 34.625 
Q 24.75 34.625 20.71875 30.859375 
Q 16.703125 27.09375 16.703125 20.515625 
Q 16.703125 13.921875 20.71875 10.15625 
Q 24.75 6.390625 31.78125 6.390625 
Q 38.8125 6.390625 42.859375 10.171875 
Q 46.921875 13.96875 46.921875 20.515625 
Q 46.921875 27.09375 42.890625 30.859375 
Q 38.875 34.625 31.78125 34.625 
M 21.921875 38.8125 
Q 15.578125 40.375 12.03125 44.71875 
Q 8.5 49.078125 8.5 55.328125 
Q 8.5 64.0625 14.71875 69.140625 
Q 20.953125 74.21875 31.78125 74.21875 
Q 42.671875 74.21875 48.875 69.140625 
Q 55.078125 64.0625 55.078125 55.328125 
Q 55.078125 49.078125 51.53125 44.71875 
Q 48 40.375 41.703125 38.8125 
Q 48.828125 37.15625 52.796875 32.3125 
Q 56.78125 27.484375 56.78125 20.515625 
Q 56.78125 9.90625 50.3125 4.234375 
Q 43.84375 -1.421875 31.78125 -1.421875 
Q 19.734375 -1.421875 13.25 4.234375 
Q 6.78125 9.90625 6.78125 20.515625 
Q 6.78125 27.484375 10.78125 32.3125 
Q 14.796875 37.15625 21.921875 38.8125 
M 18.3125 54.390625 
Q 18.3125 48.734375 21.84375 45.5625 
Q 25.390625 42.390625 31.78125 42.390625 
Q 38.140625 42.390625 41.71875 45.5625 
Q 45.3125 48.734375 45.3125 54.390625 
Q 45.3125 60.0625 41.71875 63.234375 
Q 38.140625 66.40625 31.78125 66.40625 
Q 25.390625 66.40625 21.84375 63.234375 
Q 18.3125 60.0625 18.3125 54.390625 
" id="DejaVuSans-38"/>
       <path d="M 31.78125 66.40625 
Q 24.171875 66.40625 20.328125 58.90625 
Q 16.5 51.421875 16.5 36.375 
Q 16.5 21.390625 20.328125 13.890625 
Q 24.171875 6.390625 31.78125 6.390625 
Q 39.453125 6.390625 43.28125 13.890625 
Q 47.125 21.390625 47.125 36.375 
Q 47.125 51.421875 43.28125 58.90625 
Q 39.453125 66.40625 31.78125 66.40625 
M 31.78125 74.21875 
Q 44.046875 74.21875 50.515625 64.515625 
Q 56.984375 54.828125 56.984375 36.375 
Q 56.984375 17.96875 50.515625 8.265625 
Q 44.046875 -1.421875 31.78125 -1.421875 
Q 19.53125 -1.421875 13.0625 8.265625 
Q 6.59375 17.96875 6.59375 36.375 
Q 6.59375 54.828125 13.0625 64.515625 
Q 19.53125 74.21875 31.78125 74.21875 
" id="DejaVuSans-30"/>
      </defs>
      <g transform="translate(44.875 322.182437)scale(0.1 -0.1)">
       <use xlink:href="#DejaVuSans-31"/>
       <use x="63.623047" xlink:href="#DejaVuSans-38"/>
       <use x="127.246094" xlink:href="#DejaVuSans-30"/>
       <use x="190.869141" xlink:href="#DejaVuSans-30"/>
      </g>
     </g>
    </g>
    <g id="xtick_2">
     <g id="line2d_2">
      <g>
       <use style="stroke:#000000;stroke-width:0.8;" x="99.125581" xlink:href="#m6d5de4a3ad" y="307.584"/>
      </g>
     </g>
     <g id="text_2">
      <!-- 1825 -->
      <defs>
       <path d="M 19.1875 8.296875 
L 53.609375 8.296875 
L 53.609375 0 
L 7.328125 0 
L 7.328125 8.296875 
Q 12.9375 14.109375 22.625 23.890625 
Q 32.328125 33.6875 34.8125 36.53125 
Q 39.546875 41.84375 41.421875 45.53125 
Q 43.3125 49.21875 43.3125 52.78125 
Q 43.3125 58.59375 39.234375 62.25 
Q 35.15625 65.921875 28.609375 65.921875 
Q 23.96875 65.921875 18.8125 64.3125 
Q 13.671875 62.703125 7.8125 59.421875 
L 7.8125 69.390625 
Q 13.765625 71.78125 18.9375 73 
Q 24.125 74.21875 28.421875 74.21875 
Q 39.75 74.21875 46.484375 68.546875 
Q 53.21875 62.890625 53.21875 53.421875 
Q 53.21875 48.921875 51.53125 44.890625 
Q 49.859375 40.875 45.40625 35.40625 
Q 44.1875 33.984375 37.640625 27.21875 
Q 31.109375 20.453125 19.1875 8.296875 
" id="DejaVuSans-32"/>
       <path d="M 10.796875 72.90625 
L 49.515625 72.90625 
L 49.515625 64.59375 
L 19.828125 64.59375 
L 19.828125 46.734375 
Q 21.96875 47.46875 24.109375 47.828125 
Q 26.265625 48.1875 28.421875 48.1875 
Q 40.625 48.1875 47.75 41.5 
Q 54.890625 34.8125 54.890625 23.390625 
Q 54.890625 11.625 47.5625 5.09375 
Q 40.234375 -1.421875 26.90625 -1.421875 
Q 22.3125 -1.421875 17.546875 -0.640625 
Q 12.796875 0.140625 7.71875 1.703125 
L 7.71875 11.625 
Q 12.109375 9.234375 16.796875 8.0625 
Q 21.484375 6.890625 26.703125 6.890625 
Q 35.15625 6.890625 40.078125 11.328125 
Q 45.015625 15.765625 45.015625 23.390625 
Q 45.015625 31 40.078125 35.4375 
Q 35.15625 39.890625 26.703125 39.890625 
Q 22.75 39.890625 18.8125 39.015625 
Q 14.890625 38.140625 10.796875 36.28125 
z
" id="DejaVuSans-35"/>
      </defs>
      <g transform="translate(86.400581 322.182437)scale(0.1 -0.1)">
       <use xlink:href="#DejaVuSans-31"/>
       <use x="63.623047" xlink:href="#DejaVuSans-38"/>
       <use x="127.246094" xlink:href="#DejaVuSans-32"/>
       <use x="190.869141" xlink:href="#DejaVuSans-35"/>
      </g>
     </g>
    </g>
    <g id="xtick_3">
     <g id="line2d_3">
      <g>
       <use style="stroke:#000000;stroke-width:0.8;" x="140.651163" xlink:href="#m6d5de4a3ad" y="307.584"/>
      </g>
     </g>
     <g id="text_3">
      <!-- 1850 -->
      <g transform="translate(127.926163 322.182437)scale(0.1 -0.1)">
       <use xlink:href="#DejaVuSans-31"/>
       <use x="63.623047" xlink:href="#DejaVuSans-38"/>
       <use x="127.246094" xlink:href="#DejaVuSans-35"/>
       <use x="190.869141" xlink:href="#DejaVuSans-30"/>
      </g>
     </g>
    </g>
    <g id="xtick_4">
     <g id="line2d_4">
      <g>
       <use style="stroke:#000000;stroke-width:0.8;" x="182.176744" xlink:href="#m6d5de4a3ad" y="307.584"/>
      </g>
     </g>
     <g id="text_4">
      <!-- 1875 -->
      <defs>
       <path d="M 8.203125 72.90625 
L 55.078125 72.90625 
L 55.078125 68.703125 
L 28.609375 0 
L 18.3125 0 
L 43.21875 64.59375 
L 8.203125 64.59375 
z
" id="DejaVuSans-37"/>
      </defs>
      <g transform="translate(169.451744 322.182437)scale(0.1 -0.1)">
       <use xlink:href="#DejaVuSans-31"/>
       <use x="63.623047" xlink:href="#DejaVuSans-38"/>
       <use x="127.246094" xlink:href="#DejaVuSans-37"/>
       <use x="190.869141" xlink:href="#DejaVuSans-35"/>
      </g>
     </g>
    </g>
    <g id="xtick_5">
     <g id="line2d_5">
      <g>
       <use style="stroke:#000000;stroke-width:0.8;" x="223.702326" xlink:href="#m6d5de4a3ad" y="307.584"/>
      </g>
     </g>
     <g id="text_5">
      <!-- 1900 -->
      <defs>
       <path d="M 10.984375 1.515625 
L 10.984375 10.5 
Q 14.703125 8.734375 18.5 7.8125 
Q 22.3125 6.890625 25.984375 6.890625 
Q 35.75 6.890625 40.890625 13.453125 
Q 46.046875 20.015625 46.78125 33.40625 
Q 43.953125 29.203125 39.59375 26.953125 
Q 35.25 24.703125 29.984375 24.703125 
Q 19.046875 24.703125 12.671875 31.3125 
Q 6.296875 37.9375 6.296875 49.421875 
Q 6.296875 60.640625 12.9375 67.421875 
Q 19.578125 74.21875 30.609375 74.21875 
Q 43.265625 74.21875 49.921875 64.515625 
Q 56.59375 54.828125 56.59375 36.375 
Q 56.59375 19.140625 48.40625 8.859375 
Q 40.234375 -1.421875 26.421875 -1.421875 
Q 22.703125 -1.421875 18.890625 -0.6875 
Q 15.09375 0.046875 10.984375 1.515625 
M 30.609375 32.421875 
Q 37.25 32.421875 41.125 36.953125 
Q 45.015625 41.5 45.015625 49.421875 
Q 45.015625 57.28125 41.125 61.84375 
Q 37.25 66.40625 30.609375 66.40625 
Q 23.96875 66.40625 20.09375 61.84375 
Q 16.21875 57.28125 16.21875 49.421875 
Q 16.21875 41.5 20.09375 36.953125 
Q 23.96875 32.421875 30.609375 32.421875 
" id="DejaVuSans-39"/>
      </defs>
      <g transform="translate(210.977326 322.182437)scale(0.1 -0.1)">
       <use xlink:href="#DejaVuSans-31"/>
       <use x="63.623047" xlink:href="#DejaVuSans-39"/>
       <use x="127.246094" xlink:href="#DejaVuSans-30"/>
       <use x="190.869141" xlink:href="#DejaVuSans-30"/>
      </g>
     </g>
    </g>
    <g id="xtick_6">
     <g id="line2d_6">
      <g>
       <use style="stroke:#000000;stroke-width:0.8;" x="265.227907" xlink:href="#m6d5de4a3ad" y="307.584"/>
      </g>
     </g>
     <g id="text_6">
      <!-- 1925 -->
      <g transform="translate(252.502907 322.182437)scale(0.1 -0.1)">
       <use xlink:href="#DejaVuSans-31"/>
       <use x="63.623047" xlink:href="#DejaVuSans-39"/>
       <use x="127.246094" xlink:href="#DejaVuSans-32"/>
       <use x="190.869141" xlink:href="#DejaVuSans-35"/>
      </g>
     </g>
    </g>
    <g id="xtick_7">
     <g id="line2d_7">
      <g>
       <use style="stroke:#000000;stroke-width:0.8;" x="306.753488" xlink:href="#m6d5de4a3ad" y="307.584"/>
      </g>
     </g>
     <g id="text_7">
      <!-- 1950 -->
      <g transform="translate(294.028488 322.182437)scale(0.1 -0.1)">
       <use xlink:href="#DejaVuSans-31"/>
       <use x="63.623047" xlink:href="#DejaVuSans-39"/>
       <use x="127.246094" xlink:href="#DejaVuSans-35"/>
       <use x="190.869141" xlink:href="#DejaVuSans-30"/>
      </g>
     </g>
    </g>
    <g id="xtick_8">
     <g id="line2d_8">
      <g>
       <use style="stroke:#000000;stroke-width:0.8;" x="348.27907" xlink:href="#m6d5de4a3ad" y="307.584"/>
      </g>
     </g>
     <g id="text_8">
      <!-- 1975 -->
      <g transform="translate(335.55407 322.182437)scale(0.1 -0.1)">
       <use xlink:href="#DejaVuSans-31"/>
       <use x="63.623047" xlink:href="#DejaVuSans-39"/>
       <use x="127.246094" xlink:href="#DejaVuSans-37"/>
       <use x="190.869141" xlink:href="#DejaVuSans-35"/>
      </g>
     </g>
    </g>
    <g id="xtick_9">
     <g id="line2d_9">
      <g>
       <use style="stroke:#000000;stroke-width:0.8;" x="389.804651" xlink:href="#m6d5de4a3ad" y="307.584"/>
      </g>
     </g>
     <g id="text_9">
      <!-- 2000 -->
      <g transform="translate(377.079651 322.182437)scale(0.1 -0.1)">
       <use xlink:href="#DejaVuSans-32"/>
       <use x="63.623047" xlink:href="#DejaVuSans-30"/>
       <use x="127.246094" xlink:href="#DejaVuSans-30"/>
       <use x="190.869141" xlink:href="#DejaVuSans-30"/>
      </g>
     </g>
    </g>
    <g id="text_10">
     <!-- Jahr -->
     <defs>
      <path d="M 9.8125 72.90625 
L 19.671875 72.90625 
L 19.671875 5.078125 
Q 19.671875 -8.109375 14.671875 -14.0625 
Q 9.671875 -20.015625 -1.421875 -20.015625 
L -5.171875 -20.015625 
L -5.171875 -11.71875 
L -2.09375 -11.71875 
Q 4.4375 -11.71875 7.125 -8.046875 
Q 9.8125 -4.390625 9.8125 5.078125 
z
" id="DejaVuSans-4a"/>
      <path d="M 34.28125 27.484375 
Q 23.390625 27.484375 19.1875 25 
Q 14.984375 22.515625 14.984375 16.5 
Q 14.984375 11.71875 18.140625 8.90625 
Q 21.296875 6.109375 26.703125 6.109375 
Q 34.1875 6.109375 38.703125 11.40625 
Q 43.21875 16.703125 43.21875 25.484375 
L 43.21875 27.484375 
z
M 52.203125 31.203125 
L 52.203125 0 
L 43.21875 0 
L 43.21875 8.296875 
Q 40.140625 3.328125 35.546875 0.953125 
Q 30.953125 -1.421875 24.3125 -1.421875 
Q 15.921875 -1.421875 10.953125 3.296875 
Q 6 8.015625 6 15.921875 
Q 6 25.140625 12.171875 29.828125 
Q 18.359375 34.515625 30.609375 34.515625 
L 43.21875 34.515625 
L 43.21875 35.40625 
Q 43.21875 41.609375 39.140625 45 
Q 35.0625 48.390625 27.6875 48.390625 
Q 23 48.390625 18.546875 47.265625 
Q 14.109375 46.140625 10.015625 43.890625 
L 10.015625 52.203125 
Q 14.9375 54.109375 19.578125 55.046875 
Q 24.21875 56 28.609375 56 
Q 40.484375 56 46.34375 49.84375 
Q 52.203125 43.703125 52.203125 31.203125 
" id="DejaVuSans-61"/>
      <path d="M 54.890625 33.015625 
L 54.890625 0 
L 45.90625 0 
L 45.90625 32.71875 
Q 45.90625 40.484375 42.875 44.328125 
Q 39.84375 48.1875 33.796875 48.1875 
Q 26.515625 48.1875 22.3125 43.546875 
Q 18.109375 38.921875 18.109375 30.90625 
L 18.109375 0 
L 9.078125 0 
L 9.078125 75.984375 
L 18.109375 75.984375 
L 18.109375 46.1875 
Q 21.34375 51.125 25.703125 53.5625 
Q 30.078125 56 35.796875 56 
Q 45.21875 56 50.046875 50.171875 
Q 54.890625 44.34375 54.890625 33.015625 
" id="DejaVuSans-68"/>
      <path d="M 41.109375 46.296875 
Q 39.59375 47.171875 37.8125 47.578125 
Q 36.03125 48 33.890625 48 
Q 26.265625 48 22.1875 43.046875 
Q 18.109375 38.09375 18.109375 28.8125 
L 18.109375 0 
L 9.078125 0 
L 9.078125 54.6875 
L 18.109375 54.6875 
L 18.109375 46.1875 
Q 20.953125 51.171875 25.484375 53.578125 
Q 30.03125 56 36.53125 56 
Q 37.453125 56 38.578125 55.875 
Q 39.703125 55.765625 41.0625 55.515625 
z
" id="DejaVuSans-72"/>
     </defs>
     <g transform="translate(226.396719 335.860562)scale(0.1 -0.1)">
      <use xlink:href="#DejaVuSans-4a"/>
      <use x="29.492188" xlink:href="#DejaVuSans-61"/>
      <use x="90.771484" xlink:href="#DejaVuSans-68"/>
      <use x="154.150391" xlink:href="#DejaVuSans-72"/>
     </g>
    </g>
   </g>
   <g id="matplotlib.axis_2">
    <g id="ytick_1">
     <g id="line2d_10">
      <defs>
       <path d="M 0 0 
L -3.5 0 
" id="md969850e26" style="stroke:#000000;stroke-width:0.8;"/>
      </defs>
      <g>
       <use style="stroke:#000000;stroke-width:0.8;" x="57.6" xlink:href="#md969850e26" y="307.584"/>
      </g>
     </g>
     <g id="text_11">
      <!-- 0 -->
      <g transform="translate(44.2375 311.383219)scale(0.1 -0.1)">
       <use xlink:href="#DejaVuSans-30"/>
      </g>
     </g>
    </g>
    <g id="ytick_2">
     <g id="line2d_11">
      <g>
       <use style="stroke:#000000;stroke-width:0.8;" x="57.6" xlink:href="#md969850e26" y="267.293469"/>
      </g>
     </g>
     <g id="text_12">
      <!-- 1000 -->
      <g transform="translate(25.15 271.092688)scale(0.1 -0.1)">
       <use xlink:href="#DejaVuSans-31"/>
       <use x="63.623047" xlink:href="#DejaVuSans-30"/>
       <use x="127.246094" xlink:href="#DejaVuSans-30"/>
       <use x="190.869141" xlink:href="#DejaVuSans-30"/>
      </g>
     </g>
    </g>
    <g id="ytick_3">
     <g id="line2d_12">
      <g>
       <use style="stroke:#000000;stroke-width:0.8;" x="57.6" xlink:href="#md969850e26" y="227.002938"/>
      </g>
     </g>
     <g id="text_13">
      <!-- 2000 -->
      <g transform="translate(25.15 230.802157)scale(0.1 -0.1)">
       <use xlink:href="#DejaVuSans-32"/>
       <use x="63.623047" xlink:href="#DejaVuSans-30"/>
       <use x="127.246094" xlink:href="#DejaVuSans-30"/>
       <use x="190.869141" xlink:href="#DejaVuSans-30"/>
      </g>
     </g>
    </g>
    <g id="ytick_4">
     <g id="line2d_13">
      <g>
       <use style="stroke:#000000;stroke-width:0.8;" x="57.6" xlink:href="#md969850e26" y="186.712407"/>
      </g>
     </g>
     <g id="text_14">
      <!-- 3000 -->
      <defs>
       <path d="M 40.578125 39.3125 
Q 47.65625 37.796875 51.625 33 
Q 55.609375 28.21875 55.609375 21.1875 
Q 55.609375 10.40625 48.1875 4.484375 
Q 40.765625 -1.421875 27.09375 -1.421875 
Q 22.515625 -1.421875 17.65625 -0.515625 
Q 12.796875 0.390625 7.625 2.203125 
L 7.625 11.71875 
Q 11.71875 9.328125 16.59375 8.109375 
Q 21.484375 6.890625 26.8125 6.890625 
Q 36.078125 6.890625 40.9375 10.546875 
Q 45.796875 14.203125 45.796875 21.1875 
Q 45.796875 27.640625 41.28125 31.265625 
Q 36.765625 34.90625 28.71875 34.90625 
L 20.21875 34.90625 
L 20.21875 43.015625 
L 29.109375 43.015625 
Q 36.375 43.015625 40.234375 45.921875 
Q 44.09375 48.828125 44.09375 54.296875 
Q 44.09375 59.90625 40.109375 62.90625 
Q 36.140625 65.921875 28.71875 65.921875 
Q 24.65625 65.921875 20.015625 65.03125 
Q 15.375 64.15625 9.8125 62.3125 
L 9.8125 71.09375 
Q 15.4375 72.65625 20.34375 73.4375 
Q 25.25 74.21875 29.59375 74.21875 
Q 40.828125 74.21875 47.359375 69.109375 
Q 53.90625 64.015625 53.90625 55.328125 
Q 53.90625 49.265625 50.4375 45.09375 
Q 46.96875 40.921875 40.578125 39.3125 
" id="DejaVuSans-33"/>
      </defs>
      <g transform="translate(25.15 190.511626)scale(0.1 -0.1)">
       <use xlink:href="#DejaVuSans-33"/>
       <use x="63.623047" xlink:href="#DejaVuSans-30"/>
       <use x="127.246094" xlink:href="#DejaVuSans-30"/>
       <use x="190.869141" xlink:href="#DejaVuSans-30"/>
      </g>
     </g>
    </g>
    <g id="ytick_5">
     <g id="line2d_14">
      <g>
       <use style="stroke:#000000;stroke-width:0.8;" x="57.6" xlink:href="#md969850e26" y="146.421877"/>
      </g>
     </g>
     <g id="text_15">
      <!-- 4000 -->
      <defs>
       <path d="M 37.796875 64.3125 
L 12.890625 25.390625 
L 37.796875 25.390625 
z
M 35.203125 72.90625 
L 47.609375 72.90625 
L 47.609375 25.390625 
L 58.015625 25.390625 
L 58.015625 17.1875 
L 47.609375 17.1875 
L 47.609375 0 
L 37.796875 0 
L 37.796875 17.1875 
L 4.890625 17.1875 
L 4.890625 26.703125 
z
" id="DejaVuSans-34"/>
      </defs>
      <g transform="translate(25.15 150.221095)scale(0.1 -0.1)">
       <use xlink:href="#DejaVuSans-34"/>
       <use x="63.623047" xlink:href="#DejaVuSans-30"/>
       <use x="127.246094" xlink:href="#DejaVuSans-30"/>
       <use x="190.869141" xlink:href="#DejaVuSans-30"/>
      </g>
     </g>
    </g>
    <g id="ytick_6">
     <g id="line2d_15">
      <g>
       <use style="stroke:#000000;stroke-width:0.8;" x="57.6" xlink:href="#md969850e26" y="106.131346"/>
      </g>
     </g>
     <g id="text_16">
      <!-- 5000 -->
      <g transform="translate(25.15 109.930565)scale(0.1 -0.1)">
       <use xlink:href="#DejaVuSans-35"/>
       <use x="63.623047" xlink:href="#DejaVuSans-30"/>
       <use x="127.246094" xlink:href="#DejaVuSans-30"/>
       <use x="190.869141" xlink:href="#DejaVuSans-30"/>
      </g>
     </g>
    </g>
    <g id="ytick_7">
     <g id="line2d_16">
      <g>
       <use style="stroke:#000000;stroke-width:0.8;" x="57.6" xlink:href="#md969850e26" y="65.840815"/>
      </g>
     </g>
     <g id="text_17">
      <!-- 6000 -->
      <defs>
       <path d="M 33.015625 40.375 
Q 26.375 40.375 22.484375 35.828125 
Q 18.609375 31.296875 18.609375 23.390625 
Q 18.609375 15.53125 22.484375 10.953125 
Q 26.375 6.390625 33.015625 6.390625 
Q 39.65625 6.390625 43.53125 10.953125 
Q 47.40625 15.53125 47.40625 23.390625 
Q 47.40625 31.296875 43.53125 35.828125 
Q 39.65625 40.375 33.015625 40.375 
M 52.59375 71.296875 
L 52.59375 62.3125 
Q 48.875 64.0625 45.09375 64.984375 
Q 41.3125 65.921875 37.59375 65.921875 
Q 27.828125 65.921875 22.671875 59.328125 
Q 17.53125 52.734375 16.796875 39.40625 
Q 19.671875 43.65625 24.015625 45.921875 
Q 28.375 48.1875 33.59375 48.1875 
Q 44.578125 48.1875 50.953125 41.515625 
Q 57.328125 34.859375 57.328125 23.390625 
Q 57.328125 12.15625 50.6875 5.359375 
Q 44.046875 -1.421875 33.015625 -1.421875 
Q 20.359375 -1.421875 13.671875 8.265625 
Q 6.984375 17.96875 6.984375 36.375 
Q 6.984375 53.65625 15.1875 63.9375 
Q 23.390625 74.21875 37.203125 74.21875 
Q 40.921875 74.21875 44.703125 73.484375 
Q 48.484375 72.75 52.59375 71.296875 
" id="DejaVuSans-36"/>
      </defs>
      <g transform="translate(25.15 69.640034)scale(0.1 -0.1)">
       <use xlink:href="#DejaVuSans-36"/>
       <use x="63.623047" xlink:href="#DejaVuSans-30"/>
       <use x="127.246094" xlink:href="#DejaVuSans-30"/>
       <use x="190.869141" xlink:href="#DejaVuSans-30"/>
      </g>
     </g>
    </g>
    <g id="text_18">
     <!-- Bevölkerung [Mio.] -->
     <defs>
      <path d="M 19.671875 34.8125 
L 19.671875 8.109375 
L 35.5 8.109375 
Q 43.453125 8.109375 47.28125 11.40625 
Q 51.125 14.703125 51.125 21.484375 
Q 51.125 28.328125 47.28125 31.5625 
Q 43.453125 34.8125 35.5 34.8125 
z
M 19.671875 64.796875 
L 19.671875 42.828125 
L 34.28125 42.828125 
Q 41.5 42.828125 45.03125 45.53125 
Q 48.578125 48.25 48.578125 53.8125 
Q 48.578125 59.328125 45.03125 62.0625 
Q 41.5 64.796875 34.28125 64.796875 
z
M 9.8125 72.90625 
L 35.015625 72.90625 
Q 46.296875 72.90625 52.390625 68.21875 
Q 58.5 63.53125 58.5 54.890625 
Q 58.5 48.1875 55.375 44.234375 
Q 52.25 40.28125 46.1875 39.3125 
Q 53.46875 37.75 57.5 32.78125 
Q 61.53125 27.828125 61.53125 20.40625 
Q 61.53125 10.640625 54.890625 5.3125 
Q 48.25 0 35.984375 0 
L 9.8125 0 
z
" id="DejaVuSans-42"/>
      <path d="M 56.203125 29.59375 
L 56.203125 25.203125 
L 14.890625 25.203125 
Q 15.484375 15.921875 20.484375 11.0625 
Q 25.484375 6.203125 34.421875 6.203125 
Q 39.59375 6.203125 44.453125 7.46875 
Q 49.3125 8.734375 54.109375 11.28125 
L 54.109375 2.78125 
Q 49.265625 0.734375 44.1875 -0.34375 
Q 39.109375 -1.421875 33.890625 -1.421875 
Q 20.796875 -1.421875 13.15625 6.1875 
Q 5.515625 13.8125 5.515625 26.8125 
Q 5.515625 40.234375 12.765625 48.109375 
Q 20.015625 56 32.328125 56 
Q 43.359375 56 49.78125 48.890625 
Q 56.203125 41.796875 56.203125 29.59375 
M 47.21875 32.234375 
Q 47.125 39.59375 43.09375 43.984375 
Q 39.0625 48.390625 32.421875 48.390625 
Q 24.90625 48.390625 20.390625 44.140625 
Q 15.875 39.890625 15.1875 32.171875 
z
" id="DejaVuSans-65"/>
      <path d="M 2.984375 54.6875 
L 12.5 54.6875 
L 29.59375 8.796875 
L 46.6875 54.6875 
L 56.203125 54.6875 
L 35.6875 0 
L 23.484375 0 
z
" id="DejaVuSans-76"/>
      <path d="M 30.609375 48.390625 
Q 23.390625 48.390625 19.1875 42.75 
Q 14.984375 37.109375 14.984375 27.296875 
Q 14.984375 17.484375 19.15625 11.84375 
Q 23.34375 6.203125 30.609375 6.203125 
Q 37.796875 6.203125 41.984375 11.859375 
Q 46.1875 17.53125 46.1875 27.296875 
Q 46.1875 37.015625 41.984375 42.703125 
Q 37.796875 48.390625 30.609375 48.390625 
M 30.609375 56 
Q 42.328125 56 49.015625 48.375 
Q 55.71875 40.765625 55.71875 27.296875 
Q 55.71875 13.875 49.015625 6.21875 
Q 42.328125 -1.421875 30.609375 -1.421875 
Q 18.84375 -1.421875 12.171875 6.21875 
Q 5.515625 13.875 5.515625 27.296875 
Q 5.515625 40.765625 12.171875 48.375 
Q 18.84375 56 30.609375 56 
M 35.21875 75.78125 
L 45.125 75.78125 
L 45.125 65.921875 
L 35.21875 65.921875 
z
M 16.125 75.78125 
L 26.03125 75.78125 
L 26.03125 65.921875 
L 16.125 65.921875 
z
" id="DejaVuSans-f6"/>
      <path d="M 9.421875 75.984375 
L 18.40625 75.984375 
L 18.40625 0 
L 9.421875 0 
z
" id="DejaVuSans-6c"/>
      <path d="M 9.078125 75.984375 
L 18.109375 75.984375 
L 18.109375 31.109375 
L 44.921875 54.6875 
L 56.390625 54.6875 
L 27.390625 29.109375 
L 57.625 0 
L 45.90625 0 
L 18.109375 26.703125 
L 18.109375 0 
L 9.078125 0 
z
" id="DejaVuSans-6b"/>
      <path d="M 8.5 21.578125 
L 8.5 54.6875 
L 17.484375 54.6875 
L 17.484375 21.921875 
Q 17.484375 14.15625 20.5 10.265625 
Q 23.53125 6.390625 29.59375 6.390625 
Q 36.859375 6.390625 41.078125 11.03125 
Q 45.3125 15.671875 45.3125 23.6875 
L 45.3125 54.6875 
L 54.296875 54.6875 
L 54.296875 0 
L 45.3125 0 
L 45.3125 8.40625 
Q 42.046875 3.421875 37.71875 1 
Q 33.40625 -1.421875 27.6875 -1.421875 
Q 18.265625 -1.421875 13.375 4.4375 
Q 8.5 10.296875 8.5 21.578125 
M 31.109375 56 
z
" id="DejaVuSans-75"/>
      <path d="M 54.890625 33.015625 
L 54.890625 0 
L 45.90625 0 
L 45.90625 32.71875 
Q 45.90625 40.484375 42.875 44.328125 
Q 39.84375 48.1875 33.796875 48.1875 
Q 26.515625 48.1875 22.3125 43.546875 
Q 18.109375 38.921875 18.109375 30.90625 
L 18.109375 0 
L 9.078125 0 
L 9.078125 54.6875 
L 18.109375 54.6875 
L 18.109375 46.1875 
Q 21.34375 51.125 25.703125 53.5625 
Q 30.078125 56 35.796875 56 
Q 45.21875 56 50.046875 50.171875 
Q 54.890625 44.34375 54.890625 33.015625 
" id="DejaVuSans-6e"/>
      <path d="M 45.40625 27.984375 
Q 45.40625 37.75 41.375 43.109375 
Q 37.359375 48.484375 30.078125 48.484375 
Q 22.859375 48.484375 18.828125 43.109375 
Q 14.796875 37.75 14.796875 27.984375 
Q 14.796875 18.265625 18.828125 12.890625 
Q 22.859375 7.515625 30.078125 7.515625 
Q 37.359375 7.515625 41.375 12.890625 
Q 45.40625 18.265625 45.40625 27.984375 
M 54.390625 6.78125 
Q 54.390625 -7.171875 48.1875 -13.984375 
Q 42 -20.796875 29.203125 -20.796875 
Q 24.46875 -20.796875 20.265625 -20.09375 
Q 16.0625 -19.390625 12.109375 -17.921875 
L 12.109375 -9.1875 
Q 16.0625 -11.328125 19.921875 -12.34375 
Q 23.78125 -13.375 27.78125 -13.375 
Q 36.625 -13.375 41.015625 -8.765625 
Q 45.40625 -4.15625 45.40625 5.171875 
L 45.40625 9.625 
Q 42.625 4.78125 38.28125 2.390625 
Q 33.9375 0 27.875 0 
Q 17.828125 0 11.671875 7.65625 
Q 5.515625 15.328125 5.515625 27.984375 
Q 5.515625 40.671875 11.671875 48.328125 
Q 17.828125 56 27.875 56 
Q 33.9375 56 38.28125 53.609375 
Q 42.625 51.21875 45.40625 46.390625 
L 45.40625 54.6875 
L 54.390625 54.6875 
z
" id="DejaVuSans-67"/>
      <path id="DejaVuSans-20"/>
      <path d="M 8.59375 75.984375 
L 29.296875 75.984375 
L 29.296875 69 
L 17.578125 69 
L 17.578125 -6.203125 
L 29.296875 -6.203125 
L 29.296875 -13.1875 
L 8.59375 -13.1875 
z
" id="DejaVuSans-5b"/>
      <path d="M 9.8125 72.90625 
L 24.515625 72.90625 
L 43.109375 23.296875 
L 61.8125 72.90625 
L 76.515625 72.90625 
L 76.515625 0 
L 66.890625 0 
L 66.890625 64.015625 
L 48.09375 14.015625 
L 38.1875 14.015625 
L 19.390625 64.015625 
L 19.390625 0 
L 9.8125 0 
z
" id="DejaVuSans-4d"/>
      <path d="M 9.421875 54.6875 
L 18.40625 54.6875 
L 18.40625 0 
L 9.421875 0 
z
M 9.421875 75.984375 
L 18.40625 75.984375 
L 18.40625 64.59375 
L 9.421875 64.59375 
z
" id="DejaVuSans-69"/>
      <path d="M 30.609375 48.390625 
Q 23.390625 48.390625 19.1875 42.75 
Q 14.984375 37.109375 14.984375 27.296875 
Q 14.984375 17.484375 19.15625 11.84375 
Q 23.34375 6.203125 30.609375 6.203125 
Q 37.796875 6.203125 41.984375 11.859375 
Q 46.1875 17.53125 46.1875 27.296875 
Q 46.1875 37.015625 41.984375 42.703125 
Q 37.796875 48.390625 30.609375 48.390625 
M 30.609375 56 
Q 42.328125 56 49.015625 48.375 
Q 55.71875 40.765625 55.71875 27.296875 
Q 55.71875 13.875 49.015625 6.21875 
Q 42.328125 -1.421875 30.609375 -1.421875 
Q 18.84375 -1.421875 12.171875 6.21875 
Q 5.515625 13.875 5.515625 27.296875 
Q 5.515625 40.765625 12.171875 48.375 
Q 18.84375 56 30.609375 56 
" id="DejaVuSans-6f"/>
      <path d="M 10.6875 12.40625 
L 21 12.40625 
L 21 0 
L 10.6875 0 
z
" id="DejaVuSans-2e"/>
      <path d="M 30.421875 75.984375 
L 30.421875 -13.1875 
L 9.71875 -13.1875 
L 9.71875 -6.203125 
L 21.390625 -6.203125 
L 21.390625 69 
L 9.71875 69 
L 9.71875 75.984375 
z
" id="DejaVuSans-5d"/>
     </defs>
     <g transform="translate(19.070312 221.820969)rotate(-90)scale(0.1 -0.1)">
      <use xlink:href="#DejaVuSans-42"/>
      <use x="68.603516" xlink:href="#DejaVuSans-65"/>
      <use x="130.126953" xlink:href="#DejaVuSans-76"/>
      <use x="189.306641" xlink:href="#DejaVuSans-f6"/>
      <use x="250.488281" xlink:href="#DejaVuSans-6c"/>
      <use x="278.271484" xlink:href="#DejaVuSans-6b"/>
      <use x="336.134766" xlink:href="#DejaVuSans-65"/>
      <use x="397.658203" xlink:href="#DejaVuSans-72"/>
      <use x="438.771484" xlink:href="#DejaVuSans-75"/>
      <use x="502.150391" xlink:href="#DejaVuSans-6e"/>
      <use x="565.529297" xlink:href="#DejaVuSans-67"/>
      <use x="629.005859" xlink:href="#DejaVuSans-20"/>
      <use x="660.792969" xlink:href="#DejaVuSans-5b"/>
      <use x="699.806641" xlink:href="#DejaVuSans-4d"/>
      <use x="786.085938" xlink:href="#DejaVuSans-69"/>
      <use x="813.869141" xlink:href="#DejaVuSans-6f"/>
      <use x="875.035156" xlink:href="#DejaVuSans-2e"/>
      <use x="906.822266" xlink:href="#DejaVuSans-5d"/>
     </g>
    </g>
   </g>
   <g id="line2d_17">
    <path clip-path="url(#pbd77028db8)" d="M 57.6 305.019663 
L 74.210233 305.002157 
L 90.820465 304.948741 
L 107.430698 304.826218 
L 124.04093 304.656989 
L 140.651163 304.472182 
L 157.261395 304.273044 
L 173.871628 304.049594 
L 190.48186 303.793225 
L 207.092093 303.503033 
L 223.702326 303.179574 
L 240.312558 302.812376 
L 256.922791 302.349865 
L 273.533023 301.74225 
L 290.143256 300.723604 
L 306.753488 299.316412 
L 308.414512 299.154976 
L 310.075535 298.984839 
L 311.736558 298.806281 
L 313.397581 298.619511 
L 315.058605 298.424659 
L 316.719628 298.221781 
L 318.380651 298.010856 
L 320.041674 297.791795 
L 321.702698 297.564464 
L 323.363721 297.328716 
L 325.024744 297.084451 
L 326.685767 296.831651 
L 328.346791 296.570399 
L 330.007814 296.300829 
L 331.668837 296.022979 
L 333.32986 295.736521 
L 334.990884 295.441151 
L 336.651907 295.136895 
L 338.31293 294.823837 
L 339.973953 294.50181 
L 341.634977 294.170762 
L 343.296 293.829926 
L 344.957023 293.477538 
L 346.618047 293.111333 
L 348.27907 292.729585 
L 349.940093 292.331715 
L 351.601116 291.917813 
L 353.26214 291.487703 
L 354.923163 291.041433 
L 356.584186 290.579164 
L 358.245209 290.101025 
L 359.906233 289.607305 
L 361.567256 289.098641 
L 363.228279 288.575864 
L 364.889302 288.039868 
L 366.550326 287.490629 
L 368.211349 286.928865 
L 369.872372 286.357085 
L 371.533395 285.778468 
L 373.194419 285.19521 
L 374.855442 284.608133 
L 376.516465 284.016439 
L 378.177488 283.418606 
L 379.838512 282.812281 
L 381.499535 282.195493 
L 383.160558 281.567404 
L 384.821581 280.927676 
L 386.482605 280.275332 
L 388.143628 279.60938 
L 389.804651 278.928765 
L 391.465674 278.232735 
L 393.126698 277.520163 
L 394.787721 276.789186 
L 396.448744 276.037648 
L 398.109767 275.263826 
L 399.770791 274.467355 
L 401.431814 273.648013 
L 403.092837 272.804549 
L 404.75386 271.93562 
L 406.414884 271.040619 
L 408.075907 270.118959 
L 409.73693 269.171836 
L 411.397953 268.202727 
L 413.058977 267.216355 
L 414.72 266.21636 
" style="fill:none;stroke:#1f77b4;stroke-linecap:square;stroke-width:1.5;"/>
   </g>
   <g id="line2d_18">
    <path clip-path="url(#pbd77028db8)" d="M 57.6 304.267006 
L 74.210233 304.211282 
L 90.820465 304.097758 
L 107.430698 303.87015 
L 124.04093 303.554715 
L 140.651163 303.198228 
L 157.261395 302.809693 
L 173.871628 302.372098 
L 190.48186 301.853621 
L 207.092093 301.241889 
L 223.702326 300.497173 
L 240.312558 299.57645 
L 256.922791 298.539213 
L 273.533023 297.125385 
L 290.143256 295.20642 
L 306.753488 292.311626 
L 308.414512 291.964377 
L 310.075535 291.60026 
L 311.736558 291.220915 
L 313.397581 290.827511 
L 315.058605 290.420743 
L 316.719628 290.000809 
L 318.380651 289.567432 
L 320.041674 289.119937 
L 321.702698 288.657384 
L 323.363721 288.178943 
L 325.024744 287.684307 
L 326.685767 287.174047 
L 328.346791 286.649764 
L 330.007814 286.11366 
L 331.668837 285.567257 
L 333.32986 285.010977 
L 334.990884 284.44416 
L 336.651907 283.865875 
L 338.31293 283.2747 
L 339.973953 282.669453 
L 341.634977 282.049832 
L 343.296 281.41569 
L 344.957023 280.766144 
L 346.618047 280.100186 
L 348.27907 279.417018 
L 349.940093 278.716484 
L 351.601116 277.998501 
L 353.26214 277.262521 
L 354.923163 276.507957 
L 356.584186 275.734579 
L 358.245209 274.942582 
L 359.906233 274.132684 
L 361.567256 273.305944 
L 363.228279 272.463753 
L 364.889302 271.607506 
L 366.550326 270.737402 
L 368.211349 269.854378 
L 369.872372 268.961462 
L 371.533395 268.062411 
L 373.194419 267.159897 
L 374.855442 266.255179 
L 376.516465 265.34762 
L 378.177488 264.435566 
L 379.838512 263.516365 
L 381.499535 262.587925 
L 383.160558 261.649236 
L 384.821581 260.700359 
L 386.482605 259.74142 
L 388.143628 258.772885 
L 389.804651 257.794659 
L 391.465674 256.806549 
L 393.126698 255.806918 
L 394.787721 254.79247 
L 396.448744 253.758996 
L 398.109767 252.703306 
L 399.770791 251.624654 
L 401.431814 250.523317 
L 403.092837 249.39854 
L 404.75386 248.249806 
L 406.414884 247.077197 
L 408.075907 245.880273 
L 409.73693 244.660271 
L 411.397953 243.421167 
L 413.058977 242.168264 
L 414.72 240.905689 
" style="fill:none;stroke:#ff7f0e;stroke-linecap:square;stroke-width:1.5;"/>
   </g>
   <g id="line2d_19">
    <path clip-path="url(#pbd77028db8)" d="M 57.6 279.492588 
L 74.210233 278.074325 
L 90.820465 276.491469 
L 107.430698 274.931311 
L 124.04093 273.724362 
L 140.651163 273.128642 
L 157.261395 272.991005 
L 173.871628 272.445896 
L 190.48186 270.948822 
L 207.092093 268.825145 
L 223.702326 266.138208 
L 240.312558 262.984836 
L 256.922791 258.644422 
L 273.533023 254.497445 
L 290.143256 248.11665 
L 306.753488 239.741378 
L 308.414512 238.240121 
L 310.075535 236.810345 
L 311.736558 235.415469 
L 313.397581 234.025124 
L 315.058605 232.615148 
L 316.719628 231.167826 
L 318.380651 229.671652 
L 320.041674 228.120636 
L 321.702698 226.513154 
L 323.363721 224.848477 
L 325.024744 223.12308 
L 326.685767 221.327404 
L 328.346791 219.444468 
L 330.007814 217.453804 
L 331.668837 215.342999 
L 333.32986 213.105645 
L 334.990884 210.751663 
L 336.651907 208.306024 
L 338.31293 205.803782 
L 339.973953 203.272571 
L 341.634977 200.718197 
L 343.296 198.140141 
L 344.957023 195.551678 
L 346.618047 192.966633 
L 348.27907 190.393445 
L 349.940093 187.839294 
L 351.601116 185.299338 
L 353.26214 182.754194 
L 354.923163 180.17612 
L 356.584186 177.543692 
L 358.245209 174.857297 
L 359.906233 172.120062 
L 361.567256 169.317438 
L 363.228279 166.43236 
L 364.889302 163.456552 
L 366.550326 160.382496 
L 368.211349 157.224242 
L 369.872372 154.02239 
L 371.533395 150.832096 
L 373.194419 147.694799 
L 374.855442 144.623707 
L 376.516465 141.613266 
L 378.177488 138.662609 
L 379.838512 135.764513 
L 381.499535 132.912022 
L 383.160558 130.108565 
L 384.821581 127.353786 
L 386.482605 124.631091 
L 388.143628 121.918196 
L 389.804651 119.198023 
L 391.465674 116.462857 
L 393.126698 113.71326 
L 394.787721 110.950538 
L 396.448744 108.179279 
L 398.109767 105.40212 
L 399.770791 102.620859 
L 401.431814 99.831461 
L 403.092837 97.024455 
L 404.75386 94.187394 
L 406.414884 91.313107 
L 408.075907 88.398464 
L 409.73693 85.451343 
L 411.397953 82.48946 
L 413.058977 79.537109 
L 414.72 76.613083 
" style="fill:none;stroke:#2ca02c;stroke-linecap:square;stroke-width:1.5;"/>
   </g>
   <g id="line2d_20">
    <path clip-path="url(#pbd77028db8)" d="M 57.6 273.271024 
L 74.210233 271.629261 
L 90.820465 269.727509 
L 107.430698 267.702191 
L 124.04093 265.954638 
L 140.651163 264.84922 
L 157.261395 264.179628 
L 173.871628 263.03146 
L 190.48186 260.842357 
L 207.092093 257.925638 
L 223.702326 254.34067 
L 240.312558 250.13649 
L 256.922791 245.605218 
L 273.533023 240.287789 
L 290.143256 232.917668 
L 306.753488 224.084039 
L 308.414512 222.447282 
L 310.075535 220.875359 
L 311.736558 219.335232 
L 313.397581 217.79899 
L 315.058605 216.243847 
L 316.719628 214.652319 
L 318.380651 213.012046 
L 320.041674 211.315292 
L 321.702698 209.558091 
L 323.363721 207.737711 
L 325.024744 205.84993 
L 326.685767 203.886676 
L 328.346791 201.835001 
L 330.007814 199.679972 
L 331.668837 197.41314 
L 333.32986 195.029933 
L 334.990884 192.53919 
L 336.651907 189.963343 
L 338.31293 187.333487 
L 339.973953 184.674504 
L 341.634977 181.991508 
L 343.296 179.285353 
L 344.957023 176.571099 
L 346.618047 173.865193 
L 348.27907 171.177988 
L 349.940093 168.516983 
L 351.601116 165.876743 
L 353.26214 163.237756 
L 354.923163 160.571907 
L 356.584186 157.85734 
L 358.245209 155.094701 
L 359.906233 152.286855 
L 361.567256 149.417641 
L 363.228279 146.467869 
L 364.889302 143.42774 
L 366.550326 140.289407 
L 368.211349 137.067494 
L 369.872372 133.803296 
L 371.533395 130.553007 
L 373.194419 127.35911 
L 374.855442 124.233843 
L 376.516465 121.17185 
L 378.177488 118.175661 
L 379.838512 115.242607 
L 381.499535 112.36842 
L 383.160558 109.558442 
L 384.821581 106.809854 
L 386.482605 104.098981 
L 388.143628 101.393753 
L 389.804651 98.670076 
L 391.465674 95.917944 
L 393.126698 93.140036 
L 394.787721 90.340537 
L 396.448744 87.528793 
L 398.109767 84.71122 
L 399.770791 81.889854 
L 401.431814 79.06025 
L 403.092837 76.21538 
L 404.75386 73.352036 
L 406.414884 70.452356 
L 408.075907 67.520915 
L 409.73693 64.565084 
L 411.397953 61.600331 
L 413.058977 58.647557 
L 414.72 55.723094 
" style="fill:none;stroke:#d62728;stroke-linecap:square;stroke-width:1.5;"/>
   </g>
   <g id="line2d_21">
    <path clip-path="url(#pbd77028db8)" d="M 57.6 273.205181 
L 74.210233 271.563543 
L 90.820465 269.661285 
L 107.430698 267.63371 
L 124.04093 265.880326 
L 140.651163 264.759485 
L 157.261395 264.064662 
L 173.871628 262.889793 
L 190.48186 260.66888 
L 207.092093 257.709334 
L 223.702326 254.088989 
L 240.312558 249.844182 
L 256.922791 245.262604 
L 273.533023 239.883246 
L 290.143256 232.47665 
L 306.753488 223.575182 
L 308.414512 221.925559 
L 310.075535 220.34169 
L 311.736558 218.790001 
L 313.397581 217.242174 
L 315.058605 215.675152 
L 316.719628 214.071315 
L 318.380651 212.418301 
L 320.041674 210.708484 
L 321.702698 208.938095 
L 323.363721 207.104581 
L 325.024744 205.203798 
L 326.685767 203.227546 
L 328.346791 201.16252 
L 330.007814 198.9933 
L 331.668837 196.711131 
L 333.32986 194.311296 
L 334.990884 191.802866 
L 336.651907 189.208819 
L 338.31293 186.561009 
L 339.973953 183.884883 
L 341.634977 181.185674 
L 343.296 178.464123 
L 344.957023 175.735318 
L 346.618047 173.015674 
L 348.27907 170.31547 
L 349.940093 167.642294 
L 351.601116 164.990612 
L 353.26214 162.340416 
L 354.923163 159.662924 
L 356.584186 156.935801 
L 358.245209 154.159502 
L 359.906233 151.337005 
L 361.567256 148.452324 
L 363.228279 145.486582 
L 364.889302 142.43022 
L 366.550326 139.275421 
L 368.211349 136.036765 
L 369.872372 132.75565 
L 371.533395 129.488378 
L 373.194419 126.277521 
L 374.855442 123.135338 
L 376.516465 120.056485 
L 378.177488 117.043551 
L 379.838512 114.093935 
L 381.499535 111.203391 
L 383.160558 108.37725 
L 384.821581 105.612616 
L 386.482605 102.885679 
L 388.143628 100.164191 
L 389.804651 97.423893 
L 391.465674 94.654819 
L 393.126698 91.859579 
L 394.787721 89.041969 
L 396.448744 86.210842 
L 398.109767 83.372304 
L 399.770791 80.528215 
L 401.431814 77.674329 
L 403.092837 74.804212 
L 404.75386 71.91554 
L 406.414884 68.990883 
L 408.075907 66.035113 
L 409.73693 63.055493 
L 411.397953 60.067395 
L 413.058977 57.091503 
L 414.72 54.144 
" style="fill:none;stroke:#9467bd;stroke-linecap:square;stroke-width:1.5;"/>
   </g>
   <g id="patch_3">
    <path d="M 57.6 307.584 
L 57.6 41.472 
" style="fill:none;stroke:#000000;stroke-linecap:square;stroke-linejoin:miter;stroke-width:0.8;"/>
   </g>
   <g id="patch_4">
    <path d="M 414.72 307.584 
L 414.72 41.472 
" style="fill:none;stroke:#000000;stroke-linecap:square;stroke-linejoin:miter;stroke-width:0.8;"/>
   </g>
   <g id="patch_5">
    <path d="M 57.6 307.584 
L 414.72 307.584 
" style="fill:none;stroke:#000000;stroke-linecap:square;stroke-linejoin:miter;stroke-width:0.8;"/>
   </g>
   <g id="patch_6">
    <path d="M 57.6 41.472 
L 414.72 41.472 
" style="fill:none;stroke:#000000;stroke-linecap:square;stroke-linejoin:miter;stroke-width:0.8;"/>
   </g>
   <g id="legend_1">
    <g id="patch_7">
     <path d="M 64.6 137.54075 
L 143.059375 137.54075 
Q 145.059375 137.54075 145.059375 135.54075 
L 145.059375 48.472 
Q 145.059375 46.472 143.059375 46.472 
L 64.6 46.472 
Q 62.6 46.472 62.6 48.472 
L 62.6 135.54075 
Q 62.6 137.54075 64.6 137.54075 
z
" style="fill:#ffffff;opacity:0.8;stroke:#cccccc;stroke-linejoin:miter;"/>
    </g>
    <g id="text_19">
     <!-- region -->
     <g transform="translate(87.907812 58.070438)scale(0.1 -0.1)">
      <use xlink:href="#DejaVuSans-72"/>
      <use x="41.082031" xlink:href="#DejaVuSans-65"/>
      <use x="102.605469" xlink:href="#DejaVuSans-67"/>
      <use x="166.082031" xlink:href="#DejaVuSans-69"/>
      <use x="193.865234" xlink:href="#DejaVuSans-6f"/>
      <use x="255.046875" xlink:href="#DejaVuSans-6e"/>
     </g>
    </g>
    <g id="patch_8">
     <path d="M 66.6 72.748563 
L 86.6 72.748563 
L 86.6 65.748563 
L 66.6 65.748563 
z
" style="fill:#1f77b4;stroke:#1f77b4;stroke-linejoin:miter;"/>
    </g>
    <g id="text_20">
     <!-- Africa -->
     <defs>
      <path d="M 34.1875 63.1875 
L 20.796875 26.90625 
L 47.609375 26.90625 
z
M 28.609375 72.90625 
L 39.796875 72.90625 
L 67.578125 0 
L 57.328125 0 
L 50.6875 18.703125 
L 17.828125 18.703125 
L 11.1875 0 
L 0.78125 0 
z
" id="DejaVuSans-41"/>
      <path d="M 37.109375 75.984375 
L 37.109375 68.5 
L 28.515625 68.5 
Q 23.6875 68.5 21.796875 66.546875 
Q 19.921875 64.59375 19.921875 59.515625 
L 19.921875 54.6875 
L 34.71875 54.6875 
L 34.71875 47.703125 
L 19.921875 47.703125 
L 19.921875 0 
L 10.890625 0 
L 10.890625 47.703125 
L 2.296875 47.703125 
L 2.296875 54.6875 
L 10.890625 54.6875 
L 10.890625 58.5 
Q 10.890625 67.625 15.140625 71.796875 
Q 19.390625 75.984375 28.609375 75.984375 
z
" id="DejaVuSans-66"/>
      <path d="M 48.78125 52.59375 
L 48.78125 44.1875 
Q 44.96875 46.296875 41.140625 47.34375 
Q 37.3125 48.390625 33.40625 48.390625 
Q 24.65625 48.390625 19.8125 42.84375 
Q 14.984375 37.3125 14.984375 27.296875 
Q 14.984375 17.28125 19.8125 11.734375 
Q 24.65625 6.203125 33.40625 6.203125 
Q 37.3125 6.203125 41.140625 7.25 
Q 44.96875 8.296875 48.78125 10.40625 
L 48.78125 2.09375 
Q 45.015625 0.34375 40.984375 -0.53125 
Q 36.96875 -1.421875 32.421875 -1.421875 
Q 20.0625 -1.421875 12.78125 6.34375 
Q 5.515625 14.109375 5.515625 27.296875 
Q 5.515625 40.671875 12.859375 48.328125 
Q 20.21875 56 33.015625 56 
Q 37.15625 56 41.109375 55.140625 
Q 45.0625 54.296875 48.78125 52.59375 
" id="DejaVuSans-63"/>
     </defs>
     <g transform="translate(94.6 72.748563)scale(0.1 -0.1)">
      <use xlink:href="#DejaVuSans-41"/>
      <use x="68.361328" xlink:href="#DejaVuSans-66"/>
      <use x="103.566406" xlink:href="#DejaVuSans-72"/>
      <use x="144.679688" xlink:href="#DejaVuSans-69"/>
      <use x="172.462891" xlink:href="#DejaVuSans-63"/>
      <use x="227.443359" xlink:href="#DejaVuSans-61"/>
     </g>
    </g>
    <g id="patch_9">
     <path d="M 66.6 87.426688 
L 86.6 87.426688 
L 86.6 80.426688 
L 66.6 80.426688 
z
" style="fill:#ff7f0e;stroke:#ff7f0e;stroke-linejoin:miter;"/>
    </g>
    <g id="text_21">
     <!-- Americas -->
     <defs>
      <path d="M 52 44.1875 
Q 55.375 50.25 60.0625 53.125 
Q 64.75 56 71.09375 56 
Q 79.640625 56 84.28125 50.015625 
Q 88.921875 44.046875 88.921875 33.015625 
L 88.921875 0 
L 79.890625 0 
L 79.890625 32.71875 
Q 79.890625 40.578125 77.09375 44.375 
Q 74.3125 48.1875 68.609375 48.1875 
Q 61.625 48.1875 57.5625 43.546875 
Q 53.515625 38.921875 53.515625 30.90625 
L 53.515625 0 
L 44.484375 0 
L 44.484375 32.71875 
Q 44.484375 40.625 41.703125 44.40625 
Q 38.921875 48.1875 33.109375 48.1875 
Q 26.21875 48.1875 22.15625 43.53125 
Q 18.109375 38.875 18.109375 30.90625 
L 18.109375 0 
L 9.078125 0 
L 9.078125 54.6875 
L 18.109375 54.6875 
L 18.109375 46.1875 
Q 21.1875 51.21875 25.484375 53.609375 
Q 29.78125 56 35.6875 56 
Q 41.65625 56 45.828125 52.96875 
Q 50 49.953125 52 44.1875 
" id="DejaVuSans-6d"/>
      <path d="M 44.28125 53.078125 
L 44.28125 44.578125 
Q 40.484375 46.53125 36.375 47.5 
Q 32.28125 48.484375 27.875 48.484375 
Q 21.1875 48.484375 17.84375 46.4375 
Q 14.5 44.390625 14.5 40.28125 
Q 14.5 37.15625 16.890625 35.375 
Q 19.28125 33.59375 26.515625 31.984375 
L 29.59375 31.296875 
Q 39.15625 29.25 43.1875 25.515625 
Q 47.21875 21.78125 47.21875 15.09375 
Q 47.21875 7.46875 41.1875 3.015625 
Q 35.15625 -1.421875 24.609375 -1.421875 
Q 20.21875 -1.421875 15.453125 -0.5625 
Q 10.6875 0.296875 5.421875 2 
L 5.421875 11.28125 
Q 10.40625 8.6875 15.234375 7.390625 
Q 20.0625 6.109375 24.8125 6.109375 
Q 31.15625 6.109375 34.5625 8.28125 
Q 37.984375 10.453125 37.984375 14.40625 
Q 37.984375 18.0625 35.515625 20.015625 
Q 33.0625 21.96875 24.703125 23.78125 
L 21.578125 24.515625 
Q 13.234375 26.265625 9.515625 29.90625 
Q 5.8125 33.546875 5.8125 39.890625 
Q 5.8125 47.609375 11.28125 51.796875 
Q 16.75 56 26.8125 56 
Q 31.78125 56 36.171875 55.265625 
Q 40.578125 54.546875 44.28125 53.078125 
" id="DejaVuSans-73"/>
     </defs>
     <g transform="translate(94.6 87.426688)scale(0.1 -0.1)">
      <use xlink:href="#DejaVuSans-41"/>
      <use x="68.408203" xlink:href="#DejaVuSans-6d"/>
      <use x="165.820312" xlink:href="#DejaVuSans-65"/>
      <use x="227.34375" xlink:href="#DejaVuSans-72"/>
      <use x="268.457031" xlink:href="#DejaVuSans-69"/>
      <use x="296.240234" xlink:href="#DejaVuSans-63"/>
      <use x="351.220703" xlink:href="#DejaVuSans-61"/>
      <use x="412.5" xlink:href="#DejaVuSans-73"/>
     </g>
    </g>
    <g id="patch_10">
     <path d="M 66.6 102.104813 
L 86.6 102.104813 
L 86.6 95.104813 
L 66.6 95.104813 
z
" style="fill:#2ca02c;stroke:#2ca02c;stroke-linejoin:miter;"/>
    </g>
    <g id="text_22">
     <!-- Asia -->
     <g transform="translate(94.6 102.104813)scale(0.1 -0.1)">
      <use xlink:href="#DejaVuSans-41"/>
      <use x="68.408203" xlink:href="#DejaVuSans-73"/>
      <use x="120.507812" xlink:href="#DejaVuSans-69"/>
      <use x="148.291016" xlink:href="#DejaVuSans-61"/>
     </g>
    </g>
    <g id="patch_11">
     <path d="M 66.6 116.782938 
L 86.6 116.782938 
L 86.6 109.782938 
L 66.6 109.782938 
z
" style="fill:#d62728;stroke:#d62728;stroke-linejoin:miter;"/>
    </g>
    <g id="text_23">
     <!-- Europe -->
     <defs>
      <path d="M 9.8125 72.90625 
L 55.90625 72.90625 
L 55.90625 64.59375 
L 19.671875 64.59375 
L 19.671875 43.015625 
L 54.390625 43.015625 
L 54.390625 34.71875 
L 19.671875 34.71875 
L 19.671875 8.296875 
L 56.78125 8.296875 
L 56.78125 0 
L 9.8125 0 
z
" id="DejaVuSans-45"/>
      <path d="M 18.109375 8.203125 
L 18.109375 -20.796875 
L 9.078125 -20.796875 
L 9.078125 54.6875 
L 18.109375 54.6875 
L 18.109375 46.390625 
Q 20.953125 51.265625 25.265625 53.625 
Q 29.59375 56 35.59375 56 
Q 45.5625 56 51.78125 48.09375 
Q 58.015625 40.1875 58.015625 27.296875 
Q 58.015625 14.40625 51.78125 6.484375 
Q 45.5625 -1.421875 35.59375 -1.421875 
Q 29.59375 -1.421875 25.265625 0.953125 
Q 20.953125 3.328125 18.109375 8.203125 
M 48.6875 27.296875 
Q 48.6875 37.203125 44.609375 42.84375 
Q 40.53125 48.484375 33.40625 48.484375 
Q 26.265625 48.484375 22.1875 42.84375 
Q 18.109375 37.203125 18.109375 27.296875 
Q 18.109375 17.390625 22.1875 11.75 
Q 26.265625 6.109375 33.40625 6.109375 
Q 40.53125 6.109375 44.609375 11.75 
Q 48.6875 17.390625 48.6875 27.296875 
" id="DejaVuSans-70"/>
     </defs>
     <g transform="translate(94.6 116.782938)scale(0.1 -0.1)">
      <use xlink:href="#DejaVuSans-45"/>
      <use x="63.183594" xlink:href="#DejaVuSans-75"/>
      <use x="126.5625" xlink:href="#DejaVuSans-72"/>
      <use x="167.644531" xlink:href="#DejaVuSans-6f"/>
      <use x="228.826172" xlink:href="#DejaVuSans-70"/>
      <use x="292.302734" xlink:href="#DejaVuSans-65"/>
     </g>
    </g>
    <g id="patch_12">
     <path d="M 66.6 131.461063 
L 86.6 131.461063 
L 86.6 124.461063 
L 66.6 124.461063 
z
" style="fill:#9467bd;stroke:#9467bd;stroke-linejoin:miter;"/>
    </g>
    <g id="text_24">
     <!-- Oceania -->
     <defs>
      <path d="M 39.40625 66.21875 
Q 28.65625 66.21875 22.328125 58.203125 
Q 16.015625 50.203125 16.015625 36.375 
Q 16.015625 22.609375 22.328125 14.59375 
Q 28.65625 6.59375 39.40625 6.59375 
Q 50.140625 6.59375 56.421875 14.59375 
Q 62.703125 22.609375 62.703125 36.375 
Q 62.703125 50.203125 56.421875 58.203125 
Q 50.140625 66.21875 39.40625 66.21875 
M 39.40625 74.21875 
Q 54.734375 74.21875 63.90625 63.9375 
Q 73.09375 53.65625 73.09375 36.375 
Q 73.09375 19.140625 63.90625 8.859375 
Q 54.734375 -1.421875 39.40625 -1.421875 
Q 24.03125 -1.421875 14.8125 8.828125 
Q 5.609375 19.09375 5.609375 36.375 
Q 5.609375 53.65625 14.8125 63.9375 
Q 24.03125 74.21875 39.40625 74.21875 
" id="DejaVuSans-4f"/>
     </defs>
     <g transform="translate(94.6 131.461063)scale(0.1 -0.1)">
      <use xlink:href="#DejaVuSans-4f"/>
      <use x="78.710938" xlink:href="#DejaVuSans-63"/>
      <use x="133.691406" xlink:href="#DejaVuSans-65"/>
      <use x="195.214844" xlink:href="#DejaVuSans-61"/>
      <use x="256.494141" xlink:href="#DejaVuSans-6e"/>
      <use x="319.873047" xlink:href="#DejaVuSans-69"/>
      <use x="347.65625" xlink:href="#DejaVuSans-61"/>
     </g>
    </g>
   </g>
  </g>
 </g>
 <defs>
  <clipPath id="pbd77028db8">
   <rect height="266.112" width="357.12" x="57.6" y="41.472"/>
  </clipPath>
 </defs>
</svg>
