<?xml version="1.0" encoding="utf-8" standalone="no"?>
<!DOCTYPE svg PUBLIC "-//W3C//DTD SVG 1.1//EN"
  "http://www.w3.org/Graphics/SVG/1.1/DTD/svg11.dtd">
<!-- Created with matplotlib (http://matplotlib.org/) -->
<svg height="345pt" version="1.1" viewBox="0 0 460 345" width="460pt" xmlns="http://www.w3.org/2000/svg" xmlns:xlink="http://www.w3.org/1999/xlink">
 <defs>
  <style type="text/css">
*{stroke-linecap:butt;stroke-linejoin:round;}
  </style>
 </defs>
 <g id="figure_1">
  <g id="patch_1">
   <path d="M 0 345.6 
L 460.8 345.6 
L 460.8 0 
L 0 0 
z
" style="fill:#ffffff;"/>
  </g>
  <g id="axes_1">
   <g id="patch_2">
    <path d="M 57.6 307.584 
L 414.72 307.584 
L 414.72 41.472 
L 57.6 41.472 
z
" style="fill:#ffffff;"/>
   </g>
   <g id="PathCollection_1">
    <path clip-path="url(#pc9ecdd4bba)" d="M 192.931752 173.674286 
C 195.282053 173.674286 197.536409 172.740502 199.198323 171.078588 
C 200.860237 169.416674 201.794021 167.162319 201.794021 164.812017 
C 201.794021 162.461716 200.860237 160.207361 199.198323 158.545447 
C 197.536409 156.883533 195.282053 155.949748 192.931752 155.949748 
C 190.581451 155.949748 188.327095 156.883533 186.665182 158.545447 
C 185.003268 160.207361 184.069483 162.461716 184.069483 164.812017 
C 184.069483 167.162319 185.003268 169.416674 186.665182 171.078588 
C 188.327095 172.740502 190.581451 173.674286 192.931752 173.674286 
z
" style="fill:#31688e;fill-opacity:0.75;stroke:#31688e;stroke-opacity:0.75;"/>
    <path clip-path="url(#pc9ecdd4bba)" d="M 174.030572 183.263912 
C 177.556024 183.263912 180.937557 181.863236 183.430428 179.370365 
C 185.923299 176.877494 187.323976 173.495961 187.323976 169.970509 
C 187.323976 166.445057 185.923299 163.063524 183.430428 160.570653 
C 180.937557 158.077782 177.556024 156.677105 174.030572 156.677105 
C 170.50512 156.677105 167.123587 158.077782 164.630716 160.570653 
C 162.137845 163.063524 160.737168 166.445057 160.737168 169.970509 
C 160.737168 173.495961 162.137845 176.877494 164.630716 179.370365 
C 167.123587 181.863236 170.50512 183.263912 174.030572 183.263912 
z
" style="fill:#fde725;fill-opacity:0.75;stroke:#fde725;stroke-opacity:0.75;"/>
    <path clip-path="url(#pc9ecdd4bba)" d="M 96.589305 151.365089 
C 97.764456 151.365089 98.891634 150.898196 99.722591 150.067239 
C 100.553548 149.236282 101.02044 148.109105 101.02044 146.933954 
C 101.02044 145.758803 100.553548 144.631626 99.722591 143.800669 
C 98.891634 142.969712 97.764456 142.502819 96.589305 142.502819 
C 95.414155 142.502819 94.286977 142.969712 93.45602 143.800669 
C 92.625063 144.631626 92.158171 145.758803 92.158171 146.933954 
C 92.158171 148.109105 92.625063 149.236282 93.45602 150.067239 
C 94.286977 150.898196 95.414155 151.365089 96.589305 151.365089 
z
" style="fill:#fde725;fill-opacity:0.75;stroke:#fde725;stroke-opacity:0.75;"/>
    <path clip-path="url(#pc9ecdd4bba)" d="M 280.143485 163.010364 
C 281.788696 163.010364 283.366745 162.356715 284.530085 161.193375 
C 285.693425 160.030035 286.347074 158.451986 286.347074 156.806776 
C 286.347074 155.161565 285.693425 153.583516 284.530085 152.420176 
C 283.366745 151.256836 281.788696 150.603187 280.143485 150.603187 
C 278.498274 150.603187 276.920226 151.256836 275.756886 152.420176 
C 274.593546 153.583516 273.939897 155.161565 273.939897 156.806776 
C 273.939897 158.451986 274.593546 160.030035 275.756886 161.193375 
C 276.920226 162.356715 278.498274 163.010364 280.143485 163.010364 
z
" style="fill:#31688e;fill-opacity:0.75;stroke:#31688e;stroke-opacity:0.75;"/>
    <path clip-path="url(#pc9ecdd4bba)" d="M 189.315357 157.984701 
C 190.960568 157.984701 192.538617 157.331051 193.701957 156.167712 
C 194.865297 155.004372 195.518946 153.426323 195.518946 151.781112 
C 195.518946 150.135901 194.865297 148.557853 193.701957 147.394513 
C 192.538617 146.231173 190.960568 145.577524 189.315357 145.577524 
C 187.670146 145.577524 186.092098 146.231173 184.928758 147.394513 
C 183.765418 148.557853 183.111769 150.135901 183.111769 151.781112 
C 183.111769 153.426323 183.765418 155.004372 184.928758 156.167712 
C 186.092098 157.331051 187.670146 157.984701 189.315357 157.984701 
z
" style="fill:#440154;fill-opacity:0.75;stroke:#440154;stroke-opacity:0.75;"/>
    <path clip-path="url(#pc9ecdd4bba)" d="M 211.656475 137.725657 
C 212.831626 137.725657 213.958804 137.258765 214.789761 136.427808 
C 215.620718 135.596851 216.08761 134.469673 216.08761 133.294522 
C 216.08761 132.119372 215.620718 130.992194 214.789761 130.161237 
C 213.958804 129.33028 212.831626 128.863388 211.656475 128.863388 
C 210.481325 128.863388 209.354147 129.33028 208.52319 130.161237 
C 207.692233 130.992194 207.225341 132.119372 207.225341 133.294522 
C 207.225341 134.469673 207.692233 135.596851 208.52319 136.427808 
C 209.354147 137.258765 210.481325 137.725657 211.656475 137.725657 
z
" style="fill:#35b779;fill-opacity:0.75;stroke:#35b779;stroke-opacity:0.75;"/>
    <path clip-path="url(#pc9ecdd4bba)" d="M 305.166847 196.767702 
C 307.752178 196.767702 310.231969 195.740539 312.060075 193.912433 
C 313.88818 192.084328 314.915343 189.604537 314.915343 187.019206 
C 314.915343 184.433874 313.88818 181.954083 312.060075 180.125978 
C 310.231969 178.297873 307.752178 177.27071 305.166847 177.27071 
C 302.581516 177.27071 300.101725 178.297873 298.273619 180.125978 
C 296.445514 181.954083 295.418351 184.433874 295.418351 187.019206 
C 295.418351 189.604537 296.445514 192.084328 298.273619 193.912433 
C 300.101725 195.740539 302.581516 196.767702 305.166847 196.767702 
z
" style="fill:#31688e;fill-opacity:0.75;stroke:#31688e;stroke-opacity:0.75;"/>
    <path clip-path="url(#pc9ecdd4bba)" d="M 186.210981 236.921705 
C 188.561282 236.921705 190.815638 235.98792 192.477552 234.326006 
C 194.139466 232.664092 195.07325 230.409737 195.07325 228.059435 
C 195.07325 225.709134 194.139466 223.454779 192.477552 221.792865 
C 190.815638 220.130951 188.561282 219.197166 186.210981 219.197166 
C 183.86068 219.197166 181.606324 220.130951 179.94441 221.792865 
C 178.282496 223.454779 177.348712 225.709134 177.348712 228.059435 
C 177.348712 230.409737 178.282496 232.664092 179.94441 234.326006 
C 181.606324 235.98792 183.86068 236.921705 186.210981 236.921705 
z
" style="fill:#31688e;fill-opacity:0.75;stroke:#31688e;stroke-opacity:0.75;"/>
    <path clip-path="url(#pc9ecdd4bba)" d="M 182.721901 162.125941 
C 186.012323 162.125941 189.168421 160.818643 191.4951 158.491963 
C 193.82178 156.165284 195.129078 153.009186 195.129078 149.718764 
C 195.129078 146.428343 193.82178 143.272245 191.4951 140.945565 
C 189.168421 138.618886 186.012323 137.311587 182.721901 137.311587 
C 179.43148 137.311587 176.275382 138.618886 173.948702 140.945565 
C 171.622023 143.272245 170.314724 146.428343 170.314724 149.718764 
C 170.314724 153.009186 171.622023 156.165284 173.948702 158.491963 
C 176.275382 160.818643 179.43148 162.125941 182.721901 162.125941 
z
" style="fill:#440154;fill-opacity:0.75;stroke:#440154;stroke-opacity:0.75;"/>
    <path clip-path="url(#pc9ecdd4bba)" d="M 278.386762 149.919474 
C 279.561913 149.919474 280.689091 149.452582 281.520048 148.621625 
C 282.351005 147.790668 282.817897 146.66349 282.817897 145.488339 
C 282.817897 144.313189 282.351005 143.186011 281.520048 142.355054 
C 280.689091 141.524097 279.561913 141.057205 278.386762 141.057205 
C 277.211612 141.057205 276.084434 141.524097 275.253477 142.355054 
C 274.42252 143.186011 273.955628 144.313189 273.955628 145.488339 
C 273.955628 146.66349 274.42252 147.790668 275.253477 148.621625 
C 276.084434 149.452582 277.211612 149.919474 278.386762 149.919474 
z
" style="fill:#440154;fill-opacity:0.75;stroke:#440154;stroke-opacity:0.75;"/>
    <path clip-path="url(#pc9ecdd4bba)" d="M 310.923507 118.039235 
C 312.568718 118.039235 314.146766 117.385586 315.310106 116.222246 
C 316.473446 115.058906 317.127095 113.480857 317.127095 111.835646 
C 317.127095 110.190435 316.473446 108.612387 315.310106 107.449047 
C 314.146766 106.285707 312.568718 105.632058 310.923507 105.632058 
C 309.278296 105.632058 307.700247 106.285707 306.536907 107.449047 
C 305.373567 108.612387 304.719918 110.190435 304.719918 111.835646 
C 304.719918 113.480857 305.373567 115.058906 306.536907 116.222246 
C 307.700247 117.385586 309.278296 118.039235 310.923507 118.039235 
z
" style="fill:#440154;fill-opacity:0.75;stroke:#440154;stroke-opacity:0.75;"/>
    <path clip-path="url(#pc9ecdd4bba)" d="M 84.599269 235.732382 
C 87.1846 235.732382 89.664391 234.705219 91.492497 232.877114 
C 93.320602 231.049009 94.347765 228.569218 94.347765 225.983886 
C 94.347765 223.398555 93.320602 220.918764 91.492497 219.090658 
C 89.664391 217.262553 87.1846 216.23539 84.599269 216.23539 
C 82.013937 216.23539 79.534146 217.262553 77.706041 219.090658 
C 75.877936 220.918764 74.850773 223.398555 74.850773 225.983886 
C 74.850773 228.569218 75.877936 231.049009 77.706041 232.877114 
C 79.534146 234.705219 82.013937 235.732382 84.599269 235.732382 
z
" style="fill:#440154;fill-opacity:0.75;stroke:#440154;stroke-opacity:0.75;"/>
    <path clip-path="url(#pc9ecdd4bba)" d="M 232.035456 123.280158 
C 235.560908 123.280158 238.942441 121.879481 241.435312 119.38661 
C 243.928183 116.89374 245.328859 113.512206 245.328859 109.986754 
C 245.328859 106.461303 243.928183 103.079769 241.435312 100.586898 
C 238.942441 98.094027 235.560908 96.693351 232.035456 96.693351 
C 228.510004 96.693351 225.128471 98.094027 222.6356 100.586898 
C 220.142729 103.079769 218.742052 106.461303 218.742052 109.986754 
C 218.742052 113.512206 220.142729 116.89374 222.6356 119.38661 
C 225.128471 121.879481 228.510004 123.280158 232.035456 123.280158 
z
" style="fill:#35b779;fill-opacity:0.75;stroke:#35b779;stroke-opacity:0.75;"/>
    <path clip-path="url(#pc9ecdd4bba)" d="M 262.820945 160.676936 
C 266.346397 160.676936 269.72793 159.276259 272.220801 156.783388 
C 274.713672 154.290517 276.114349 150.908984 276.114349 147.383532 
C 276.114349 143.85808 274.713672 140.476547 272.220801 137.983676 
C 269.72793 135.490805 266.346397 134.090128 262.820945 134.090128 
C 259.295493 134.090128 255.91396 135.490805 253.421089 137.983676 
C 250.928218 140.476547 249.527541 143.85808 249.527541 147.383532 
C 249.527541 150.908984 250.928218 154.290517 253.421089 156.783388 
C 255.91396 159.276259 259.295493 160.676936 262.820945 160.676936 
z
" style="fill:#31688e;fill-opacity:0.75;stroke:#31688e;stroke-opacity:0.75;"/>
    <path clip-path="url(#pc9ecdd4bba)" d="M 179.946573 130.774528 
C 181.121723 130.774528 182.248901 130.307636 183.079858 129.476679 
C 183.910815 128.645722 184.377707 127.518544 184.377707 126.343393 
C 184.377707 125.168243 183.910815 124.041065 183.079858 123.210108 
C 182.248901 122.379151 181.121723 121.912259 179.946573 121.912259 
C 178.771422 121.912259 177.644244 122.379151 176.813287 123.210108 
C 175.98233 124.041065 175.515438 125.168243 175.515438 126.343393 
C 175.515438 127.518544 175.98233 128.645722 176.813287 129.476679 
C 177.644244 130.307636 178.771422 130.774528 179.946573 130.774528 
z
" style="fill:#fde725;fill-opacity:0.75;stroke:#fde725;stroke-opacity:0.75;"/>
    <path clip-path="url(#pc9ecdd4bba)" d="M 162.101119 227.569652 
C 164.92148 227.569652 167.626707 226.449111 169.621004 224.454814 
C 171.6153 222.460517 172.735842 219.755291 172.735842 216.934929 
C 172.735842 214.114568 171.6153 211.409341 169.621004 209.415044 
C 167.626707 207.420748 164.92148 206.300206 162.101119 206.300206 
C 159.280757 206.300206 156.575531 207.420748 154.581234 209.415044 
C 152.586937 211.409341 151.466396 214.114568 151.466396 216.934929 
C 151.466396 219.755291 152.586937 222.460517 154.581234 224.454814 
C 156.575531 226.449111 159.280757 227.569652 162.101119 227.569652 
z
" style="fill:#35b779;fill-opacity:0.75;stroke:#35b779;stroke-opacity:0.75;"/>
    <path clip-path="url(#pc9ecdd4bba)" d="M 369.673216 166.100451 
C 371.788487 166.100451 373.817407 165.260045 375.313129 163.764323 
C 376.808852 162.2686 377.649258 160.23968 377.649258 158.124409 
C 377.649258 156.009138 376.808852 153.980218 375.313129 152.484496 
C 373.817407 150.988773 371.788487 150.148367 369.673216 150.148367 
C 367.557944 150.148367 365.529025 150.988773 364.033302 152.484496 
C 362.537579 153.980218 361.697173 156.009138 361.697173 158.124409 
C 361.697173 160.23968 362.537579 162.2686 364.033302 163.764323 
C 365.529025 165.260045 367.557944 166.100451 369.673216 166.100451 
z
" style="fill:#31688e;fill-opacity:0.75;stroke:#31688e;stroke-opacity:0.75;"/>
    <path clip-path="url(#pc9ecdd4bba)" d="M 163.73234 146.079513 
C 165.377551 146.079513 166.9556 145.425864 168.11894 144.262524 
C 169.282279 143.099184 169.935929 141.521135 169.935929 139.875925 
C 169.935929 138.230714 169.282279 136.652665 168.11894 135.489325 
C 166.9556 134.325985 165.377551 133.672336 163.73234 133.672336 
C 162.087129 133.672336 160.50908 134.325985 159.345741 135.489325 
C 158.182401 136.652665 157.528752 138.230714 157.528752 139.875925 
C 157.528752 141.521135 158.182401 143.099184 159.345741 144.262524 
C 160.50908 145.425864 162.087129 146.079513 163.73234 146.079513 
z
" style="fill:#31688e;fill-opacity:0.75;stroke:#31688e;stroke-opacity:0.75;"/>
    <path clip-path="url(#pc9ecdd4bba)" d="M 172.523507 148.344384 
C 175.813929 148.344384 178.970026 147.037086 181.296706 144.710406 
C 183.623385 142.383727 184.930684 139.227629 184.930684 135.937207 
C 184.930684 132.646786 183.623385 129.490688 181.296706 127.164009 
C 178.970026 124.837329 175.813929 123.530031 172.523507 123.530031 
C 169.233085 123.530031 166.076987 124.837329 163.750308 127.164009 
C 161.423628 129.490688 160.11633 132.646786 160.11633 135.937207 
C 160.11633 139.227629 161.423628 142.383727 163.750308 144.710406 
C 166.076987 147.037086 169.233085 148.344384 172.523507 148.344384 
z
" style="fill:#440154;fill-opacity:0.75;stroke:#440154;stroke-opacity:0.75;"/>
    <path clip-path="url(#pc9ecdd4bba)" d="M 348.428131 188.224089 
C 350.778432 188.224089 353.032787 187.290305 354.694701 185.628391 
C 356.356615 183.966477 357.2904 181.712121 357.2904 179.36182 
C 357.2904 177.011519 356.356615 174.757163 354.694701 173.095249 
C 353.032787 171.433335 350.778432 170.499551 348.428131 170.499551 
C 346.077829 170.499551 343.823474 171.433335 342.16156 173.095249 
C 340.499646 174.757163 339.565861 177.011519 339.565861 179.36182 
C 339.565861 181.712121 340.499646 183.966477 342.16156 185.628391 
C 343.823474 187.290305 346.077829 188.224089 348.428131 188.224089 
z
" style="fill:#440154;fill-opacity:0.75;stroke:#440154;stroke-opacity:0.75;"/>
    <path clip-path="url(#pc9ecdd4bba)" d="M 153.423345 225.795732 
C 154.598496 225.795732 155.725673 225.32884 156.55663 224.497883 
C 157.387587 223.666926 157.85448 222.539748 157.85448 221.364597 
C 157.85448 220.189447 157.387587 219.062269 156.55663 218.231312 
C 155.725673 217.400355 154.598496 216.933463 153.423345 216.933463 
C 152.248194 216.933463 151.121017 217.400355 150.29006 218.231312 
C 149.459103 219.062269 148.99221 220.189447 148.99221 221.364597 
C 148.99221 222.539748 149.459103 223.666926 150.29006 224.497883 
C 151.121017 225.32884 152.248194 225.795732 153.423345 225.795732 
z
" style="fill:#31688e;fill-opacity:0.75;stroke:#31688e;stroke-opacity:0.75;"/>
    <path clip-path="url(#pc9ecdd4bba)" d="M 141.47554 199.828752 
C 142.88572 199.828752 144.238334 199.268481 145.235482 198.271333 
C 146.23263 197.274184 146.792901 195.921571 146.792901 194.51139 
C 146.792901 193.101209 146.23263 191.748596 145.235482 190.751448 
C 144.238334 189.754299 142.88572 189.194029 141.47554 189.194029 
C 140.065359 189.194029 138.712746 189.754299 137.715597 190.751448 
C 136.718449 191.748596 136.158178 193.101209 136.158178 194.51139 
C 136.158178 195.921571 136.718449 197.274184 137.715597 198.271333 
C 138.712746 199.268481 140.065359 199.828752 141.47554 199.828752 
z
" style="fill:#35b779;fill-opacity:0.75;stroke:#35b779;stroke-opacity:0.75;"/>
    <path clip-path="url(#pc9ecdd4bba)" d="M 272.647823 203.498318 
C 275.233154 203.498318 277.712945 202.471155 279.54105 200.64305 
C 281.369156 198.814945 282.396319 196.335154 282.396319 193.749822 
C 282.396319 191.164491 281.369156 188.6847 279.54105 186.856594 
C 277.712945 185.028489 275.233154 184.001326 272.647823 184.001326 
C 270.062491 184.001326 267.5827 185.028489 265.754595 186.856594 
C 263.92649 188.6847 262.899326 191.164491 262.899326 193.749822 
C 262.899326 196.335154 263.92649 198.814945 265.754595 200.64305 
C 267.5827 202.471155 270.062491 203.498318 272.647823 203.498318 
z
" style="fill:#31688e;fill-opacity:0.75;stroke:#31688e;stroke-opacity:0.75;"/>
    <path clip-path="url(#pc9ecdd4bba)" d="M 275.214437 183.228503 
C 278.034799 183.228503 280.740025 182.107961 282.734322 180.113664 
C 284.728619 178.119368 285.849161 175.414141 285.849161 172.59378 
C 285.849161 169.773418 284.728619 167.068192 282.734322 165.073895 
C 280.740025 163.079598 278.034799 161.959056 275.214437 161.959056 
C 272.394076 161.959056 269.688849 163.079598 267.694553 165.073895 
C 265.700256 167.068192 264.579714 169.773418 264.579714 172.59378 
C 264.579714 175.414141 265.700256 178.119368 267.694553 180.113664 
C 269.688849 182.107961 272.394076 183.228503 275.214437 183.228503 
z
" style="fill:#fde725;fill-opacity:0.75;stroke:#fde725;stroke-opacity:0.75;"/>
    <path clip-path="url(#pc9ecdd4bba)" d="M 202.124504 173.913349 
C 203.769715 173.913349 205.347764 173.2597 206.511103 172.09636 
C 207.674443 170.93302 208.328092 169.354971 208.328092 167.70976 
C 208.328092 166.064549 207.674443 164.486501 206.511103 163.323161 
C 205.347764 162.159821 203.769715 161.506172 202.124504 161.506172 
C 200.479293 161.506172 198.901244 162.159821 197.737904 163.323161 
C 196.574565 164.486501 195.920915 166.064549 195.920915 167.70976 
C 195.920915 169.354971 196.574565 170.93302 197.737904 172.09636 
C 198.901244 173.2597 200.479293 173.913349 202.124504 173.913349 
z
" style="fill:#440154;fill-opacity:0.75;stroke:#440154;stroke-opacity:0.75;"/>
    <path clip-path="url(#pc9ecdd4bba)" d="M 294.501137 166.58329 
C 296.381378 166.58329 298.184863 165.836262 299.514394 164.506731 
C 300.843925 163.1772 301.590953 161.373716 301.590953 159.493475 
C 301.590953 157.613234 300.843925 155.809749 299.514394 154.480218 
C 298.184863 153.150687 296.381378 152.403659 294.501137 152.403659 
C 292.620896 152.403659 290.817412 153.150687 289.487881 154.480218 
C 288.15835 155.809749 287.411322 157.613234 287.411322 159.493475 
C 287.411322 161.373716 288.15835 163.1772 289.487881 164.506731 
C 290.817412 165.836262 292.620896 166.58329 294.501137 166.58329 
z
" style="fill:#31688e;fill-opacity:0.75;stroke:#31688e;stroke-opacity:0.75;"/>
    <path clip-path="url(#pc9ecdd4bba)" d="M 165.316714 160.175526 
C 168.372106 160.175526 171.302768 158.961606 173.463256 156.801118 
C 175.623744 154.64063 176.837664 151.709968 176.837664 148.654576 
C 176.837664 145.599185 175.623744 142.668523 173.463256 140.508034 
C 171.302768 138.347546 168.372106 137.133626 165.316714 137.133626 
C 162.261322 137.133626 159.33066 138.347546 157.170172 140.508034 
C 155.009684 142.668523 153.795764 145.599185 153.795764 148.654576 
C 153.795764 151.709968 155.009684 154.64063 157.170172 156.801118 
C 159.33066 158.961606 162.261322 160.175526 165.316714 160.175526 
z
" style="fill:#35b779;fill-opacity:0.75;stroke:#35b779;stroke-opacity:0.75;"/>
    <path clip-path="url(#pc9ecdd4bba)" d="M 195.931737 162.862163 
C 197.576948 162.862163 199.154997 162.208514 200.318337 161.045174 
C 201.481677 159.881834 202.135326 158.303785 202.135326 156.658574 
C 202.135326 155.013364 201.481677 153.435315 200.318337 152.271975 
C 199.154997 151.108635 197.576948 150.454986 195.931737 150.454986 
C 194.286526 150.454986 192.708478 151.108635 191.545138 152.271975 
C 190.381798 153.435315 189.728149 155.013364 189.728149 156.658574 
C 189.728149 158.303785 190.381798 159.881834 191.545138 161.045174 
C 192.708478 162.208514 194.286526 162.862163 195.931737 162.862163 
z
" style="fill:#35b779;fill-opacity:0.75;stroke:#35b779;stroke-opacity:0.75;"/>
    <path clip-path="url(#pc9ecdd4bba)" d="M 306.696021 166.593646 
C 307.871172 166.593646 308.998349 166.126754 309.829306 165.295797 
C 310.660263 164.46484 311.127156 163.337662 311.127156 162.162511 
C 311.127156 160.987361 310.660263 159.860183 309.829306 159.029226 
C 308.998349 158.198269 307.871172 157.731377 306.696021 157.731377 
C 305.52087 157.731377 304.393693 158.198269 303.562736 159.029226 
C 302.731779 159.860183 302.264886 160.987361 302.264886 162.162511 
C 302.264886 163.337662 302.731779 164.46484 303.562736 165.295797 
C 304.393693 166.126754 305.52087 166.593646 306.696021 166.593646 
z
" style="fill:#fde725;fill-opacity:0.75;stroke:#fde725;stroke-opacity:0.75;"/>
    <path clip-path="url(#pc9ecdd4bba)" d="M 213.346399 140.826651 
C 214.75658 140.826651 216.109193 140.26638 217.106342 139.269232 
C 218.10349 138.272084 218.663761 136.91947 218.663761 135.50929 
C 218.663761 134.099109 218.10349 132.746495 217.106342 131.749347 
C 216.109193 130.752199 214.75658 130.191928 213.346399 130.191928 
C 211.936219 130.191928 210.583605 130.752199 209.586457 131.749347 
C 208.589309 132.746495 208.029038 134.099109 208.029038 135.50929 
C 208.029038 136.91947 208.589309 138.272084 209.586457 139.269232 
C 210.583605 140.26638 211.936219 140.826651 213.346399 140.826651 
z
" style="fill:#31688e;fill-opacity:0.75;stroke:#31688e;stroke-opacity:0.75;"/>
    <path clip-path="url(#pc9ecdd4bba)" d="M 348.361733 129.464545 
C 350.477004 129.464545 352.505924 128.624139 354.001647 127.128416 
C 355.497369 125.632693 356.337776 123.603774 356.337776 121.488502 
C 356.337776 119.373231 355.497369 117.344311 354.001647 115.848589 
C 352.505924 114.352866 350.477004 113.51246 348.361733 113.51246 
C 346.246462 113.51246 344.217542 114.352866 342.72182 115.848589 
C 341.226097 117.344311 340.385691 119.373231 340.385691 121.488502 
C 340.385691 123.603774 341.226097 125.632693 342.72182 127.128416 
C 344.217542 128.624139 346.246462 129.464545 348.361733 129.464545 
z
" style="fill:#fde725;fill-opacity:0.75;stroke:#fde725;stroke-opacity:0.75;"/>
    <path clip-path="url(#pc9ecdd4bba)" d="M 369.130191 199.921939 
C 372.420613 199.921939 375.57671 198.614641 377.90339 196.287961 
C 380.230069 193.961282 381.537368 190.805184 381.537368 187.514762 
C 381.537368 184.224341 380.230069 181.068243 377.90339 178.741563 
C 375.57671 176.414884 372.420613 175.107585 369.130191 175.107585 
C 365.839769 175.107585 362.683672 176.414884 360.356992 178.741563 
C 358.030312 181.068243 356.723014 184.224341 356.723014 187.514762 
C 356.723014 190.805184 358.030312 193.961282 360.356992 196.287961 
C 362.683672 198.614641 365.839769 199.921939 369.130191 199.921939 
z
" style="fill:#31688e;fill-opacity:0.75;stroke:#31688e;stroke-opacity:0.75;"/>
    <path clip-path="url(#pc9ecdd4bba)" d="M 325.125407 148.297586 
C 326.535587 148.297586 327.888201 147.737315 328.885349 146.740167 
C 329.882498 145.743019 330.442768 144.390405 330.442768 142.980225 
C 330.442768 141.570044 329.882498 140.21743 328.885349 139.220282 
C 327.888201 138.223134 326.535587 137.662863 325.125407 137.662863 
C 323.715226 137.662863 322.362613 138.223134 321.365464 139.220282 
C 320.368316 140.21743 319.808045 141.570044 319.808045 142.980225 
C 319.808045 144.390405 320.368316 145.743019 321.365464 146.740167 
C 322.362613 147.737315 323.715226 148.297586 325.125407 148.297586 
z
" style="fill:#fde725;fill-opacity:0.75;stroke:#fde725;stroke-opacity:0.75;"/>
    <path clip-path="url(#pc9ecdd4bba)" d="M 321.505089 124.638093 
C 324.560481 124.638093 327.491143 123.424173 329.651631 121.263684 
C 331.812119 119.103196 333.026039 116.172534 333.026039 113.117142 
C 333.026039 110.061751 331.812119 107.131089 329.651631 104.970601 
C 327.491143 102.810112 324.560481 101.596192 321.505089 101.596192 
C 318.449698 101.596192 315.519035 102.810112 313.358547 104.970601 
C 311.198059 107.131089 309.984139 110.061751 309.984139 113.117142 
C 309.984139 116.172534 311.198059 119.103196 313.358547 121.263684 
C 315.519035 123.424173 318.449698 124.638093 321.505089 124.638093 
z
" style="fill:#fde725;fill-opacity:0.75;stroke:#fde725;stroke-opacity:0.75;"/>
    <path clip-path="url(#pc9ecdd4bba)" d="M 117.979869 182.763037 
C 121.035261 182.763037 123.965923 181.549117 126.126411 179.388628 
C 128.286899 177.22814 129.500819 174.297478 129.500819 171.242087 
C 129.500819 168.186695 128.286899 165.256033 126.126411 163.095545 
C 123.965923 160.935056 121.035261 159.721136 117.979869 159.721136 
C 114.924477 159.721136 111.993815 160.935056 109.833327 163.095545 
C 107.672839 165.256033 106.458919 168.186695 106.458919 171.242087 
C 106.458919 174.297478 107.672839 177.22814 109.833327 179.388628 
C 111.993815 181.549117 114.924477 182.763037 117.979869 182.763037 
z
" style="fill:#fde725;fill-opacity:0.75;stroke:#fde725;stroke-opacity:0.75;"/>
    <path clip-path="url(#pc9ecdd4bba)" d="M 188.582485 136.60926 
C 191.637877 136.60926 194.568539 135.39534 196.729027 133.234852 
C 198.889515 131.074363 200.103435 128.143701 200.103435 125.08831 
C 200.103435 122.032918 198.889515 119.102256 196.729027 116.941768 
C 194.568539 114.78128 191.637877 113.56736 188.582485 113.56736 
C 185.527093 113.56736 182.596431 114.78128 180.435943 116.941768 
C 178.275455 119.102256 177.061535 122.032918 177.061535 125.08831 
C 177.061535 128.143701 178.275455 131.074363 180.435943 133.234852 
C 182.596431 135.39534 185.527093 136.60926 188.582485 136.60926 
z
" style="fill:#440154;fill-opacity:0.75;stroke:#440154;stroke-opacity:0.75;"/>
    <path clip-path="url(#pc9ecdd4bba)" d="M 185.922354 187.291572 
C 187.802595 187.291572 189.606079 186.544544 190.93561 185.215013 
C 192.265141 183.885482 193.012169 182.081998 193.012169 180.201757 
C 193.012169 178.321516 192.265141 176.518031 190.93561 175.1885 
C 189.606079 173.858969 187.802595 173.111941 185.922354 173.111941 
C 184.042113 173.111941 182.238628 173.858969 180.909097 175.1885 
C 179.579566 176.518031 178.832538 178.321516 178.832538 180.201757 
C 178.832538 182.081998 179.579566 183.885482 180.909097 185.215013 
C 182.238628 186.544544 184.042113 187.291572 185.922354 187.291572 
z
" style="fill:#31688e;fill-opacity:0.75;stroke:#31688e;stroke-opacity:0.75;"/>
    <path clip-path="url(#pc9ecdd4bba)" d="M 230.746471 156.498237 
C 231.921622 156.498237 233.0488 156.031345 233.879757 155.200388 
C 234.710714 154.369431 235.177606 153.242253 235.177606 152.067103 
C 235.177606 150.891952 234.710714 149.764774 233.879757 148.933817 
C 233.0488 148.10286 231.921622 147.635968 230.746471 147.635968 
C 229.571321 147.635968 228.444143 148.10286 227.613186 148.933817 
C 226.782229 149.764774 226.315337 150.891952 226.315337 152.067103 
C 226.315337 153.242253 226.782229 154.369431 227.613186 155.200388 
C 228.444143 156.031345 229.571321 156.498237 230.746471 156.498237 
z
" style="fill:#fde725;fill-opacity:0.75;stroke:#fde725;stroke-opacity:0.75;"/>
    <path clip-path="url(#pc9ecdd4bba)" d="M 219.800663 240.820059 
C 222.856054 240.820059 225.786717 239.606139 227.947205 237.445651 
C 230.107693 235.285163 231.321613 232.354501 231.321613 229.299109 
C 231.321613 226.243718 230.107693 223.313056 227.947205 221.152567 
C 225.786717 218.992079 222.856054 217.778159 219.800663 217.778159 
C 216.745271 217.778159 213.814609 218.992079 211.654121 221.152567 
C 209.493633 223.313056 208.279713 226.243718 208.279713 229.299109 
C 208.279713 232.354501 209.493633 235.285163 211.654121 237.445651 
C 213.814609 239.606139 216.745271 240.820059 219.800663 240.820059 
z
" style="fill:#fde725;fill-opacity:0.75;stroke:#fde725;stroke-opacity:0.75;"/>
    <path clip-path="url(#pc9ecdd4bba)" d="M 279.601197 187.374395 
C 280.776347 187.374395 281.903525 186.907503 282.734482 186.076546 
C 283.565439 185.245589 284.032331 184.118411 284.032331 182.943261 
C 284.032331 181.76811 283.565439 180.640932 282.734482 179.809975 
C 281.903525 178.979018 280.776347 178.512126 279.601197 178.512126 
C 278.426046 178.512126 277.298868 178.979018 276.467911 179.809975 
C 275.636954 180.640932 275.170062 181.76811 275.170062 182.943261 
C 275.170062 184.118411 275.636954 185.245589 276.467911 186.076546 
C 277.298868 186.907503 278.426046 187.374395 279.601197 187.374395 
z
" style="fill:#31688e;fill-opacity:0.75;stroke:#31688e;stroke-opacity:0.75;"/>
    <path clip-path="url(#pc9ecdd4bba)" d="M 171.274048 141.466033 
C 174.09441 141.466033 176.799636 140.345492 178.793933 138.351195 
C 180.78823 136.356898 181.908771 133.651672 181.908771 130.83131 
C 181.908771 128.010948 180.78823 125.305722 178.793933 123.311425 
C 176.799636 121.317128 174.09441 120.196587 171.274048 120.196587 
C 168.453687 120.196587 165.74846 121.317128 163.754163 123.311425 
C 161.759866 125.305722 160.639325 128.010948 160.639325 130.83131 
C 160.639325 133.651672 161.759866 136.356898 163.754163 138.351195 
C 165.74846 140.345492 168.453687 141.466033 171.274048 141.466033 
z
" style="fill:#fde725;fill-opacity:0.75;stroke:#fde725;stroke-opacity:0.75;"/>
    <path clip-path="url(#pc9ecdd4bba)" d="M 178.04001 168.191444 
C 179.215161 168.191444 180.342338 167.724551 181.173295 166.893594 
C 182.004252 166.062637 182.471145 164.93546 182.471145 163.760309 
C 182.471145 162.585158 182.004252 161.457981 181.173295 160.627024 
C 180.342338 159.796067 179.215161 159.329174 178.04001 159.329174 
C 176.864859 159.329174 175.737682 159.796067 174.906725 160.627024 
C 174.075768 161.457981 173.608875 162.585158 173.608875 163.760309 
C 173.608875 164.93546 174.075768 166.062637 174.906725 166.893594 
C 175.737682 167.724551 176.864859 168.191444 178.04001 168.191444 
z
" style="fill:#31688e;fill-opacity:0.75;stroke:#31688e;stroke-opacity:0.75;"/>
    <path clip-path="url(#pc9ecdd4bba)" d="M 290.28975 145.152848 
C 292.405021 145.152848 294.433941 144.312442 295.929664 142.816719 
C 297.425386 141.320996 298.265792 139.292077 298.265792 137.176805 
C 298.265792 135.061534 297.425386 133.032614 295.929664 131.536892 
C 294.433941 130.041169 292.405021 129.200763 290.28975 129.200763 
C 288.174479 129.200763 286.145559 130.041169 284.649836 131.536892 
C 283.154114 133.032614 282.313708 135.061534 282.313708 137.176805 
C 282.313708 139.292077 283.154114 141.320996 284.649836 142.816719 
C 286.145559 144.312442 288.174479 145.152848 290.28975 145.152848 
z
" style="fill:#fde725;fill-opacity:0.75;stroke:#fde725;stroke-opacity:0.75;"/>
    <path clip-path="url(#pc9ecdd4bba)" d="M 380.021917 149.417894 
C 382.372218 149.417894 384.626574 148.48411 386.288487 146.822196 
C 387.950401 145.160282 388.884186 142.905926 388.884186 140.555625 
C 388.884186 138.205324 387.950401 135.950968 386.288487 134.289054 
C 384.626574 132.62714 382.372218 131.693356 380.021917 131.693356 
C 377.671616 131.693356 375.41726 132.62714 373.755346 134.289054 
C 372.093432 135.950968 371.159648 138.205324 371.159648 140.555625 
C 371.159648 142.905926 372.093432 145.160282 373.755346 146.822196 
C 375.41726 148.48411 377.671616 149.417894 380.021917 149.417894 
z
" style="fill:#fde725;fill-opacity:0.75;stroke:#fde725;stroke-opacity:0.75;"/>
    <path clip-path="url(#pc9ecdd4bba)" d="M 171.794745 128.28065 
C 173.674986 128.28065 175.478471 127.533622 176.808002 126.204091 
C 178.137533 124.87456 178.884561 123.071076 178.884561 121.190835 
C 178.884561 119.310594 178.137533 117.507109 176.808002 116.177578 
C 175.478471 114.848047 173.674986 114.101019 171.794745 114.101019 
C 169.914504 114.101019 168.11102 114.848047 166.781489 116.177578 
C 165.451958 117.507109 164.70493 119.310594 164.70493 121.190835 
C 164.70493 123.071076 165.451958 124.87456 166.781489 126.204091 
C 168.11102 127.533622 169.914504 128.28065 171.794745 128.28065 
z
" style="fill:#31688e;fill-opacity:0.75;stroke:#31688e;stroke-opacity:0.75;"/>
    <path clip-path="url(#pc9ecdd4bba)" d="M 239.397278 196.648558 
C 241.747579 196.648558 244.001935 195.714774 245.663849 194.05286 
C 247.325762 192.390946 248.259547 190.13659 248.259547 187.786289 
C 248.259547 185.435988 247.325762 183.181632 245.663849 181.519718 
C 244.001935 179.857804 241.747579 178.92402 239.397278 178.92402 
C 237.046977 178.92402 234.792621 179.857804 233.130707 181.519718 
C 231.468793 183.181632 230.535009 185.435988 230.535009 187.786289 
C 230.535009 190.13659 231.468793 192.390946 233.130707 194.05286 
C 234.792621 195.714774 237.046977 196.648558 239.397278 196.648558 
z
" style="fill:#35b779;fill-opacity:0.75;stroke:#35b779;stroke-opacity:0.75;"/>
    <path clip-path="url(#pc9ecdd4bba)" d="M 68.901971 204.600913 
C 71.487303 204.600913 73.967094 203.57375 75.795199 201.745644 
C 77.623304 199.917539 78.650468 197.437748 78.650468 194.852416 
C 78.650468 192.267085 77.623304 189.787294 75.795199 187.959189 
C 73.967094 186.131083 71.487303 185.10392 68.901971 185.10392 
C 66.31664 185.10392 63.836849 186.131083 62.008744 187.959189 
C 60.180638 189.787294 59.153475 192.267085 59.153475 194.852416 
C 59.153475 197.437748 60.180638 199.917539 62.008744 201.745644 
C 63.836849 203.57375 66.31664 204.600913 68.901971 204.600913 
z
" style="fill:#440154;fill-opacity:0.75;stroke:#440154;stroke-opacity:0.75;"/>
    <path clip-path="url(#pc9ecdd4bba)" d="M 341.094594 111.17495 
C 342.269744 111.17495 343.396922 110.708058 344.227879 109.877101 
C 345.058836 109.046144 345.525728 107.918966 345.525728 106.743816 
C 345.525728 105.568665 345.058836 104.441487 344.227879 103.61053 
C 343.396922 102.779573 342.269744 102.312681 341.094594 102.312681 
C 339.919443 102.312681 338.792265 102.779573 337.961308 103.61053 
C 337.130351 104.441487 336.663459 105.568665 336.663459 106.743816 
C 336.663459 107.918966 337.130351 109.046144 337.961308 109.877101 
C 338.792265 110.708058 339.919443 111.17495 341.094594 111.17495 
z
" style="fill:#fde725;fill-opacity:0.75;stroke:#fde725;stroke-opacity:0.75;"/>
    <path clip-path="url(#pc9ecdd4bba)" d="M 302.212446 185.0485 
C 305.267838 185.0485 308.1985 183.83458 310.358988 181.674092 
C 312.519476 179.513603 313.733396 176.582941 313.733396 173.52755 
C 313.733396 170.472158 312.519476 167.541496 310.358988 165.381008 
C 308.1985 163.22052 305.267838 162.0066 302.212446 162.0066 
C 299.157054 162.0066 296.226392 163.22052 294.065904 165.381008 
C 291.905416 167.541496 290.691496 170.472158 290.691496 173.52755 
C 290.691496 176.582941 291.905416 179.513603 294.065904 181.674092 
C 296.226392 183.83458 299.157054 185.0485 302.212446 185.0485 
z
" style="fill:#31688e;fill-opacity:0.75;stroke:#31688e;stroke-opacity:0.75;"/>
    <path clip-path="url(#pc9ecdd4bba)" d="M 270.673576 213.598064 
C 273.258907 213.598064 275.738698 212.570901 277.566804 210.742796 
C 279.394909 208.914691 280.422072 206.4349 280.422072 203.849568 
C 280.422072 201.264237 279.394909 198.784446 277.566804 196.95634 
C 275.738698 195.128235 273.258907 194.101072 270.673576 194.101072 
C 268.088244 194.101072 265.608453 195.128235 263.780348 196.95634 
C 261.952243 198.784446 260.92508 201.264237 260.92508 203.849568 
C 260.92508 206.4349 261.952243 208.914691 263.780348 210.742796 
C 265.608453 212.570901 268.088244 213.598064 270.673576 213.598064 
z
" style="fill:#fde725;fill-opacity:0.75;stroke:#fde725;stroke-opacity:0.75;"/>
   </g>
   <g id="matplotlib.axis_1">
    <g id="xtick_1">
     <g id="line2d_1">
      <defs>
       <path d="M 0 0 
L 0 3.5 
" id="m69e1f26a65" style="stroke:#000000;stroke-width:0.8;"/>
      </defs>
      <g>
       <use style="stroke:#000000;stroke-width:0.8;" x="57.6" xlink:href="#m69e1f26a65" y="307.584"/>
      </g>
     </g>
     <g id="text_1">
      <!-- 0.0 -->
      <defs>
       <path d="M 31.78125 66.40625 
Q 24.171875 66.40625 20.328125 58.90625 
Q 16.5 51.421875 16.5 36.375 
Q 16.5 21.390625 20.328125 13.890625 
Q 24.171875 6.390625 31.78125 6.390625 
Q 39.453125 6.390625 43.28125 13.890625 
Q 47.125 21.390625 47.125 36.375 
Q 47.125 51.421875 43.28125 58.90625 
Q 39.453125 66.40625 31.78125 66.40625 
M 31.78125 74.21875 
Q 44.046875 74.21875 50.515625 64.515625 
Q 56.984375 54.828125 56.984375 36.375 
Q 56.984375 17.96875 50.515625 8.265625 
Q 44.046875 -1.421875 31.78125 -1.421875 
Q 19.53125 -1.421875 13.0625 8.265625 
Q 6.59375 17.96875 6.59375 36.375 
Q 6.59375 54.828125 13.0625 64.515625 
Q 19.53125 74.21875 31.78125 74.21875 
" id="DejaVuSans-30"/>
       <path d="M 10.6875 12.40625 
L 21 12.40625 
L 21 0 
L 10.6875 0 
z
" id="DejaVuSans-2e"/>
      </defs>
      <g transform="translate(49.648438 322.182437)scale(0.1 -0.1)">
       <use xlink:href="#DejaVuSans-30"/>
       <use x="63.623047" xlink:href="#DejaVuSans-2e"/>
       <use x="95.410156" xlink:href="#DejaVuSans-30"/>
      </g>
     </g>
    </g>
    <g id="xtick_2">
     <g id="line2d_2">
      <g>
       <use style="stroke:#000000;stroke-width:0.8;" x="129.024" xlink:href="#m69e1f26a65" y="307.584"/>
      </g>
     </g>
     <g id="text_2">
      <!-- 0.2 -->
      <defs>
       <path d="M 19.1875 8.296875 
L 53.609375 8.296875 
L 53.609375 0 
L 7.328125 0 
L 7.328125 8.296875 
Q 12.9375 14.109375 22.625 23.890625 
Q 32.328125 33.6875 34.8125 36.53125 
Q 39.546875 41.84375 41.421875 45.53125 
Q 43.3125 49.21875 43.3125 52.78125 
Q 43.3125 58.59375 39.234375 62.25 
Q 35.15625 65.921875 28.609375 65.921875 
Q 23.96875 65.921875 18.8125 64.3125 
Q 13.671875 62.703125 7.8125 59.421875 
L 7.8125 69.390625 
Q 13.765625 71.78125 18.9375 73 
Q 24.125 74.21875 28.421875 74.21875 
Q 39.75 74.21875 46.484375 68.546875 
Q 53.21875 62.890625 53.21875 53.421875 
Q 53.21875 48.921875 51.53125 44.890625 
Q 49.859375 40.875 45.40625 35.40625 
Q 44.1875 33.984375 37.640625 27.21875 
Q 31.109375 20.453125 19.1875 8.296875 
" id="DejaVuSans-32"/>
      </defs>
      <g transform="translate(121.072438 322.182437)scale(0.1 -0.1)">
       <use xlink:href="#DejaVuSans-30"/>
       <use x="63.623047" xlink:href="#DejaVuSans-2e"/>
       <use x="95.410156" xlink:href="#DejaVuSans-32"/>
      </g>
     </g>
    </g>
    <g id="xtick_3">
     <g id="line2d_3">
      <g>
       <use style="stroke:#000000;stroke-width:0.8;" x="200.448" xlink:href="#m69e1f26a65" y="307.584"/>
      </g>
     </g>
     <g id="text_3">
      <!-- 0.4 -->
      <defs>
       <path d="M 37.796875 64.3125 
L 12.890625 25.390625 
L 37.796875 25.390625 
z
M 35.203125 72.90625 
L 47.609375 72.90625 
L 47.609375 25.390625 
L 58.015625 25.390625 
L 58.015625 17.1875 
L 47.609375 17.1875 
L 47.609375 0 
L 37.796875 0 
L 37.796875 17.1875 
L 4.890625 17.1875 
L 4.890625 26.703125 
z
" id="DejaVuSans-34"/>
      </defs>
      <g transform="translate(192.496438 322.182437)scale(0.1 -0.1)">
       <use xlink:href="#DejaVuSans-30"/>
       <use x="63.623047" xlink:href="#DejaVuSans-2e"/>
       <use x="95.410156" xlink:href="#DejaVuSans-34"/>
      </g>
     </g>
    </g>
    <g id="xtick_4">
     <g id="line2d_4">
      <g>
       <use style="stroke:#000000;stroke-width:0.8;" x="271.872" xlink:href="#m69e1f26a65" y="307.584"/>
      </g>
     </g>
     <g id="text_4">
      <!-- 0.6 -->
      <defs>
       <path d="M 33.015625 40.375 
Q 26.375 40.375 22.484375 35.828125 
Q 18.609375 31.296875 18.609375 23.390625 
Q 18.609375 15.53125 22.484375 10.953125 
Q 26.375 6.390625 33.015625 6.390625 
Q 39.65625 6.390625 43.53125 10.953125 
Q 47.40625 15.53125 47.40625 23.390625 
Q 47.40625 31.296875 43.53125 35.828125 
Q 39.65625 40.375 33.015625 40.375 
M 52.59375 71.296875 
L 52.59375 62.3125 
Q 48.875 64.0625 45.09375 64.984375 
Q 41.3125 65.921875 37.59375 65.921875 
Q 27.828125 65.921875 22.671875 59.328125 
Q 17.53125 52.734375 16.796875 39.40625 
Q 19.671875 43.65625 24.015625 45.921875 
Q 28.375 48.1875 33.59375 48.1875 
Q 44.578125 48.1875 50.953125 41.515625 
Q 57.328125 34.859375 57.328125 23.390625 
Q 57.328125 12.15625 50.6875 5.359375 
Q 44.046875 -1.421875 33.015625 -1.421875 
Q 20.359375 -1.421875 13.671875 8.265625 
Q 6.984375 17.96875 6.984375 36.375 
Q 6.984375 53.65625 15.1875 63.9375 
Q 23.390625 74.21875 37.203125 74.21875 
Q 40.921875 74.21875 44.703125 73.484375 
Q 48.484375 72.75 52.59375 71.296875 
" id="DejaVuSans-36"/>
      </defs>
      <g transform="translate(263.920438 322.182437)scale(0.1 -0.1)">
       <use xlink:href="#DejaVuSans-30"/>
       <use x="63.623047" xlink:href="#DejaVuSans-2e"/>
       <use x="95.410156" xlink:href="#DejaVuSans-36"/>
      </g>
     </g>
    </g>
    <g id="xtick_5">
     <g id="line2d_5">
      <g>
       <use style="stroke:#000000;stroke-width:0.8;" x="343.296" xlink:href="#m69e1f26a65" y="307.584"/>
      </g>
     </g>
     <g id="text_5">
      <!-- 0.8 -->
      <defs>
       <path d="M 31.78125 34.625 
Q 24.75 34.625 20.71875 30.859375 
Q 16.703125 27.09375 16.703125 20.515625 
Q 16.703125 13.921875 20.71875 10.15625 
Q 24.75 6.390625 31.78125 6.390625 
Q 38.8125 6.390625 42.859375 10.171875 
Q 46.921875 13.96875 46.921875 20.515625 
Q 46.921875 27.09375 42.890625 30.859375 
Q 38.875 34.625 31.78125 34.625 
M 21.921875 38.8125 
Q 15.578125 40.375 12.03125 44.71875 
Q 8.5 49.078125 8.5 55.328125 
Q 8.5 64.0625 14.71875 69.140625 
Q 20.953125 74.21875 31.78125 74.21875 
Q 42.671875 74.21875 48.875 69.140625 
Q 55.078125 64.0625 55.078125 55.328125 
Q 55.078125 49.078125 51.53125 44.71875 
Q 48 40.375 41.703125 38.8125 
Q 48.828125 37.15625 52.796875 32.3125 
Q 56.78125 27.484375 56.78125 20.515625 
Q 56.78125 9.90625 50.3125 4.234375 
Q 43.84375 -1.421875 31.78125 -1.421875 
Q 19.734375 -1.421875 13.25 4.234375 
Q 6.78125 9.90625 6.78125 20.515625 
Q 6.78125 27.484375 10.78125 32.3125 
Q 14.796875 37.15625 21.921875 38.8125 
M 18.3125 54.390625 
Q 18.3125 48.734375 21.84375 45.5625 
Q 25.390625 42.390625 31.78125 42.390625 
Q 38.140625 42.390625 41.71875 45.5625 
Q 45.3125 48.734375 45.3125 54.390625 
Q 45.3125 60.0625 41.71875 63.234375 
Q 38.140625 66.40625 31.78125 66.40625 
Q 25.390625 66.40625 21.84375 63.234375 
Q 18.3125 60.0625 18.3125 54.390625 
" id="DejaVuSans-38"/>
      </defs>
      <g transform="translate(335.344438 322.182437)scale(0.1 -0.1)">
       <use xlink:href="#DejaVuSans-30"/>
       <use x="63.623047" xlink:href="#DejaVuSans-2e"/>
       <use x="95.410156" xlink:href="#DejaVuSans-38"/>
      </g>
     </g>
    </g>
    <g id="xtick_6">
     <g id="line2d_6">
      <g>
       <use style="stroke:#000000;stroke-width:0.8;" x="414.72" xlink:href="#m69e1f26a65" y="307.584"/>
      </g>
     </g>
     <g id="text_6">
      <!-- 1.0 -->
      <defs>
       <path d="M 12.40625 8.296875 
L 28.515625 8.296875 
L 28.515625 63.921875 
L 10.984375 60.40625 
L 10.984375 69.390625 
L 28.421875 72.90625 
L 38.28125 72.90625 
L 38.28125 8.296875 
L 54.390625 8.296875 
L 54.390625 0 
L 12.40625 0 
z
" id="DejaVuSans-31"/>
      </defs>
      <g transform="translate(406.768438 322.182437)scale(0.1 -0.1)">
       <use xlink:href="#DejaVuSans-31"/>
       <use x="63.623047" xlink:href="#DejaVuSans-2e"/>
       <use x="95.410156" xlink:href="#DejaVuSans-30"/>
      </g>
     </g>
    </g>
   </g>
   <g id="matplotlib.axis_2">
    <g id="ytick_1">
     <g id="line2d_7">
      <defs>
       <path d="M 0 0 
L -3.5 0 
" id="mee0bee8249" style="stroke:#000000;stroke-width:0.8;"/>
      </defs>
      <g>
       <use style="stroke:#000000;stroke-width:0.8;" x="57.6" xlink:href="#mee0bee8249" y="307.584"/>
      </g>
     </g>
     <g id="text_7">
      <!-- 0.0 -->
      <g transform="translate(34.696875 311.383219)scale(0.1 -0.1)">
       <use xlink:href="#DejaVuSans-30"/>
       <use x="63.623047" xlink:href="#DejaVuSans-2e"/>
       <use x="95.410156" xlink:href="#DejaVuSans-30"/>
      </g>
     </g>
    </g>
    <g id="ytick_2">
     <g id="line2d_8">
      <g>
       <use style="stroke:#000000;stroke-width:0.8;" x="57.6" xlink:href="#mee0bee8249" y="254.3616"/>
      </g>
     </g>
     <g id="text_8">
      <!-- 0.2 -->
      <g transform="translate(34.696875 258.160819)scale(0.1 -0.1)">
       <use xlink:href="#DejaVuSans-30"/>
       <use x="63.623047" xlink:href="#DejaVuSans-2e"/>
       <use x="95.410156" xlink:href="#DejaVuSans-32"/>
      </g>
     </g>
    </g>
    <g id="ytick_3">
     <g id="line2d_9">
      <g>
       <use style="stroke:#000000;stroke-width:0.8;" x="57.6" xlink:href="#mee0bee8249" y="201.1392"/>
      </g>
     </g>
     <g id="text_9">
      <!-- 0.4 -->
      <g transform="translate(34.696875 204.938419)scale(0.1 -0.1)">
       <use xlink:href="#DejaVuSans-30"/>
       <use x="63.623047" xlink:href="#DejaVuSans-2e"/>
       <use x="95.410156" xlink:href="#DejaVuSans-34"/>
      </g>
     </g>
    </g>
    <g id="ytick_4">
     <g id="line2d_10">
      <g>
       <use style="stroke:#000000;stroke-width:0.8;" x="57.6" xlink:href="#mee0bee8249" y="147.9168"/>
      </g>
     </g>
     <g id="text_10">
      <!-- 0.6 -->
      <g transform="translate(34.696875 151.716019)scale(0.1 -0.1)">
       <use xlink:href="#DejaVuSans-30"/>
       <use x="63.623047" xlink:href="#DejaVuSans-2e"/>
       <use x="95.410156" xlink:href="#DejaVuSans-36"/>
      </g>
     </g>
    </g>
    <g id="ytick_5">
     <g id="line2d_11">
      <g>
       <use style="stroke:#000000;stroke-width:0.8;" x="57.6" xlink:href="#mee0bee8249" y="94.6944"/>
      </g>
     </g>
     <g id="text_11">
      <!-- 0.8 -->
      <g transform="translate(34.696875 98.493619)scale(0.1 -0.1)">
       <use xlink:href="#DejaVuSans-30"/>
       <use x="63.623047" xlink:href="#DejaVuSans-2e"/>
       <use x="95.410156" xlink:href="#DejaVuSans-38"/>
      </g>
     </g>
    </g>
    <g id="ytick_6">
     <g id="line2d_12">
      <g>
       <use style="stroke:#000000;stroke-width:0.8;" x="57.6" xlink:href="#mee0bee8249" y="41.472"/>
      </g>
     </g>
     <g id="text_12">
      <!-- 1.0 -->
      <g transform="translate(34.696875 45.271219)scale(0.1 -0.1)">
       <use xlink:href="#DejaVuSans-31"/>
       <use x="63.623047" xlink:href="#DejaVuSans-2e"/>
       <use x="95.410156" xlink:href="#DejaVuSans-30"/>
      </g>
     </g>
    </g>
   </g>
   <g id="patch_3">
    <path d="M 57.6 307.584 
L 57.6 41.472 
" style="fill:none;stroke:#000000;stroke-linecap:square;stroke-linejoin:miter;stroke-width:0.8;"/>
   </g>
   <g id="patch_4">
    <path d="M 414.72 307.584 
L 414.72 41.472 
" style="fill:none;stroke:#000000;stroke-linecap:square;stroke-linejoin:miter;stroke-width:0.8;"/>
   </g>
   <g id="patch_5">
    <path d="M 57.6 307.584 
L 414.72 307.584 
" style="fill:none;stroke:#000000;stroke-linecap:square;stroke-linejoin:miter;stroke-width:0.8;"/>
   </g>
   <g id="patch_6">
    <path d="M 57.6 41.472 
L 414.72 41.472 
" style="fill:none;stroke:#000000;stroke-linecap:square;stroke-linejoin:miter;stroke-width:0.8;"/>
   </g>
  </g>
 </g>
 <defs>
  <clipPath id="pc9ecdd4bba">
   <rect height="266.112" width="357.12" x="57.6" y="41.472"/>
  </clipPath>
 </defs>
</svg>
